<?xml version="1.0" encoding="utf-8"?>
<!-- Generator: Adobe Illustrator 22.0.1, SVG Export Plug-In . SVG Version: 6.00 Build 0)  -->
<svg version="1.1" id="Capa_1" xmlns="http://www.w3.org/2000/svg" xmlns:xlink="http://www.w3.org/1999/xlink" x="0px" y="0px"
	 viewBox="0 0 512 512" style="enable-background:new 0 0 512 512;" xml:space="preserve">
<style type="text/css">
	.st0{fill:#2980B9;}
</style>
<g>
	<g transform="matrix(1.25 0 0 -1.25 0 45)">
		<g>
			<g>
				<path class="st0" d="M248.8-168.6L400.5-16.9c12.1,12.1,12.1,31.7,0,43.8c-12.1,12.1-31.7,12.1-43.8,0L205-124.8L53.3,26.9
					C41.2,39,21.5,39,9.4,26.9C-2.7,14.8-2.7-4.8,9.4-16.9l151.7-151.7L9.1-320.7C-3-332.8-3-352.4,9.1-364.5
					c6.1-6.1,14-9.1,21.9-9.1c7.9,0,15.9,3,21.9,9.1L205-212.5l151.7-151.7c6.1-6.1,14-9.1,21.9-9.1c7.9,0,15.9,3,21.9,9.1
					c12.1,12.1,12.1,31.7,0,43.8L248.8-168.6z"/>
			</g>
		</g>
	</g>
</g>
</svg>
