<?xml version="1.0" encoding="utf-8"?>
<!-- Generator: Adobe Illustrator 23.0.2, SVG Export Plug-In . SVG Version: 6.00 Build 0)  -->
<svg version="1.1" id="Camada_1" xmlns="http://www.w3.org/2000/svg" xmlns:xlink="http://www.w3.org/1999/xlink" x="0px" y="0px"
	 viewBox="0 0 284.8 181.5" style="enable-background:new 0 0 284.8 181.5;" xml:space="preserve">
<style type="text/css">
	.st0{fill:#7224B5;stroke:#7224B5;stroke-miterlimit:10;}
	.st1{fill:#7224B5;}
	.st2{fill:#FFFFFF;}
	.st3{fill:#FCFCFC;}
</style>
<rect x="-754.3" y="-1736.5" class="st0" width="1200" height="1200"/>
<g>
	<g>
		<g>
			<path class="st1" d="M-1549.6-957.4h3.8l6.2,9.6l6.2-9.6h3.8v20.2h-3.5v-14.5l-6.4,9.5h-0.1l-6.3-9.5v14.5h-3.5v-20.2H-1549.6z"
				/>
			<path class="st1" d="M-1515.6-957.6h3.3l8.9,20.4h-3.8l-2.1-4.9h-9.6l-2.1,4.9h-3.6L-1515.6-957.6z M-1510.4-945.2l-3.5-8.1
				l-3.5,8.1H-1510.4z"/>
			<path class="st1" d="M-1498.2-957.4h9c1.3,0,2.4,0.2,3.4,0.5s1.8,0.9,2.5,1.5c0.5,0.6,1,1.2,1.2,1.9s0.4,1.5,0.4,2.4v0.1
				c0,0.8-0.1,1.6-0.4,2.2c-0.2,0.7-0.6,1.3-1,1.8s-0.9,0.9-1.5,1.3c-0.6,0.4-1.2,0.6-2,0.8l5.5,7.7h-4.2l-5-7.1h-0.1h-4.4v7.1h-3.5
				L-1498.2-957.4L-1498.2-957.4z M-1489.4-947.4c1.3,0,2.3-0.3,3-0.9c0.7-0.6,1.1-1.4,1.1-2.5v-0.1c0-1.1-0.4-1.9-1.1-2.5
				s-1.8-0.9-3.1-0.9h-5.2v6.8h5.3L-1489.4-947.4L-1489.4-947.4z"/>
			<path class="st1" d="M-1475.6-957.4h3.5v10.2l9.6-10.2h4.4l-8.4,8.7l8.8,11.5h-4.3l-6.9-9.1l-3.2,3.2v5.9h-3.5V-957.4
				L-1475.6-957.4z"/>
			<path class="st1" d="M-1452.9-957.4h15v3.2h-11.4v5.2h10.1v3.2h-10.1v5.4h11.6v3.2h-15.1L-1452.9-957.4L-1452.9-957.4
				L-1452.9-957.4z"/>
			<path class="st1" d="M-1426.8-954.2h-6.4v-3.3h16.4v3.3h-6.4v16.9h-3.6V-954.2z"/>
			<path class="st1" d="M-1411.1-957.4h3.5v20.2h-3.5V-957.4z"/>
			<path class="st1" d="M-1400.4-957.4h3.3l10.8,14v-14h3.5v20.2h-3l-11.1-14.4v14.4h-3.5L-1400.4-957.4L-1400.4-957.4z"/>
			<path class="st1" d="M-1366.3-936.9c-1.6,0-3-0.3-4.3-0.8s-2.4-1.3-3.3-2.2s-1.6-2-2.1-3.3s-0.8-2.6-0.8-4.1v-0.1
				c0-1.4,0.3-2.7,0.8-4s1.2-2.4,2.2-3.3s2-1.7,3.3-2.3s2.7-0.8,4.2-0.8c0.9,0,1.7,0.1,2.4,0.2c0.7,0.1,1.4,0.3,2,0.5
				s1.2,0.5,1.7,0.9c0.5,0.3,1.1,0.7,1.6,1.2l-2.3,2.7c-0.4-0.3-0.8-0.6-1.2-0.9c-0.4-0.3-0.8-0.5-1.3-0.7c-0.4-0.2-0.9-0.3-1.5-0.4
				c-0.5-0.1-1.1-0.2-1.7-0.2c-0.9,0-1.8,0.2-2.6,0.6s-1.5,0.9-2.1,1.5s-1.1,1.4-1.4,2.3s-0.5,1.8-0.5,2.8v0.1c0,1,0.2,2,0.5,2.9
				s0.8,1.7,1.4,2.3s1.3,1.1,2.2,1.5c0.8,0.4,1.8,0.6,2.8,0.6s1.9-0.1,2.7-0.4c0.8-0.3,1.6-0.7,2.2-1.1v-3.8h-5.2v-3.1h8.6v8.5
				c-0.5,0.4-1.1,0.8-1.7,1.2s-1.3,0.7-2,1s-1.5,0.5-2.3,0.7C-1364.4-936.9-1365.4-936.9-1366.3-936.9z"/>
			<path class="st1" d="M-1341.1-957.4h7.5c1.6,0,3,0.3,4.3,0.8s2.5,1.2,3.4,2.1c1,0.9,1.7,2,2.2,3.2s0.8,2.5,0.8,4v0.1
				c0,1.4-0.3,2.8-0.8,4s-1.3,2.3-2.2,3.2c-1,0.9-2.1,1.6-3.4,2.1s-2.8,0.8-4.3,0.8h-7.5V-957.4z M-1333.4-940.4
				c1.1,0,2-0.2,2.9-0.5s1.6-0.8,2.2-1.4c0.6-0.6,1.1-1.3,1.4-2.2c0.3-0.8,0.5-1.8,0.5-2.7v-0.1c0-1-0.2-1.9-0.5-2.8
				c-0.3-0.9-0.8-1.6-1.4-2.2c-0.6-0.6-1.3-1.1-2.2-1.4c-0.9-0.3-1.8-0.5-2.9-0.5h-4v13.8L-1333.4-940.4L-1333.4-940.4z"/>
			<path class="st1" d="M-1316.5-957.4h3.5v20.2h-3.5V-957.4z"/>
			<path class="st1" d="M-1296.2-936.9c-1.6,0-3-0.3-4.3-0.8s-2.4-1.3-3.3-2.2c-0.9-0.9-1.6-2-2.1-3.3s-0.8-2.6-0.8-4.1v-0.1
				c0-1.4,0.3-2.7,0.8-4s1.2-2.4,2.2-3.3s2-1.7,3.3-2.3c1.3-0.6,2.7-0.8,4.2-0.8c0.9,0,1.7,0.1,2.4,0.2c0.7,0.1,1.4,0.3,2,0.5
				s1.2,0.5,1.7,0.9c0.5,0.3,1.1,0.7,1.6,1.2l-2.3,2.7c-0.4-0.3-0.8-0.6-1.2-0.9c-0.4-0.3-0.8-0.5-1.3-0.7c-0.4-0.2-0.9-0.3-1.5-0.4
				c-0.5-0.1-1.1-0.2-1.7-0.2c-0.9,0-1.8,0.2-2.6,0.6c-0.8,0.4-1.5,0.9-2.1,1.5c-0.6,0.6-1.1,1.4-1.4,2.3s-0.5,1.8-0.5,2.8v0.1
				c0,1,0.2,2,0.5,2.9c0.3,0.9,0.8,1.7,1.4,2.3c0.6,0.6,1.3,1.1,2.2,1.5c0.8,0.4,1.8,0.6,2.8,0.6s1.9-0.1,2.7-0.4
				c0.8-0.3,1.6-0.7,2.2-1.1v-3.8h-5.2v-3.1h8.6v8.5c-0.5,0.4-1.1,0.8-1.7,1.2c-0.6,0.4-1.3,0.7-2,1c-0.7,0.3-1.5,0.5-2.3,0.7
				C-1294.5-936.9-1295.3-936.9-1296.2-936.9z"/>
			<path class="st1" d="M-1281.2-957.4h3.5v20.2h-3.5V-957.4z"/>
			<path class="st1" d="M-1265.5-954.2h-6.4v-3.3h16.4v3.3h-6.4v16.9h-3.6V-954.2z"/>
			<path class="st1" d="M-1242.9-957.6h3.3l8.9,20.4h-3.8l-2.1-4.9h-9.6l-2.1,4.9h-3.6L-1242.9-957.6z M-1237.8-945.2l-3.5-8.1
				l-3.5,8.1H-1237.8z"/>
			<path class="st1" d="M-1225.5-957.4h3.5v17h10.6v3.2h-14.2v-20.2H-1225.5z"/>
		</g>
		<g>
			<path class="st1" d="M-1570.9-970.2c-5.2,0-9.9-0.9-14.1-2.6c-4.2-1.7-7.8-4.1-10.8-7.2c-3-3.1-5.3-6.7-7-10.8
				c-1.6-4.1-2.5-8.6-2.5-13.5v-0.2c0-4.6,0.8-9,2.5-13.1c1.7-4.2,4-7.8,7.1-10.9c3-3.1,6.7-5.6,10.9-7.4s8.8-2.7,13.8-2.7
				c2.9,0,5.5,0.2,7.9,0.6s4.6,1,6.6,1.8s3.9,1.7,5.7,2.8c1.8,1.1,3.5,2.4,5.3,3.8l-7.4,8.8c-1.3-1.1-2.6-2-3.9-2.9
				c-1.3-0.9-2.7-1.6-4.2-2.2s-3-1.1-4.8-1.4c-1.7-0.3-3.6-0.5-5.7-0.5c-3,0-5.9,0.6-8.5,1.9s-4.9,3-6.8,5.1s-3.4,4.6-4.5,7.4
				c-1.1,2.8-1.7,5.8-1.7,9v0.2c0,3.4,0.5,6.6,1.6,9.5s2.6,5.4,4.6,7.5s4.3,3.7,7.1,4.9c2.7,1.2,5.8,1.8,9.2,1.8
				c3.1,0,6.1-0.5,8.8-1.4c2.7-0.9,5.1-2.1,7.1-3.7v-12.5h-16.9v-10.1h28.2v27.8c-1.6,1.4-3.5,2.7-5.4,4c-2,1.3-4.1,2.4-6.4,3.3
				c-2.3,0.9-4.8,1.7-7.4,2.2C-1565.3-970.5-1568.1-970.2-1570.9-970.2z"/>
			<path class="st1" d="M-1280.8-970.4c-5.1,0-10-0.9-14.7-2.6c-4.7-1.7-9-4.4-13-8l7-8.3c3.2,2.8,6.5,4.9,9.7,6.4
				c3.3,1.5,7,2.2,11.2,2.2c3.6,0,6.4-0.8,8.6-2.3c2.1-1.5,3.2-3.5,3.2-6.1v-0.2c0-1.2-0.2-2.3-0.6-3.2c-0.4-0.9-1.2-1.8-2.3-2.6
				s-2.6-1.6-4.6-2.3c-1.9-0.7-4.4-1.4-7.5-2.1c-3.5-0.8-6.7-1.8-9.4-2.8c-2.8-1-5.1-2.3-6.9-3.8c-1.9-1.5-3.3-3.3-4.3-5.4
				c-1-2.1-1.5-4.7-1.5-7.8v-0.2c0-2.8,0.6-5.4,1.7-7.8c1.1-2.4,2.7-4.4,4.6-6.1c2-1.7,4.3-3,7.1-3.9s5.8-1.4,9.1-1.4
				c4.9,0,9.2,0.7,13.1,2.1s7.5,3.5,10.9,6.2l-6.2,8.8c-3-2.2-6-3.9-9-5.1c-3-1.2-6-1.8-9-1.8c-3.4,0-6.1,0.8-7.9,2.3
				c-1.9,1.5-2.8,3.4-2.8,5.6v0.2c0,1.3,0.2,2.4,0.7,3.4c0.4,1,1.2,1.9,2.4,2.6c1.2,0.8,2.8,1.5,4.8,2.2c2.1,0.7,4.7,1.4,7.8,2.2
				c3.5,0.9,6.6,1.9,9.2,2.9c2.7,1.1,4.9,2.4,6.7,3.9c1.8,1.5,3.1,3.3,4,5.4c0.9,2.1,1.4,4.4,1.4,7.1v0.2c0,3.1-0.6,5.9-1.7,8.3
				c-1.2,2.5-2.8,4.5-4.8,6.2c-2.1,1.7-4.5,3-7.4,3.9C-1274-970.9-1277.3-970.4-1280.8-970.4z"/>
			<path class="st1" d="M-1237.2-1037.6h11.5v66.2h-11.5V-1037.6z"/>
			<path class="st1" d="M-1178.9-970.4c-5.1,0-10-0.9-14.7-2.6c-4.7-1.7-9-4.4-13-8l7-8.3c3.2,2.8,6.5,4.9,9.7,6.4
				c3.3,1.5,7,2.2,11.2,2.2c3.6,0,6.4-0.8,8.6-2.3c2.1-1.5,3.2-3.5,3.2-6.1v-0.2c0-1.2-0.2-2.3-0.6-3.2c-0.4-0.9-1.2-1.8-2.3-2.6
				c-1.1-0.8-2.6-1.6-4.6-2.3c-1.9-0.7-4.4-1.4-7.5-2.1c-3.5-0.8-6.7-1.8-9.4-2.8c-2.8-1-5.1-2.3-6.9-3.8c-1.9-1.5-3.3-3.3-4.3-5.4
				c-1-2.1-1.5-4.7-1.5-7.8v-0.2c0-2.8,0.6-5.4,1.7-7.8c1.1-2.4,2.7-4.4,4.6-6.1c2-1.7,4.3-3,7.1-3.9c2.8-0.9,5.8-1.4,9.1-1.4
				c4.9,0,9.2,0.7,13.1,2.1c3.9,1.4,7.5,3.5,10.9,6.2l-6.2,8.8c-3-2.2-6-3.9-9-5.1c-3-1.2-6-1.8-9-1.8c-3.4,0-6.1,0.8-7.9,2.3
				c-1.9,1.5-2.8,3.4-2.8,5.6v0.2c0,1.3,0.2,2.4,0.7,3.4c0.4,1,1.2,1.9,2.4,2.6c1.2,0.8,2.8,1.5,4.8,2.2c2.1,0.7,4.7,1.4,7.8,2.2
				c3.5,0.9,6.6,1.9,9.2,2.9c2.7,1.1,4.9,2.4,6.7,3.9s3.1,3.3,4,5.4c0.9,2.1,1.4,4.4,1.4,7.1v0.2c0,3.1-0.6,5.9-1.7,8.3
				c-1.2,2.5-2.8,4.5-4.8,6.2c-2.1,1.7-4.5,3-7.4,3.9C-1172.2-970.9-1175.4-970.4-1178.9-970.4z"/>
			<polygon class="st1" points="-1407.3,-1019.7 -1407.3,-991.8 -1442.7,-1037.6 -1453.4,-1037.6 -1453.4,-971.4 -1441.9,-971.4 
				-1441.9,-1018.5 -1405.4,-971.4 -1395.8,-971.4 -1395.8,-1019.7 			"/>
			<polygon class="st1" points="-1510.9,-981.9 -1510.9,-997.1 -1510.9,-999.6 -1510.9,-1010.1 -1510.9,-1014 -1510.9,-1027.1 
				-1473.6,-1027.1 -1473.6,-1037.6 -1522.6,-1037.6 -1522.6,-971.4 -1473.1,-971.4 -1473.1,-981.9 			"/>
			<rect x="-1503.9" y="-1010.1" class="st1" width="22.3" height="10.5"/>
			<polygon class="st1" points="-1361.6,-981.9 -1361.6,-997.1 -1361.7,-997.1 -1361.7,-1014 -1361.6,-1014 -1361.6,-1027.1 
				-1324.1,-1027.1 -1324.1,-1037.6 -1373.1,-1037.6 -1373.1,-971.4 -1323.6,-971.4 -1323.6,-981.9 			"/>
			<rect x="-1354.7" y="-1010.1" class="st1" width="22.4" height="10.5"/>
		</g>
	</g>
	<g>
		<path class="st0" d="M-1247.9-1210.5c-31.2-19.8-74.8-37.8-122.8-50.7c-48-12.9-94.7-19.3-131.6-17.8
			c-39.7,1.5-63.1,11.7-67.9,29.4c-4.8,17.7,10.4,38.3,44,59.5c11.3,7.2,24.3,14.1,38.5,20.7c-2.6-5.2-4.9-10.6-6.7-16.2
			c-44.3-22.3-68.6-46.1-64.5-61c6.3-23.5,84-30.6,185.3-3.3c101.3,27.3,164.9,72.5,158.5,96c-3.8,14.3-34,22.5-79.8,20.6
			c-4.4,3.9-9,7.6-13.9,10.8c13.1,1,25.5,1.3,37,0.9c39.7-1.5,63.1-11.7,67.9-29.4S-1214.4-1189.2-1247.9-1210.5z"/>
		<path class="st0" d="M-1255.4-1165.8L-1255.4-1165.8c0.1-0.1-37-31.3-130.7-56.2l5.1,15.1c0,0,46.8,5.9,109.1,45.6
			c-27.6,46-83.4,70.3-137.7,55.6c-65.6-17.7-104.6-85.4-86.9-151s85.4-104.6,151-86.9c53.9,14.5,89.9,62.9,91.1,116.1
			c0,2.9-0.2,8.3-1.8,11.9l14,8.7c0,0,2.7-6.6,2.9-11.9c2.7-63.2-38.6-122.3-102.2-139.5c-73.6-19.8-149.7,23.9-169.5,97.5
			s23.9,149.7,97.5,169.5c65,17.5,131.9-14.6,160.4-73.1C-1253.9-1164.7-1254.5-1165.2-1255.4-1165.8z"/>
		<path class="st0" d="M-1520.9-1299.8c-5.3,0-9.4-4.2-9.4-9.6c0-5.2,4.3-9.4,9.6-9.4c5.2,0,9.4,4.3,9.4,9.5
			C-1511.4-1304-1515.7-1299.8-1520.9-1299.8z"/>
		<g>
			<path class="st1" d="M-1533.3-1110.5C-1533.4-1110.5-1533.4-1110.5-1533.3-1110.5c-12.9,0-22.9-10.2-22.9-23.1s10.1-22.9,23-23
				l0,0c6.2,0,12,2.4,16.4,6.8s6.7,10.2,6.7,16.4C-1510.2-1120.5-1520.4-1110.5-1533.3-1110.5z M-1533.2-1146.5L-1533.2-1146.5
				c-7.3,0-13,5.7-13,13c0,7.4,5.5,13,12.8,13l0,0l0,0c7.5,0,13.1-5.5,13.2-12.9c0-3.5-1.3-6.8-3.8-9.3
				C-1526.4-1145.1-1529.7-1146.5-1533.2-1146.5z"/>
		</g>
		<path class="st0" d="M-1282.2-1090.8c0-4.8,3.8-8.5,8.5-8.5c4.8,0,8.6,3.8,8.6,8.5s-3.9,8.6-8.6,8.6
			C-1278.3-1082.2-1282.2-1086-1282.2-1090.8z"/>
		<g>
			<path class="st1" d="M-1209-1236.9L-1209-1236.9L-1209-1236.9c-7.5,0-13.5-6-13.6-13.4c0-3.5,1.4-6.9,3.9-9.5c2.6-2.6,6-4,9.6-4
				l0,0c3.7,0,7.2,1.4,9.8,4.1c2.5,2.6,3.9,5.9,3.8,9.5C-1195.5-1242.8-1201.5-1236.9-1209-1236.9z M-1209-1242.9L-1209-1242.9
				c4.2,0,7.5-3.3,7.6-7.4c0-2-0.7-3.8-2.1-5.2c-1.4-1.5-3.4-2.3-5.5-2.3l0,0c-2,0-3.9,0.8-5.3,2.3c-1.4,1.4-2.2,3.3-2.2,5.2
				C-1216.5-1246.3-1213.2-1242.9-1209-1242.9L-1209-1242.9z"/>
		</g>
	</g>
</g>
<g>
	<g>
		<g>
			<path class="st2" d="M-323.6-946.3h3.8l6.2,9.6l6.2-9.6h3.8v20.2h-3.5v-14.5l-6.4,9.5h-0.1l-6.3-9.5v14.5h-3.5v-20.2H-323.6z"/>
			<path class="st2" d="M-289.6-946.4h3.3l8.9,20.4h-3.8l-2.1-4.9h-9.6l-2.1,4.9h-3.6L-289.6-946.4z M-284.5-934.1l-3.5-8.1
				l-3.5,8.1L-284.5-934.1L-284.5-934.1z"/>
			<path class="st2" d="M-272.2-946.3h9c1.3,0,2.4,0.2,3.4,0.5s1.8,0.9,2.5,1.5c0.5,0.6,1,1.2,1.2,1.9c0.2,0.7,0.4,1.5,0.4,2.4v0.1
				c0,0.8-0.1,1.6-0.4,2.2c-0.2,0.7-0.6,1.3-1,1.8s-0.9,0.9-1.5,1.3c-0.6,0.4-1.2,0.6-2,0.8l5.5,7.7h-4.2l-5-7.1h-0.1h-4.4v7.1h-3.5
				L-272.2-946.3L-272.2-946.3z M-263.5-936.3c1.3,0,2.3-0.3,3-0.9s1.1-1.4,1.1-2.5v-0.1c0-1.1-0.4-1.9-1.1-2.5s-1.8-0.9-3.1-0.9
				h-5.2v6.8h5.3V-936.3z"/>
			<path class="st2" d="M-249.6-946.3h3.5v10.2l9.6-10.2h4.4l-8.4,8.7l8.8,11.5h-4.3l-6.9-9.1l-3.2,3.2v5.9h-3.5
				C-249.6-926.1-249.6-946.3-249.6-946.3z"/>
			<path class="st2" d="M-226.9-946.3h15v3.2h-11.3v5.2h10.1v3.2h-10.1v5.4h11.6v3.2h-15.1v-20.2L-226.9-946.3L-226.9-946.3z"/>
			<path class="st2" d="M-200.7-943h-6.4v-3.3h16.4v3.3h-6.4v16.9h-3.6V-943z"/>
			<path class="st2" d="M-185.1-946.3h3.5v20.2h-3.5V-946.3z"/>
			<path class="st2" d="M-174.4-946.3h3.3l10.8,14v-14h3.5v20.2h-3l-11.1-14.4v14.4h-3.5V-946.3L-174.4-946.3z"/>
			<path class="st2" d="M-140.2-925.7c-1.6,0-3-0.3-4.3-0.8s-2.4-1.3-3.3-2.2s-1.6-2-2.1-3.3s-0.8-2.6-0.8-4.1v-0.1
				c0-1.4,0.3-2.7,0.8-4s1.2-2.4,2.2-3.3s2-1.7,3.3-2.3s2.7-0.8,4.2-0.8c0.9,0,1.7,0.1,2.4,0.2c0.7,0.1,1.4,0.3,2,0.5
				s1.2,0.5,1.7,0.9c0.5,0.3,1.1,0.7,1.6,1.2l-2.3,2.7c-0.4-0.3-0.8-0.6-1.2-0.9c-0.4-0.3-0.8-0.5-1.3-0.7c-0.4-0.2-0.9-0.3-1.5-0.4
				c-0.5-0.1-1.1-0.2-1.7-0.2c-0.9,0-1.8,0.2-2.6,0.6s-1.5,0.9-2.1,1.5s-1.1,1.4-1.4,2.3s-0.5,1.8-0.5,2.8v0.1c0,1,0.2,2,0.5,2.9
				s0.8,1.7,1.4,2.3s1.3,1.1,2.2,1.5c0.8,0.4,1.8,0.6,2.8,0.6s1.9-0.1,2.7-0.4c0.8-0.3,1.6-0.7,2.2-1.1v-3.8h-5.2v-3.1h8.6v8.5
				c-0.5,0.4-1.1,0.8-1.7,1.2s-1.3,0.7-2,1s-1.5,0.5-2.3,0.7C-138.5-925.8-139.4-925.7-140.2-925.7z"/>
			<path class="st2" d="M-115.1-946.3h7.5c1.6,0,3,0.3,4.3,0.8s2.5,1.2,3.4,2.1c1,0.9,1.7,2,2.2,3.2s0.8,2.5,0.8,4v0.1
				c0,1.4-0.3,2.8-0.8,4s-1.3,2.3-2.2,3.2c-1,0.9-2.1,1.6-3.4,2.1s-2.8,0.8-4.3,0.8h-7.5V-946.3z M-107.5-929.3c1.1,0,2-0.2,2.9-0.5
				s1.6-0.8,2.2-1.4c0.6-0.6,1.1-1.3,1.4-2.2c0.3-0.8,0.5-1.8,0.5-2.7v-0.1c0-1-0.2-1.9-0.5-2.8c-0.3-0.9-0.8-1.6-1.4-2.2
				c-0.6-0.6-1.3-1.1-2.2-1.4s-1.8-0.5-2.9-0.5h-4v13.8L-107.5-929.3L-107.5-929.3z"/>
			<path class="st2" d="M-90.5-946.3h3.5v20.2h-3.5V-946.3z"/>
			<path class="st2" d="M-70.2-925.7c-1.6,0-3-0.3-4.3-0.8s-2.4-1.3-3.3-2.2s-1.6-2-2.1-3.3s-0.8-2.6-0.8-4.1v-0.1
				c0-1.4,0.3-2.7,0.8-4s1.2-2.4,2.2-3.3s2-1.7,3.3-2.3s2.7-0.8,4.2-0.8c0.9,0,1.7,0.1,2.4,0.2c0.7,0.1,1.4,0.3,2,0.5
				s1.2,0.5,1.7,0.9c0.5,0.3,1.1,0.7,1.6,1.2l-2.3,2.7c-0.4-0.3-0.8-0.6-1.2-0.9c-0.4-0.3-0.8-0.5-1.3-0.7c-0.4-0.2-0.9-0.3-1.5-0.4
				c-0.5-0.1-1.1-0.2-1.7-0.2c-0.9,0-1.8,0.2-2.6,0.6s-1.5,0.9-2.1,1.5s-1.1,1.4-1.4,2.3s-0.5,1.8-0.5,2.8v0.1c0,1,0.2,2,0.5,2.9
				s0.8,1.7,1.4,2.3s1.3,1.1,2.2,1.5c0.8,0.4,1.8,0.6,2.8,0.6s1.9-0.1,2.7-0.4c0.8-0.3,1.6-0.7,2.2-1.1v-3.8h-5.2v-3.1h8.6v8.5
				c-0.5,0.4-1.1,0.8-1.7,1.2s-1.3,0.7-2,1s-1.5,0.5-2.3,0.7C-68.5-925.8-69.2-925.7-70.2-925.7z"/>
			<path class="st2" d="M-55.2-946.3h3.5v20.2h-3.5V-946.3z"/>
			<path class="st2" d="M-39.5-943H-46v-3.3h16.4v3.3H-36v16.9h-3.6V-943H-39.5z"/>
			<path class="st2" d="M-16.9-946.4h3.3l8.9,20.4h-3.8l-2.1-4.9h-9.6l-2.1,4.9h-3.6L-16.9-946.4z M-11.7-934.1l-3.5-8.1l-3.5,8.1
				H-11.7z"/>
			<path class="st2" d="M0.5-946.3H4v17h10.6v3.2H0.4v-20.2H0.5z"/>
		</g>
		<g>
			<path class="st2" d="M-345-959.1c-5.2,0-9.9-0.9-14.1-2.6c-4.2-1.7-7.8-4.1-10.8-7.2c-3-3.1-5.3-6.7-7-10.8
				c-1.6-4.1-2.5-8.6-2.5-13.5v-0.2c0-4.6,0.8-9,2.5-13.1c1.7-4.2,4-7.8,7.1-10.9c3-3.1,6.7-5.6,10.9-7.4c4.2-1.8,8.8-2.7,13.8-2.7
				c2.9,0,5.5,0.2,7.9,0.6c2.4,0.4,4.6,1,6.6,1.8s3.9,1.7,5.7,2.8c1.8,1.1,3.5,2.4,5.3,3.8l-7.4,8.8c-1.3-1.1-2.6-2-3.9-2.9
				c-1.3-0.9-2.7-1.6-4.2-2.2c-1.5-0.6-3-1.1-4.8-1.4c-1.7-0.3-3.6-0.5-5.7-0.5c-3,0-5.9,0.6-8.5,1.9c-2.6,1.3-4.9,3-6.8,5.1
				s-3.4,4.6-4.5,7.4c-1.1,2.8-1.7,5.8-1.7,9v0.2c0,3.4,0.5,6.6,1.6,9.5s2.6,5.4,4.6,7.5s4.3,3.7,7.1,4.9c2.7,1.2,5.8,1.8,9.2,1.8
				c3.1,0,6.1-0.5,8.8-1.4c2.7-0.9,5.1-2.1,7.1-3.7V-987h-16.9v-10.1h28.2v27.8c-1.6,1.4-3.5,2.7-5.4,4c-2,1.3-4.1,2.4-6.4,3.3
				c-2.3,0.9-4.8,1.7-7.4,2.2C-339.3-959.4-342.1-959.1-345-959.1z"/>
			<path class="st2" d="M-54.7-959.3c-5.1,0-10-0.9-14.7-2.6c-4.7-1.7-9-4.4-13-8l7-8.3c3.2,2.8,6.5,4.9,9.7,6.4
				c3.3,1.5,7,2.2,11.2,2.2c3.6,0,6.4-0.8,8.6-2.3c2.1-1.5,3.2-3.5,3.2-6.1v-0.2c0-1.2-0.2-2.3-0.6-3.2s-1.2-1.8-2.3-2.6
				s-2.6-1.6-4.6-2.3c-1.9-0.7-4.4-1.4-7.5-2.1c-3.5-0.8-6.7-1.8-9.4-2.8c-2.8-1-5.1-2.3-6.9-3.8c-1.9-1.5-3.3-3.3-4.3-5.4
				c-1-2.1-1.5-4.7-1.5-7.8v-0.2c0-2.8,0.6-5.4,1.7-7.8c1.1-2.4,2.7-4.4,4.6-6.1c2-1.7,4.3-3,7.1-3.9s5.8-1.4,9.1-1.4
				c4.9,0,9.2,0.7,13.1,2.1s7.5,3.5,10.9,6.2l-6.2,8.8c-3-2.2-6-3.9-9-5.1c-3-1.2-6-1.8-9-1.8c-3.4,0-6.1,0.8-7.9,2.3
				c-1.9,1.5-2.8,3.4-2.8,5.6v0.2c0,1.3,0.2,2.4,0.7,3.4c0.4,1,1.2,1.9,2.4,2.6c1.2,0.8,2.8,1.5,4.8,2.2c2.1,0.7,4.7,1.4,7.8,2.2
				c3.5,0.9,6.6,1.9,9.2,2.9c2.7,1.1,4.9,2.4,6.7,3.9s3.1,3.3,4,5.4c0.9,2.1,1.4,4.4,1.4,7.1v0.2c0,3.1-0.6,5.9-1.7,8.3
				c-1.2,2.5-2.8,4.5-4.8,6.2c-2.1,1.7-4.5,3-7.4,3.9C-48.1-959.7-51.2-959.3-54.7-959.3z"/>
			<path class="st2" d="M-11.2-1026.4H0.3v66.2h-11.5V-1026.4z"/>
			<path class="st2" d="M47.1-959.3c-5.1,0-10-0.9-14.7-2.6c-4.7-1.7-9-4.4-13-8l7-8.3c3.2,2.8,6.5,4.9,9.7,6.4
				c3.3,1.5,7,2.2,11.2,2.2c3.6,0,6.4-0.8,8.6-2.3c2.1-1.5,3.2-3.5,3.2-6.1v-0.2c0-1.2-0.2-2.3-0.6-3.2s-1.2-1.8-2.3-2.6
				s-2.6-1.6-4.6-2.3c-1.9-0.7-4.4-1.4-7.5-2.1c-3.5-0.8-6.7-1.8-9.4-2.8c-2.8-1-5.1-2.3-6.9-3.8c-1.9-1.5-3.3-3.3-4.3-5.4
				c-1-2.1-1.5-4.7-1.5-7.8v-0.2c0-2.8,0.6-5.4,1.7-7.8c1.1-2.4,2.7-4.4,4.6-6.1c2-1.7,4.3-3,7.1-3.9s5.8-1.4,9.1-1.4
				c4.9,0,9.2,0.7,13.1,2.1s7.5,3.5,10.9,6.2l-6.2,8.8c-3-2.2-6-3.9-9-5.1c-3-1.2-6-1.8-9-1.8c-3.4,0-6.1,0.8-7.9,2.3
				c-1.9,1.5-2.8,3.4-2.8,5.6v0.2c0,1.3,0.2,2.4,0.7,3.4c0.4,1,1.2,1.9,2.4,2.6c1.2,0.8,2.8,1.5,4.8,2.2c2.1,0.7,4.7,1.4,7.8,2.2
				c3.5,0.9,6.6,1.9,9.2,2.9c2.7,1.1,4.9,2.4,6.7,3.9s3.1,3.3,4,5.4c0.9,2.1,1.4,4.4,1.4,7.1v0.2c0,3.1-0.6,5.9-1.7,8.3
				c-1.2,2.5-2.8,4.5-4.8,6.2c-2.1,1.7-4.5,3-7.4,3.9C53.8-959.7,50.6-959.3,47.1-959.3z"/>
			<polygon class="st2" points="-181.2,-1008.6 -181.2,-980.7 -216.7,-1026.4 -227.5,-1026.4 -227.5,-960.2 -216,-960.2 
				-216,-1007.3 -179.5,-960.2 -169.7,-960.2 -169.7,-1008.6 			"/>
			<polygon class="st2" points="-285,-970.7 -285,-986 -285,-988.4 -285,-998.9 -285,-1002.8 -285,-1015.9 -247.6,-1015.9 
				-247.6,-1026.4 -296.6,-1026.4 -296.6,-960.2 -247.1,-960.2 -247.1,-970.7 			"/>
			<rect x="-278" y="-998.9" class="st2" width="22.3" height="10.5"/>
			<polygon class="st2" points="-135.6,-970.7 -135.6,-986 -135.7,-986 -135.7,-1002.8 -135.6,-1002.8 -135.6,-1015.9 
				-98.1,-1015.9 -98.1,-1026.4 -147.1,-1026.4 -147.1,-960.2 -97.6,-960.2 -97.6,-970.7 			"/>
			<rect x="-128.7" y="-998.9" class="st2" width="22.4" height="10.5"/>
		</g>
	</g>
	<g>
		<path class="st2" d="M-21.9-1199.3c-31.2-19.8-74.8-37.8-122.8-50.7c-48-12.9-94.7-19.3-131.6-17.8c-39.7,1.5-63.1,11.7-67.9,29.4
			c-4.8,17.7,10.4,38.3,44,59.5c11.3,7.2,24.3,14.1,38.5,20.7c-2.6-5.2-4.9-10.6-6.7-16.2c-44.3-22.3-68.6-46.1-64.5-61
			c6.3-23.5,84-30.6,185.3-3.3c101.3,27.3,164.9,72.5,158.5,96c-3.8,14.3-34,22.5-79.8,20.6c-4.4,3.9-9,7.6-13.9,10.8
			c13.1,1,25.5,1.3,37,0.9c39.7-1.5,63.1-11.7,67.9-29.4S11.6-1178.1-21.9-1199.3z"/>
		<path class="st2" d="M-29.4-1154.7l0.1-0.1c0,0-37.1-31.2-130.8-56.1l5.1,15.1c0,0,46.8,5.9,109.1,45.6
			c-27.6,46-83.4,70.3-137.7,55.6c-65.6-17.7-104.6-85.4-86.9-151c17.7-65.6,85.4-104.6,151-86.9c53.9,14.5,89.9,62.9,91.1,116.1
			c0,2.9-0.2,8.3-1.8,11.9l14,8.7c0,0,2.7-6.6,2.9-11.9c2.7-63.2-38.6-122.3-102.2-139.5c-73.6-19.8-149.7,23.9-169.5,97.5
			c-19.8,73.6,24,149.7,97.6,169.5c65,17.5,131.9-14.6,160.4-73.1C-27.9-1153.5-28.6-1154.1-29.4-1154.7z"/>
		<path class="st2" d="M-295-1288.7c-5.3,0-9.4-4.2-9.4-9.6c0-5.2,4.3-9.4,9.6-9.4c5.2,0,9.4,4.3,9.4,9.5
			C-285.4-1292.9-289.7-1288.7-295-1288.7z"/>
		<g>
			<path class="st2" d="M-307.3-1099.3C-307.4-1099.3-307.4-1099.3-307.3-1099.3c-12.9,0-22.9-10.2-22.9-23.1s10.1-22.9,23-23l0,0
				c6.2,0,12,2.4,16.4,6.8c4.4,4.4,6.7,10.2,6.7,16.4C-284.2-1109.4-294.4-1099.3-307.3-1099.3z M-307.2-1135.4L-307.2-1135.4
				c-7.3,0-13,5.7-13,13c0,7.4,5.5,13,12.8,13l0,0l0,0c7.5,0,13.1-5.5,13.2-12.9c0-3.5-1.3-6.8-3.8-9.3
				C-300.4-1134-303.7-1135.4-307.2-1135.4z"/>
		</g>
		<path class="st2" d="M-56.2-1079.6c0-4.8,3.8-8.5,8.5-8.5c4.8,0,8.6,3.8,8.6,8.5s-3.9,8.6-8.6,8.6
			C-52.2-1071-56.2-1074.9-56.2-1079.6z"/>
		<g>
			<path class="st3" d="M17-1225.8L17-1225.8c-7.5,0-13.5-6-13.6-13.4c0-3.5,1.4-6.9,3.9-9.5c2.6-2.6,6-4,9.6-4l0,0
				c3.7,0,7.2,1.4,9.8,4.1c2.5,2.6,3.9,5.9,3.8,9.5C30.5-1231.6,24.5-1225.8,17-1225.8z M17-1246.7L17-1246.7c-2,0-3.9,0.8-5.3,2.3
				c-1.4,1.4-2.2,3.3-2.2,5.2c0,4.1,3.4,7.4,7.5,7.4l0,0l0,0c4.2,0,7.5-3.3,7.6-7.4c0-2-0.7-3.8-2.1-5.2
				C21-1245.9,19.1-1246.7,17-1246.7z"/>
		</g>
	</g>
</g>
<g>
	<g>
		<g>
			<path class="st1" d="M218,98.3c-19.5-12.3-46.6-23.6-76.5-31.6s-59-12-82.1-11.1c-24.7,1-39.4,7.3-42.3,18.3s6.5,23.8,27.4,37.1
				c7.1,4.5,15.2,8.8,24,12.9c-1.6-3.3-3-6.6-4.2-10.1c-27.6-13.9-42.7-28.7-40.2-38c3.9-14.6,52.4-19.1,115.5-2.1
				c63.2,17,102.8,45.2,98.8,59.8c-2.4,8.9-21.2,14-49.8,12.9c-2.7,2.5-5.6,4.7-8.7,6.8c8.2,0.6,15.9,0.8,23.1,0.6
				c24.7-1,39.4-7.3,42.3-18.3C248.4,124.4,238.9,111.6,218,98.3z"/>
			<path class="st1" d="M213.3,126.1L213.3,126.1c0-0.1-23.1-19.6-81.5-35l3.2,9.4c0,0,29.2,3.7,68,28.4
				c-17.2,28.7-52,43.8-85.9,34.7C76.3,152.6,52,110.3,63,69.5c11-40.9,53.2-65.2,94.1-54.2c33.6,9.1,56,39.2,56.8,72.4
				c0,1.8-0.1,5.2-1.1,7.4l8.7,5.5c0,0,1.7-4.1,1.8-7.4c1.7-39.4-24-76.3-63.7-87C113.7-6.2,66.2,21.1,53.9,67s14.9,93.3,60.8,105.7
				c40.5,10.9,82.3-9.1,100-45.5C214.3,126.8,213.8,126.5,213.3,126.1z"/>
			<path class="st1" d="M47.8,42.6c-3.3,0-5.9-2.6-5.9-6c0-3.2,2.7-5.9,6-5.9c3.2,0,5.9,2.7,5.9,5.9C53.8,40,51.1,42.6,47.8,42.6z"
				/>
			<g>
				<path class="st1" d="M40.1,160.6C40.1,160.6,40,160.6,40.1,160.6c-8,0-14.3-6.3-14.3-14.4c0-8,6.3-14.3,14.3-14.3l0,0
					c3.9,0,7.5,1.5,10.2,4.2s4.2,6.3,4.2,10.2C54.5,154.4,48.1,160.6,40.1,160.6z M40.1,138.2L40.1,138.2c-4.5,0-8.1,3.6-8.1,8.1
					c0,4.6,3.4,8.1,8,8.1l0,0l0,0c4.7,0,8.2-3.5,8.2-8c0-2.2-0.8-4.2-2.4-5.8C44.4,139,42.3,138.2,40.1,138.2z"/>
			</g>
			<path class="st1" d="M196.7,172.9c0-3,2.3-5.3,5.3-5.3s5.3,2.4,5.3,5.3c0,3-2.4,5.4-5.3,5.3C199,178.3,196.7,175.9,196.7,172.9z"
				/>
			<g>
				<path class="st1" d="M242.3,81.8C242.3,81.8,242.2,81.8,242.3,81.8L242.3,81.8c-4.7,0-8.4-3.8-8.5-8.4c0-2.2,0.9-4.3,2.5-5.9
					s3.7-2.5,6-2.5l0,0c2.3,0,4.5,0.9,6.1,2.5s2.4,3.7,2.4,5.9C250.7,78.2,246.9,81.8,242.3,81.8z M242.3,78.1L242.3,78.1
					c2.6,0,4.7-2,4.7-4.6c0-1.2-0.4-2.4-1.3-3.3c-0.9-0.9-2.1-1.4-3.4-1.4l0,0c-1.2,0-2.4,0.5-3.3,1.4c-0.9,0.9-1.4,2-1.4,3.3
					C237.6,76,239.7,78.1,242.3,78.1L242.3,78.1z"/>
			</g>
		</g>
	</g>
</g>
<g>
	<g>
		<path class="st2" d="M-78,98.3c-19.5-12.3-46.6-23.6-76.5-31.6s-59-12-82.1-11.1c-24.7,1-39.4,7.3-42.3,18.3s6.5,23.8,27.4,37.1
			c7.1,4.5,15.2,8.8,24,12.9c-1.6-3.3-3-6.6-4.2-10.1c-27.6-13.9-42.7-28.7-40.2-38c3.9-14.6,52.4-19.1,115.5-2.1
			c63.2,17,102.8,45.2,98.8,59.8c-2.4,8.9-21.2,14-49.8,12.9c-2.7,2.5-5.6,4.7-8.7,6.8c8.2,0.6,15.9,0.8,23.1,0.6
			c24.7-1,39.4-7.3,42.3-18.3C-47.6,124.4-57.1,111.6-78,98.3z"/>
		<path class="st2" d="M-82.7,126.1L-82.7,126.1c0-0.1-23.1-19.6-81.5-35l3.2,9.4c0,0,29.2,3.7,68,28.4
			c-17.2,28.7-52,43.8-85.9,34.7c-40.8-11-65.1-53.3-54.1-94.1c11-40.9,53.2-65.2,94.1-54.2c33.6,9.1,56,39.2,56.8,72.4
			c0,1.8-0.1,5.2-1.1,7.4l8.7,5.5c0,0,1.7-4.1,1.8-7.4c1.7-39.4-24-76.3-63.7-87C-182.3-6.2-229.8,21.1-242.1,67
			c-12.3,45.9,14.9,93.3,60.8,105.7c40.5,10.9,82.3-9.1,100-45.5C-81.7,126.8-82.2,126.5-82.7,126.1z"/>
		<path class="st2" d="M-248.2,42.6c-3.3,0-5.9-2.6-5.9-6c0-3.2,2.7-5.9,6-5.9c3.2,0,5.9,2.7,5.9,5.9
			C-242.2,40-244.9,42.6-248.2,42.6z"/>
		<g>
			<path class="st2" d="M-255.9,160.6C-255.9,160.6-256,160.6-255.9,160.6c-8,0-14.3-6.3-14.3-14.4c0-8,6.3-14.3,14.3-14.3l0,0
				c3.9,0,7.5,1.5,10.2,4.2s4.2,6.3,4.2,10.2C-241.5,154.4-247.9,160.6-255.9,160.6z M-255.9,138.2L-255.9,138.2
				c-4.5,0-8.1,3.6-8.1,8.1c0,4.6,3.4,8.1,8,8.1l0,0l0,0c4.7,0,8.2-3.5,8.2-8c0-2.2-0.8-4.2-2.4-5.8
				C-251.6,139-253.7,138.2-255.9,138.2z"/>
		</g>
		<path class="st2" d="M-99.3,172.9c0-3,2.3-5.3,5.3-5.3s5.3,2.4,5.3,5.3c0,3-2.4,5.4-5.3,5.3C-97,178.3-99.3,175.9-99.3,172.9z"/>
		<g>
			<path class="st2" d="M-53.7,81.8C-53.7,81.8-53.8,81.8-53.7,81.8L-53.7,81.8c-4.7,0-8.4-3.8-8.5-8.4c0-2.2,0.9-4.3,2.5-5.9
				s3.7-2.5,6-2.5l0,0c2.3,0,4.5,0.9,6.1,2.5s2.4,3.7,2.4,5.9C-45.3,78.2-49.1,81.8-53.7,81.8z M-53.7,78.1L-53.7,78.1
				c2.6,0,4.7-2,4.7-4.6c0-1.2-0.4-2.4-1.3-3.3c-0.9-0.9-2.1-1.4-3.4-1.4l0,0c-1.2,0-2.4,0.5-3.3,1.4c-0.9,0.9-1.4,2-1.4,3.3
				C-58.4,76-56.3,78.1-53.7,78.1L-53.7,78.1z"/>
		</g>
	</g>
</g>
</svg>
