<?xml version="1.0" encoding="utf-8"?>
<!-- Generator: Adobe Illustrator 23.0.2, SVG Export Plug-In . SVG Version: 6.00 Build 0)  -->
<svg version="1.1" id="Camada_1" xmlns="http://www.w3.org/2000/svg" xmlns:xlink="http://www.w3.org/1999/xlink" x="0px" y="0px"
	 viewBox="0 0 284.8 181.5" style="enable-background:new 0 0 284.8 181.5;" xml:space="preserve">
<style type="text/css">
	.st0{fill:#7224B5;stroke:#7224B5;stroke-miterlimit:10;}
	.st1{fill:#7224B5;}
	.st2{fill:#FFFFFF;}
	.st3{fill:#FCFCFC;}
</style>
<rect x="-458.3" y="-1736.5" class="st0" width="1200" height="1200"/>
<g>
	<g>
		<g>
			<path class="st1" d="M-1253.6-957.4h3.8l6.2,9.6l6.2-9.6h3.8v20.2h-3.5v-14.5l-6.4,9.5h-0.1l-6.3-9.5v14.5h-3.5v-20.2H-1253.6z"
				/>
			<path class="st1" d="M-1219.6-957.6h3.3l8.9,20.4h-3.8l-2.1-4.9h-9.6l-2.1,4.9h-3.6L-1219.6-957.6z M-1214.4-945.2l-3.5-8.1
				l-3.5,8.1H-1214.4z"/>
			<path class="st1" d="M-1202.2-957.4h9c1.3,0,2.4,0.2,3.4,0.5s1.8,0.9,2.5,1.5c0.5,0.6,1,1.2,1.2,1.9c0.2,0.7,0.4,1.5,0.4,2.4v0.1
				c0,0.8-0.1,1.6-0.4,2.2c-0.2,0.7-0.6,1.3-1,1.8c-0.4,0.5-0.9,0.9-1.5,1.3c-0.6,0.4-1.2,0.6-2,0.8l5.5,7.7h-4.2l-5-7.1h-0.1h-4.4
				v7.1h-3.5L-1202.2-957.4L-1202.2-957.4z M-1193.4-947.4c1.3,0,2.3-0.3,3-0.9c0.7-0.6,1.1-1.4,1.1-2.5v-0.1c0-1.1-0.4-1.9-1.1-2.5
				c-0.7-0.6-1.8-0.9-3.1-0.9h-5.2v6.8h5.3V-947.4z"/>
			<path class="st1" d="M-1179.6-957.4h3.5v10.2l9.6-10.2h4.4l-8.4,8.7l8.8,11.5h-4.3l-6.9-9.1l-3.2,3.2v5.9h-3.5V-957.4
				L-1179.6-957.4z"/>
			<path class="st1" d="M-1156.9-957.4h15v3.2h-11.4v5.2h10.1v3.2h-10.1v5.4h11.6v3.2h-15.1v-20.2H-1156.9z"/>
			<path class="st1" d="M-1130.8-954.2h-6.4v-3.3h16.4v3.3h-6.4v16.9h-3.6V-954.2z"/>
			<path class="st1" d="M-1115.1-957.4h3.5v20.2h-3.5V-957.4z"/>
			<path class="st1" d="M-1104.4-957.4h3.3l10.8,14v-14h3.5v20.2h-3l-11.1-14.4v14.4h-3.5V-957.4z"/>
			<path class="st1" d="M-1070.3-936.9c-1.6,0-3-0.3-4.3-0.8c-1.3-0.5-2.4-1.3-3.3-2.2s-1.6-2-2.1-3.3s-0.8-2.6-0.8-4.1v-0.1
				c0-1.4,0.3-2.7,0.8-4s1.2-2.4,2.2-3.3s2-1.7,3.3-2.3s2.7-0.8,4.2-0.8c0.9,0,1.7,0.1,2.4,0.2c0.7,0.1,1.4,0.3,2,0.5
				c0.6,0.2,1.2,0.5,1.7,0.9c0.5,0.3,1.1,0.7,1.6,1.2l-2.3,2.7c-0.4-0.3-0.8-0.6-1.2-0.9c-0.4-0.3-0.8-0.5-1.3-0.7
				c-0.4-0.2-0.9-0.3-1.5-0.4c-0.5-0.1-1.1-0.2-1.7-0.2c-0.9,0-1.8,0.2-2.6,0.6s-1.5,0.9-2.1,1.5s-1.1,1.4-1.4,2.3s-0.5,1.8-0.5,2.8
				v0.1c0,1,0.2,2,0.5,2.9s0.8,1.7,1.4,2.3s1.3,1.1,2.2,1.5c0.8,0.4,1.8,0.6,2.8,0.6s1.9-0.1,2.7-0.4c0.8-0.3,1.6-0.7,2.2-1.1v-3.8
				h-5.2v-3.1h8.6v8.5c-0.5,0.4-1.1,0.8-1.7,1.2c-0.6,0.4-1.3,0.7-2,1s-1.5,0.5-2.3,0.7C-1068.4-936.9-1069.4-936.9-1070.3-936.9z"
				/>
			<path class="st1" d="M-1045.1-957.4h7.5c1.6,0,3,0.3,4.3,0.8s2.5,1.2,3.4,2.1c1,0.9,1.7,2,2.2,3.2s0.8,2.5,0.8,4v0.1
				c0,1.4-0.3,2.8-0.8,4s-1.3,2.3-2.2,3.2c-1,0.9-2.1,1.6-3.4,2.1s-2.8,0.8-4.3,0.8h-7.5V-957.4z M-1037.4-940.4
				c1.1,0,2-0.2,2.9-0.5c0.9-0.3,1.6-0.8,2.2-1.4c0.6-0.6,1.1-1.3,1.4-2.2c0.3-0.8,0.5-1.8,0.5-2.7v-0.1c0-1-0.2-1.9-0.5-2.8
				c-0.3-0.9-0.8-1.6-1.4-2.2c-0.6-0.6-1.3-1.1-2.2-1.4c-0.9-0.3-1.8-0.5-2.9-0.5h-4v13.8L-1037.4-940.4L-1037.4-940.4z"/>
			<path class="st1" d="M-1020.5-957.4h3.5v20.2h-3.5V-957.4z"/>
			<path class="st1" d="M-1000.2-936.9c-1.6,0-3-0.3-4.3-0.8s-2.4-1.3-3.3-2.2c-0.9-0.9-1.6-2-2.1-3.3s-0.8-2.6-0.8-4.1v-0.1
				c0-1.4,0.3-2.7,0.8-4s1.2-2.4,2.2-3.3s2-1.7,3.3-2.3s2.7-0.8,4.2-0.8c0.9,0,1.7,0.1,2.4,0.2c0.7,0.1,1.4,0.3,2,0.5
				s1.2,0.5,1.7,0.9c0.5,0.3,1.1,0.7,1.6,1.2l-2.3,2.7c-0.4-0.3-0.8-0.6-1.2-0.9c-0.4-0.3-0.8-0.5-1.3-0.7c-0.4-0.2-0.9-0.3-1.5-0.4
				c-0.5-0.1-1.1-0.2-1.7-0.2c-0.9,0-1.8,0.2-2.6,0.6s-1.5,0.9-2.1,1.5s-1.1,1.4-1.4,2.3s-0.5,1.8-0.5,2.8v0.1c0,1,0.2,2,0.5,2.9
				s0.8,1.7,1.4,2.3c0.6,0.6,1.3,1.1,2.2,1.5c0.8,0.4,1.8,0.6,2.8,0.6s1.9-0.1,2.7-0.4c0.8-0.3,1.6-0.7,2.2-1.1v-3.8h-5.2v-3.1h8.6
				v8.5c-0.5,0.4-1.1,0.8-1.7,1.2c-0.6,0.4-1.3,0.7-2,1s-1.5,0.5-2.3,0.7C-998.5-936.9-999.3-936.9-1000.2-936.9z"/>
			<path class="st1" d="M-985.2-957.4h3.5v20.2h-3.5V-957.4z"/>
			<path class="st1" d="M-969.5-954.2h-6.4v-3.3h16.4v3.3h-6.4v16.9h-3.6V-954.2z"/>
			<path class="st1" d="M-946.9-957.6h3.3l8.9,20.4h-3.8l-2.1-4.9h-9.6l-2.1,4.9h-3.6L-946.9-957.6z M-941.8-945.2l-3.5-8.1
				l-3.5,8.1H-941.8z"/>
			<path class="st1" d="M-929.5-957.4h3.5v17h10.6v3.2h-14.2v-20.2H-929.5z"/>
		</g>
		<g>
			<path class="st1" d="M-1274.9-970.2c-5.2,0-9.9-0.9-14.1-2.6c-4.2-1.7-7.8-4.1-10.8-7.2c-3-3.1-5.3-6.7-7-10.8
				c-1.6-4.1-2.5-8.6-2.5-13.5v-0.2c0-4.6,0.8-9,2.5-13.1c1.7-4.2,4-7.8,7.1-10.9c3-3.1,6.7-5.6,10.9-7.4s8.8-2.7,13.8-2.7
				c2.9,0,5.5,0.2,7.9,0.6c2.4,0.4,4.6,1,6.6,1.8s3.9,1.7,5.7,2.8c1.8,1.1,3.5,2.4,5.3,3.8l-7.4,8.8c-1.3-1.1-2.6-2-3.9-2.9
				c-1.3-0.9-2.7-1.6-4.2-2.2s-3-1.1-4.8-1.4c-1.7-0.3-3.6-0.5-5.7-0.5c-3,0-5.9,0.6-8.5,1.9c-2.6,1.3-4.9,3-6.8,5.1
				c-1.9,2.1-3.4,4.6-4.5,7.4c-1.1,2.8-1.7,5.8-1.7,9v0.2c0,3.4,0.5,6.6,1.6,9.5c1.1,2.9,2.6,5.4,4.6,7.5s4.3,3.7,7.1,4.9
				c2.7,1.2,5.8,1.8,9.2,1.8c3.1,0,6.1-0.5,8.8-1.4c2.7-0.9,5.1-2.1,7.1-3.7v-12.5h-16.9v-10.1h28.2v27.8c-1.6,1.4-3.5,2.7-5.4,4
				c-2,1.3-4.1,2.4-6.4,3.3c-2.3,0.9-4.8,1.7-7.4,2.2C-1269.3-970.5-1272.1-970.2-1274.9-970.2z"/>
			<path class="st1" d="M-984.8-970.4c-5.1,0-10-0.9-14.7-2.6c-4.7-1.7-9-4.4-13-8l7-8.3c3.2,2.8,6.5,4.9,9.7,6.4
				c3.3,1.5,7,2.2,11.2,2.2c3.6,0,6.4-0.8,8.6-2.3c2.1-1.5,3.2-3.5,3.2-6.1v-0.2c0-1.2-0.2-2.3-0.6-3.2c-0.4-0.9-1.2-1.8-2.3-2.6
				s-2.6-1.6-4.6-2.3c-1.9-0.7-4.4-1.4-7.5-2.1c-3.5-0.8-6.7-1.8-9.4-2.8c-2.8-1-5.1-2.3-6.9-3.8c-1.9-1.5-3.3-3.3-4.3-5.4
				c-1-2.1-1.5-4.7-1.5-7.8v-0.2c0-2.8,0.6-5.4,1.7-7.8c1.1-2.4,2.7-4.4,4.6-6.1c2-1.7,4.3-3,7.1-3.9s5.8-1.4,9.1-1.4
				c4.9,0,9.2,0.7,13.1,2.1s7.5,3.5,10.9,6.2l-6.2,8.8c-3-2.2-6-3.9-9-5.1c-3-1.2-6-1.8-9-1.8c-3.4,0-6.1,0.8-7.9,2.3
				c-1.9,1.5-2.8,3.4-2.8,5.6v0.2c0,1.3,0.2,2.4,0.7,3.4c0.4,1,1.2,1.9,2.4,2.6c1.2,0.8,2.8,1.5,4.8,2.2c2.1,0.7,4.7,1.4,7.8,2.2
				c3.5,0.9,6.6,1.9,9.2,2.9c2.7,1.1,4.9,2.4,6.7,3.9s3.1,3.3,4,5.4c0.9,2.1,1.4,4.4,1.4,7.1v0.2c0,3.1-0.6,5.9-1.7,8.3
				c-1.2,2.5-2.8,4.5-4.8,6.2c-2.1,1.7-4.5,3-7.4,3.9C-978-970.9-981.3-970.4-984.8-970.4z"/>
			<path class="st1" d="M-941.2-1037.6h11.5v66.2h-11.5V-1037.6z"/>
			<path class="st1" d="M-882.9-970.4c-5.1,0-10-0.9-14.7-2.6c-4.7-1.7-9-4.4-13-8l7-8.3c3.2,2.8,6.5,4.9,9.7,6.4
				c3.3,1.5,7,2.2,11.2,2.2c3.6,0,6.4-0.8,8.6-2.3c2.1-1.5,3.2-3.5,3.2-6.1v-0.2c0-1.2-0.2-2.3-0.6-3.2c-0.4-0.9-1.2-1.8-2.3-2.6
				s-2.6-1.6-4.6-2.3c-1.9-0.7-4.4-1.4-7.5-2.1c-3.5-0.8-6.7-1.8-9.4-2.8c-2.8-1-5.1-2.3-6.9-3.8c-1.9-1.5-3.3-3.3-4.3-5.4
				c-1-2.1-1.5-4.7-1.5-7.8v-0.2c0-2.8,0.6-5.4,1.7-7.8c1.1-2.4,2.7-4.4,4.6-6.1c2-1.7,4.3-3,7.1-3.9s5.8-1.4,9.1-1.4
				c4.9,0,9.2,0.7,13.1,2.1c3.9,1.4,7.5,3.5,10.9,6.2l-6.2,8.8c-3-2.2-6-3.9-9-5.1c-3-1.2-6-1.8-9-1.8c-3.4,0-6.1,0.8-7.9,2.3
				c-1.9,1.5-2.8,3.4-2.8,5.6v0.2c0,1.3,0.2,2.4,0.7,3.4c0.4,1,1.2,1.9,2.4,2.6c1.2,0.8,2.8,1.5,4.8,2.2c2.1,0.7,4.7,1.4,7.8,2.2
				c3.5,0.9,6.6,1.9,9.2,2.9c2.7,1.1,4.9,2.4,6.7,3.9s3.1,3.3,4,5.4c0.9,2.1,1.4,4.4,1.4,7.1v0.2c0,3.1-0.6,5.9-1.7,8.3
				c-1.2,2.5-2.8,4.5-4.8,6.2c-2.1,1.7-4.5,3-7.4,3.9C-876.2-970.9-879.4-970.4-882.9-970.4z"/>
			<polygon class="st1" points="-1111.3,-1019.7 -1111.3,-991.8 -1146.7,-1037.6 -1157.4,-1037.6 -1157.4,-971.4 -1145.9,-971.4 
				-1145.9,-1018.5 -1109.4,-971.4 -1099.8,-971.4 -1099.8,-1019.7 			"/>
			<polygon class="st1" points="-1214.9,-981.9 -1214.9,-997.1 -1214.9,-999.6 -1214.9,-1010.1 -1214.9,-1014 -1214.9,-1027.1 
				-1177.6,-1027.1 -1177.6,-1037.6 -1226.6,-1037.6 -1226.6,-971.4 -1177.1,-971.4 -1177.1,-981.9 			"/>
			<rect x="-1207.9" y="-1010.1" class="st1" width="22.3" height="10.5"/>
			<polygon class="st1" points="-1065.6,-981.9 -1065.6,-997.1 -1065.7,-997.1 -1065.7,-1014 -1065.6,-1014 -1065.6,-1027.1 
				-1028.1,-1027.1 -1028.1,-1037.6 -1077.1,-1037.6 -1077.1,-971.4 -1027.6,-971.4 -1027.6,-981.9 			"/>
			<rect x="-1058.7" y="-1010.1" class="st1" width="22.4" height="10.5"/>
		</g>
	</g>
	<g>
		<path class="st0" d="M-951.9-1210.5c-31.2-19.8-74.8-37.8-122.8-50.7c-48-12.9-94.7-19.3-131.6-17.8
			c-39.7,1.5-63.1,11.7-67.9,29.4c-4.8,17.7,10.4,38.3,44,59.5c11.3,7.2,24.3,14.1,38.5,20.7c-2.6-5.2-4.9-10.6-6.7-16.2
			c-44.3-22.3-68.6-46.1-64.5-61c6.3-23.5,84-30.6,185.3-3.3c101.3,27.3,164.9,72.5,158.5,96c-3.8,14.3-34,22.5-79.8,20.6
			c-4.4,3.9-9,7.6-13.9,10.8c13.1,1,25.5,1.3,37,0.9c39.7-1.5,63.1-11.7,67.9-29.4S-918.4-1189.2-951.9-1210.5z"/>
		<path class="st0" d="M-959.4-1165.8L-959.4-1165.8c0.1-0.1-37-31.3-130.7-56.2l5.1,15.1c0,0,46.8,5.9,109.1,45.6
			c-27.6,46-83.4,70.3-137.7,55.6c-65.6-17.7-104.6-85.4-86.9-151c17.7-65.6,85.4-104.6,151-86.9c53.9,14.5,89.9,62.9,91.1,116.1
			c0,2.9-0.2,8.3-1.8,11.9l14,8.7c0,0,2.7-6.6,2.9-11.9c2.7-63.2-38.6-122.3-102.2-139.5c-73.6-19.8-149.7,23.9-169.5,97.5
			c-19.8,73.6,23.9,149.7,97.5,169.5c65,17.5,131.9-14.6,160.4-73.1C-957.9-1164.7-958.5-1165.2-959.4-1165.8z"/>
		<path class="st0" d="M-1224.9-1299.8c-5.3,0-9.4-4.2-9.4-9.6c0-5.2,4.3-9.4,9.6-9.4c5.2,0,9.4,4.3,9.4,9.5
			C-1215.4-1304-1219.7-1299.8-1224.9-1299.8z"/>
		<g>
			<path class="st1" d="M-1237.3-1110.5C-1237.4-1110.5-1237.4-1110.5-1237.3-1110.5c-12.9,0-22.9-10.2-22.9-23.1s10.1-22.9,23-23
				l0,0c6.2,0,12,2.4,16.4,6.8c4.4,4.4,6.7,10.2,6.7,16.4C-1214.2-1120.5-1224.4-1110.5-1237.3-1110.5z M-1237.2-1146.5
				L-1237.2-1146.5c-7.3,0-13,5.7-13,13c0,7.4,5.5,13,12.8,13l0,0l0,0c7.5,0,13.1-5.5,13.2-12.9c0-3.5-1.3-6.8-3.8-9.3
				C-1230.4-1145.1-1233.7-1146.5-1237.2-1146.5z"/>
		</g>
		<path class="st0" d="M-986.2-1090.8c0-4.8,3.8-8.5,8.5-8.5c4.8,0,8.6,3.8,8.6,8.5s-3.9,8.6-8.6,8.6
			C-982.3-1082.2-986.2-1086-986.2-1090.8z"/>
		<g>
			<path class="st1" d="M-913-1236.9L-913-1236.9L-913-1236.9c-7.5,0-13.5-6-13.6-13.4c0-3.5,1.4-6.9,3.9-9.5c2.6-2.6,6-4,9.6-4l0,0
				c3.7,0,7.2,1.4,9.8,4.1c2.5,2.6,3.9,5.9,3.8,9.5C-899.5-1242.8-905.5-1236.9-913-1236.9z M-913-1242.9L-913-1242.9
				c4.2,0,7.5-3.3,7.6-7.4c0-2-0.7-3.8-2.1-5.2c-1.4-1.5-3.4-2.3-5.5-2.3l0,0c-2,0-3.9,0.8-5.3,2.3c-1.4,1.4-2.2,3.3-2.2,5.2
				C-920.5-1246.3-917.2-1242.9-913-1242.9L-913-1242.9z"/>
		</g>
	</g>
</g>
<g>
	<g>
		<g>
			<path class="st2" d="M-27.6-946.3h3.8l6.2,9.6l6.2-9.6h3.8v20.2h-3.5v-14.5l-6.4,9.5h-0.1l-6.3-9.5v14.5h-3.5v-20.2H-27.6z"/>
			<path class="st2" d="M6.4-946.4h3.3l8.9,20.4h-3.8l-2.1-4.9H3.1L1-926h-3.6L6.4-946.4z M11.5-934.1L8-942.2l-3.5,8.1H11.5z"/>
			<path class="st2" d="M23.8-946.3h9c1.3,0,2.4,0.2,3.4,0.5s1.8,0.9,2.5,1.5c0.5,0.6,1,1.2,1.2,1.9s0.4,1.5,0.4,2.4v0.1
				c0,0.8-0.1,1.6-0.4,2.2c-0.2,0.7-0.6,1.3-1,1.8s-0.9,0.9-1.5,1.3c-0.6,0.4-1.2,0.6-2,0.8l5.5,7.7h-4.2l-5-7.1h-0.1h-4.4v7.1h-3.5
				v-20.2H23.8z M32.5-936.3c1.3,0,2.3-0.3,3-0.9s1.1-1.4,1.1-2.5v-0.1c0-1.1-0.4-1.9-1.1-2.5c-0.7-0.6-1.8-0.9-3.1-0.9h-5.2v6.8
				h5.3V-936.3z"/>
			<path class="st2" d="M46.4-946.3h3.5v10.2l9.6-10.2h4.4l-8.4,8.7l8.8,11.5H60l-6.9-9.1l-3.2,3.2v5.9h-3.5V-946.3z"/>
			<path class="st2" d="M69.1-946.3h15v3.2H72.8v5.2h10.1v3.2H72.8v5.4h11.6v3.2H69.3v-20.2H69.1z"/>
			<path class="st2" d="M95.3-943h-6.4v-3.3h16.4v3.3h-6.4v16.9h-3.6V-943z"/>
			<path class="st2" d="M110.9-946.3h3.5v20.2h-3.5V-946.3z"/>
			<path class="st2" d="M121.6-946.3h3.3l10.8,14v-14h3.5v20.2h-3l-11.1-14.4v14.4h-3.5L121.6-946.3L121.6-946.3z"/>
			<path class="st2" d="M155.8-925.7c-1.6,0-3-0.3-4.3-0.8s-2.4-1.3-3.3-2.2s-1.6-2-2.1-3.3s-0.8-2.6-0.8-4.1v-0.1
				c0-1.4,0.3-2.7,0.8-4s1.2-2.4,2.2-3.3s2-1.7,3.3-2.3s2.7-0.8,4.2-0.8c0.9,0,1.7,0.1,2.4,0.2c0.7,0.1,1.4,0.3,2,0.5
				s1.2,0.5,1.7,0.9c0.5,0.3,1.1,0.7,1.6,1.2l-2.3,2.7c-0.4-0.3-0.8-0.6-1.2-0.9c-0.4-0.3-0.8-0.5-1.3-0.7c-0.4-0.2-0.9-0.3-1.5-0.4
				c-0.5-0.1-1.1-0.2-1.7-0.2c-0.9,0-1.8,0.2-2.6,0.6s-1.5,0.9-2.1,1.5s-1.1,1.4-1.4,2.3s-0.5,1.8-0.5,2.8v0.1c0,1,0.2,2,0.5,2.9
				s0.8,1.7,1.4,2.3s1.3,1.1,2.2,1.5c0.8,0.4,1.8,0.6,2.8,0.6s1.9-0.1,2.7-0.4c0.8-0.3,1.6-0.7,2.2-1.1v-3.8h-5.2v-3.1h8.6v8.5
				c-0.5,0.4-1.1,0.8-1.7,1.2s-1.3,0.7-2,1s-1.5,0.5-2.3,0.7C157.5-925.8,156.6-925.7,155.8-925.7z"/>
			<path class="st2" d="M180.9-946.3h7.5c1.6,0,3,0.3,4.3,0.8s2.5,1.2,3.4,2.1c1,0.9,1.7,2,2.2,3.2s0.8,2.5,0.8,4v0.1
				c0,1.4-0.3,2.8-0.8,4s-1.3,2.3-2.2,3.2c-1,0.9-2.1,1.6-3.4,2.1s-2.8,0.8-4.3,0.8h-7.5V-946.3z M188.5-929.3c1.1,0,2-0.2,2.9-0.5
				s1.6-0.8,2.2-1.4c0.6-0.6,1.1-1.3,1.4-2.2c0.3-0.8,0.5-1.8,0.5-2.7v-0.1c0-1-0.2-1.9-0.5-2.8c-0.3-0.9-0.8-1.6-1.4-2.2
				c-0.6-0.6-1.3-1.1-2.2-1.4s-1.8-0.5-2.9-0.5h-4v13.8L188.5-929.3L188.5-929.3z"/>
			<path class="st2" d="M205.5-946.3h3.5v20.2h-3.5V-946.3z"/>
			<path class="st2" d="M225.8-925.7c-1.6,0-3-0.3-4.3-0.8s-2.4-1.3-3.3-2.2s-1.6-2-2.1-3.3s-0.8-2.6-0.8-4.1v-0.1
				c0-1.4,0.3-2.7,0.8-4s1.2-2.4,2.2-3.3s2-1.7,3.3-2.3s2.7-0.8,4.2-0.8c0.9,0,1.7,0.1,2.4,0.2c0.7,0.1,1.4,0.3,2,0.5
				s1.2,0.5,1.7,0.9c0.5,0.3,1.1,0.7,1.6,1.2l-2.3,2.7c-0.4-0.3-0.8-0.6-1.2-0.9c-0.4-0.3-0.8-0.5-1.3-0.7c-0.4-0.2-0.9-0.3-1.5-0.4
				c-0.5-0.1-1.1-0.2-1.7-0.2c-0.9,0-1.8,0.2-2.6,0.6s-1.5,0.9-2.1,1.5s-1.1,1.4-1.4,2.3s-0.5,1.8-0.5,2.8v0.1c0,1,0.2,2,0.5,2.9
				s0.8,1.7,1.4,2.3s1.3,1.1,2.2,1.5c0.8,0.4,1.8,0.6,2.8,0.6s1.9-0.1,2.7-0.4c0.8-0.3,1.6-0.7,2.2-1.1v-3.8h-5.2v-3.1h8.6v8.5
				c-0.5,0.4-1.1,0.8-1.7,1.2s-1.3,0.7-2,1s-1.5,0.5-2.3,0.7C227.5-925.8,226.8-925.7,225.8-925.7z"/>
			<path class="st2" d="M240.8-946.3h3.5v20.2h-3.5V-946.3z"/>
			<path class="st2" d="M256.5-943H250v-3.3h16.4v3.3H260v16.9h-3.6V-943H256.5z"/>
			<path class="st2" d="M279.1-946.4h3.3l8.9,20.4h-3.8l-2.1-4.9h-9.6l-2.1,4.9h-3.6L279.1-946.4z M284.3-934.1l-3.5-8.1l-3.5,8.1
				H284.3z"/>
			<path class="st2" d="M296.5-946.3h3.5v17h10.6v3.2h-14.2v-20.2H296.5z"/>
		</g>
		<g>
			<path class="st2" d="M-49-959.1c-5.2,0-9.9-0.9-14.1-2.6c-4.2-1.7-7.8-4.1-10.8-7.2c-3-3.1-5.3-6.7-7-10.8
				c-1.6-4.1-2.5-8.6-2.5-13.5v-0.2c0-4.6,0.8-9,2.5-13.1c1.7-4.2,4-7.8,7.1-10.9c3-3.1,6.7-5.6,10.9-7.4c4.2-1.8,8.8-2.7,13.8-2.7
				c2.9,0,5.5,0.2,7.9,0.6s4.6,1,6.6,1.8s3.9,1.7,5.7,2.8s3.5,2.4,5.3,3.8l-7.4,8.8c-1.3-1.1-2.6-2-3.9-2.9
				c-1.3-0.9-2.7-1.6-4.2-2.2c-1.5-0.6-3-1.1-4.8-1.4c-1.7-0.3-3.6-0.5-5.7-0.5c-3,0-5.9,0.6-8.5,1.9c-2.6,1.3-4.9,3-6.8,5.1
				c-1.9,2.1-3.4,4.6-4.5,7.4c-1.1,2.8-1.7,5.8-1.7,9v0.2c0,3.4,0.5,6.6,1.6,9.5s2.6,5.4,4.6,7.5s4.3,3.7,7.1,4.9
				c2.7,1.2,5.8,1.8,9.2,1.8c3.1,0,6.1-0.5,8.8-1.4s5.1-2.1,7.1-3.7V-987h-16.9v-10.1h28.2v27.8c-1.6,1.4-3.5,2.7-5.4,4
				c-2,1.3-4.1,2.4-6.4,3.3c-2.3,0.9-4.8,1.7-7.4,2.2C-43.3-959.4-46.1-959.1-49-959.1z"/>
			<path class="st2" d="M241.3-959.3c-5.1,0-10-0.9-14.7-2.6c-4.7-1.7-9-4.4-13-8l7-8.3c3.2,2.8,6.5,4.9,9.7,6.4
				c3.3,1.5,7,2.2,11.2,2.2c3.6,0,6.4-0.8,8.6-2.3c2.1-1.5,3.2-3.5,3.2-6.1v-0.2c0-1.2-0.2-2.3-0.6-3.2s-1.2-1.8-2.3-2.6
				c-1.1-0.8-2.6-1.6-4.6-2.3c-1.9-0.7-4.4-1.4-7.5-2.1c-3.5-0.8-6.7-1.8-9.4-2.8c-2.8-1-5.1-2.3-6.9-3.8c-1.9-1.5-3.3-3.3-4.3-5.4
				c-1-2.1-1.5-4.7-1.5-7.8v-0.2c0-2.8,0.6-5.4,1.7-7.8c1.1-2.4,2.7-4.4,4.6-6.1c2-1.7,4.3-3,7.1-3.9c2.8-0.9,5.8-1.4,9.1-1.4
				c4.9,0,9.2,0.7,13.1,2.1s7.5,3.5,10.9,6.2l-6.2,8.8c-3-2.2-6-3.9-9-5.1c-3-1.2-6-1.8-9-1.8c-3.4,0-6.1,0.8-7.9,2.3
				c-1.9,1.5-2.8,3.4-2.8,5.6v0.2c0,1.3,0.2,2.4,0.7,3.4c0.4,1,1.2,1.9,2.4,2.6c1.2,0.8,2.8,1.5,4.8,2.2c2.1,0.7,4.7,1.4,7.8,2.2
				c3.5,0.9,6.6,1.9,9.2,2.9c2.7,1.1,4.9,2.4,6.7,3.9c1.8,1.5,3.1,3.3,4,5.4c0.9,2.1,1.4,4.4,1.4,7.1v0.2c0,3.1-0.6,5.9-1.7,8.3
				c-1.2,2.5-2.8,4.5-4.8,6.2c-2.1,1.7-4.5,3-7.4,3.9C247.9-959.7,244.8-959.3,241.3-959.3z"/>
			<path class="st2" d="M284.8-1026.4h11.5v66.2h-11.5V-1026.4z"/>
			<path class="st2" d="M343.1-959.3c-5.1,0-10-0.9-14.7-2.6c-4.7-1.7-9-4.4-13-8l7-8.3c3.2,2.8,6.5,4.9,9.7,6.4
				c3.3,1.5,7,2.2,11.2,2.2c3.6,0,6.4-0.8,8.6-2.3c2.1-1.5,3.2-3.5,3.2-6.1v-0.2c0-1.2-0.2-2.3-0.6-3.2c-0.4-0.9-1.2-1.8-2.3-2.6
				s-2.6-1.6-4.6-2.3c-1.9-0.7-4.4-1.4-7.5-2.1c-3.5-0.8-6.7-1.8-9.4-2.8c-2.8-1-5.1-2.3-6.9-3.8c-1.9-1.5-3.3-3.3-4.3-5.4
				c-1-2.1-1.5-4.7-1.5-7.8v-0.2c0-2.8,0.6-5.4,1.7-7.8c1.1-2.4,2.7-4.4,4.6-6.1c2-1.7,4.3-3,7.1-3.9s5.8-1.4,9.1-1.4
				c4.9,0,9.2,0.7,13.1,2.1c3.9,1.4,7.5,3.5,10.9,6.2l-6.2,8.8c-3-2.2-6-3.9-9-5.1c-3-1.2-6-1.8-9-1.8c-3.4,0-6.1,0.8-7.9,2.3
				c-1.9,1.5-2.8,3.4-2.8,5.6v0.2c0,1.3,0.2,2.4,0.7,3.4c0.4,1,1.2,1.9,2.4,2.6c1.2,0.8,2.8,1.5,4.8,2.2c2.1,0.7,4.7,1.4,7.8,2.2
				c3.5,0.9,6.6,1.9,9.2,2.9c2.7,1.1,4.9,2.4,6.7,3.9s3.1,3.3,4,5.4c0.9,2.1,1.4,4.4,1.4,7.1v0.2c0,3.1-0.6,5.9-1.7,8.3
				c-1.2,2.5-2.8,4.5-4.8,6.2c-2.1,1.7-4.5,3-7.4,3.9C349.8-959.7,346.6-959.3,343.1-959.3z"/>
			<polygon class="st2" points="114.8,-1008.6 114.8,-980.7 79.3,-1026.4 68.5,-1026.4 68.5,-960.2 80,-960.2 80,-1007.3 
				116.5,-960.2 126.3,-960.2 126.3,-1008.6 			"/>
			<polygon class="st2" points="11,-970.7 11,-986 11,-988.4 11,-998.9 11,-1002.8 11,-1015.9 48.4,-1015.9 48.4,-1026.4 
				-0.6,-1026.4 -0.6,-960.2 48.9,-960.2 48.9,-970.7 			"/>
			<rect x="18" y="-998.9" class="st2" width="22.3" height="10.5"/>
			<polygon class="st2" points="160.4,-970.7 160.4,-986 160.3,-986 160.3,-1002.8 160.4,-1002.8 160.4,-1015.9 197.9,-1015.9 
				197.9,-1026.4 148.9,-1026.4 148.9,-960.2 198.4,-960.2 198.4,-970.7 			"/>
			<rect x="167.3" y="-998.9" class="st2" width="22.4" height="10.5"/>
		</g>
	</g>
	<g>
		<path class="st2" d="M274.1-1199.3c-31.2-19.8-74.8-37.8-122.8-50.7c-48-12.9-94.7-19.3-131.6-17.8c-39.7,1.5-63.1,11.7-67.9,29.4
			c-4.8,17.7,10.4,38.3,44,59.5c11.3,7.2,24.3,14.1,38.5,20.7c-2.6-5.2-4.9-10.6-6.7-16.2c-44.3-22.3-68.6-46.1-64.5-61
			c6.3-23.5,84-30.6,185.3-3.3c101.3,27.3,164.9,72.5,158.5,96c-3.8,14.3-34,22.5-79.8,20.6c-4.4,3.9-9,7.6-13.9,10.8
			c13.1,1,25.5,1.3,37,0.9c39.7-1.5,63.1-11.7,67.9-29.4S307.6-1178.1,274.1-1199.3z"/>
		<path class="st2" d="M266.6-1154.7l0.1-0.1c0,0-37.1-31.2-130.8-56.1l5.1,15.1c0,0,46.8,5.9,109.1,45.6
			c-27.6,46-83.4,70.3-137.7,55.6c-65.6-17.7-104.6-85.4-86.9-151s85.4-104.6,151-86.9c53.9,14.5,89.9,62.9,91.1,116.1
			c0,2.9-0.2,8.3-1.8,11.9l14,8.7c0,0,2.7-6.6,2.9-11.9c2.7-63.2-38.6-122.3-102.2-139.5c-73.6-19.8-149.7,23.9-169.5,97.5
			S35-1100,108.6-1080.2c65,17.5,131.9-14.6,160.4-73.1C268.1-1153.5,267.4-1154.1,266.6-1154.7z"/>
		<path class="st2" d="M1-1288.7c-5.3,0-9.4-4.2-9.4-9.6c0-5.2,4.3-9.4,9.6-9.4c5.2,0,9.4,4.3,9.4,9.5
			C10.6-1292.9,6.3-1288.7,1-1288.7z"/>
		<g>
			<path class="st2" d="M-11.3-1099.3C-11.4-1099.3-11.4-1099.3-11.3-1099.3c-12.9,0-22.9-10.2-22.9-23.1s10.1-22.9,23-23l0,0
				c6.2,0,12,2.4,16.4,6.8s6.7,10.2,6.7,16.4C11.8-1109.4,1.6-1099.3-11.3-1099.3z M-11.2-1135.4L-11.2-1135.4c-7.3,0-13,5.7-13,13
				c0,7.4,5.5,13,12.8,13l0,0l0,0c7.5,0,13.1-5.5,13.2-12.9c0-3.5-1.3-6.8-3.8-9.3C-4.4-1134-7.7-1135.4-11.2-1135.4z"/>
		</g>
		<path class="st2" d="M239.8-1079.6c0-4.8,3.8-8.5,8.5-8.5c4.8,0,8.6,3.8,8.6,8.5s-3.9,8.6-8.6,8.6
			C243.8-1071,239.8-1074.9,239.8-1079.6z"/>
		<g>
			<path class="st3" d="M313-1225.8L313-1225.8c-7.5,0-13.5-6-13.6-13.4c0-3.5,1.4-6.9,3.9-9.5c2.6-2.6,6-4,9.6-4l0,0
				c3.7,0,7.2,1.4,9.8,4.1c2.5,2.6,3.9,5.9,3.8,9.5C326.5-1231.6,320.5-1225.8,313-1225.8z M313-1246.7L313-1246.7
				c-2,0-3.9,0.8-5.3,2.3c-1.4,1.4-2.2,3.3-2.2,5.2c0,4.1,3.4,7.4,7.5,7.4l0,0l0,0c4.2,0,7.5-3.3,7.6-7.4c0-2-0.7-3.8-2.1-5.2
				C317-1245.9,315.1-1246.7,313-1246.7z"/>
		</g>
	</g>
</g>
<g>
	<g>
		<path class="st2" d="M218,98.3c-19.5-12.3-46.6-23.6-76.5-31.6s-59-12-82.1-11.1c-24.7,1-39.4,7.3-42.3,18.3s6.5,23.8,27.4,37.1
			c7.1,4.5,15.2,8.8,24,12.9c-1.6-3.3-3-6.6-4.2-10.1c-27.6-13.9-42.7-28.7-40.2-38c3.9-14.6,52.4-19.1,115.5-2.1
			c63.2,17,102.8,45.2,98.8,59.8c-2.4,8.9-21.2,14-49.8,12.9c-2.7,2.5-5.6,4.7-8.7,6.8c8.2,0.6,15.9,0.8,23.1,0.6
			c24.7-1,39.4-7.3,42.3-18.3C248.4,124.4,238.9,111.6,218,98.3z"/>
		<path class="st2" d="M213.3,126.1L213.3,126.1c0-0.1-23.1-19.6-81.5-35l3.2,9.4c0,0,29.2,3.7,68,28.4
			c-17.2,28.7-52,43.8-85.9,34.7C76.3,152.6,52,110.3,63,69.5c11-40.9,53.2-65.2,94.1-54.2c33.6,9.1,56,39.2,56.8,72.4
			c0,1.8-0.1,5.2-1.1,7.4l8.7,5.5c0,0,1.7-4.1,1.8-7.4c1.7-39.4-24-76.3-63.7-87C113.7-6.2,66.2,21.1,53.9,67s14.9,93.3,60.8,105.7
			c40.5,10.9,82.3-9.1,100-45.5C214.3,126.8,213.8,126.5,213.3,126.1z"/>
		<path class="st2" d="M47.8,42.6c-3.3,0-5.9-2.6-5.9-6c0-3.2,2.7-5.9,6-5.9c3.2,0,5.9,2.7,5.9,5.9C53.8,40,51.1,42.6,47.8,42.6z"/>
		<g>
			<path class="st2" d="M40.1,160.6C40.1,160.6,40,160.6,40.1,160.6c-8,0-14.3-6.3-14.3-14.4c0-8,6.3-14.3,14.3-14.3c0,0,0,0,0,0
				c3.9,0,7.5,1.5,10.2,4.2c2.7,2.7,4.2,6.3,4.2,10.2C54.5,154.4,48.1,160.6,40.1,160.6z M40.1,138.2
				C40.1,138.2,40.1,138.2,40.1,138.2c-4.5,0-8.1,3.6-8.1,8.1c0,4.6,3.4,8.1,8,8.1l0,0c0,0,0,0,0,0c4.7,0,8.2-3.5,8.2-8
				c0-2.2-0.8-4.2-2.4-5.8C44.4,139,42.3,138.2,40.1,138.2z"/>
		</g>
		<path class="st2" d="M196.7,172.9c0-3,2.3-5.3,5.3-5.3c3,0,5.3,2.4,5.3,5.3c0,3-2.4,5.4-5.3,5.3
			C199,178.3,196.7,175.9,196.7,172.9z"/>
		<g>
			<path class="st2" d="M242.3,81.8C242.3,81.8,242.2,81.8,242.3,81.8L242.3,81.8c-4.7,0-8.4-3.8-8.5-8.4c0-2.2,0.9-4.3,2.5-5.9
				c1.6-1.6,3.7-2.5,6-2.5c0,0,0,0,0,0c2.3,0,4.5,0.9,6.1,2.5c1.6,1.6,2.4,3.7,2.4,5.9C250.7,78.2,246.9,81.8,242.3,81.8z
				 M242.3,78.1C242.3,78.1,242.3,78.1,242.3,78.1c2.6,0,4.7-2,4.7-4.6c0-1.2-0.4-2.4-1.3-3.3c-0.9-0.9-2.1-1.4-3.4-1.4c0,0,0,0,0,0
				c-1.2,0-2.4,0.5-3.3,1.4c-0.9,0.9-1.4,2-1.4,3.3C237.6,76,239.7,78.1,242.3,78.1L242.3,78.1z"/>
		</g>
	</g>
</g>
</svg>
