<?xml version="1.0" encoding="utf-8"?>
<!-- Generator: Adobe Illustrator 22.0.1, SVG Export Plug-In . SVG Version: 6.00 Build 0)  -->
<svg version="1.1" id="camada_1" xmlns="http://www.w3.org/2000/svg" xmlns:xlink="http://www.w3.org/1999/xlink" x="0px" y="0px"
	 viewBox="0 0 744.9 160.8" style="enable-background:new 0 0 744.9 160.8;" xml:space="preserve">
<style type="text/css">
	.st0{fill:#FFFFFF;}
</style>
<g>
	<path class="st0" d="M101.1,139.5c-9.5-8.9-16.1-20.7-19.5-34.3L29.3,82.3v-0.5l52.8-23.3c3.8-14.2,11.1-26,21-35.2L67.4,39.8
		l-11.7,5.4l-55.8,26v21.6l102,47.4C101.6,140,101.4,139.7,101.1,139.5z"/>
	<path class="st0" d="M213,56.2"/>
	<path class="st0" d="M213,56.2"/>
	<path class="st0" d="M213,56.2"/>
	<g>
		<path class="st0" d="M221.8,151.8c-10.9,3.7-31.7,8.8-52.4,8.8c-28.6,0-49.4-7.2-63.8-21.2c-14.4-13.5-22.4-34-22.1-57.1
			c0.2-52.2,38.2-82,89.7-82c20.3,0,35.9,4,43.5,7.7l1.8,15.2l-9.3,13.2c-8.6-3.7-19.3-6.8-36.6-6.8c-29.6,0-51.9,16.8-51.9,50.8
			c0,32.4,20.3,51.5,49.4,51.5c8.2,0,14.7-0.9,17.5-2.3V96.9h-24.2l-5.4-13l5.3-14.8h58.4L221.8,151.8L221.8,151.8z"/>
	</g>
	<path class="st0" d="M477.9,78.3"/>
	<path class="st0" d="M477.9,78.3"/>
	<path class="st0" d="M477.9,78.3"/>
	<g>
		<g>
			<path class="st0" d="M240.3,60.3v-0.2c0-16.3,11.8-31.1,29.8-31.1c9.8,0,16,2.9,22,7.9l-2.9,3.4c-4.7-4.1-10.2-7.2-19.3-7.2
				C255.2,33.1,245,45.4,245,60v0.2c0,15.6,9.7,27.2,25.8,27.2c7.7,0,14.8-3.2,19.2-6.9V63.2h-20.1V59h24.4v23.2
				c-5.4,4.8-13.8,9-23.6,9C251.6,91.3,240.3,77.3,240.3,60.3z"/>
			<path class="st0" d="M309.5,29.2h5.2V35h-5.2V29.2z M310,46.4h4.2v43.9H310V46.4z"/>
			<path class="st0" d="M331.5,27.5h4.2v62.8h-4.2V27.5z"/>
			<path class="st0" d="M348.5,84.7l2.5-3.4c4.8,3.7,10.1,5.8,15.7,5.8c5.9,0,10.6-3.3,10.6-8.3v-0.2c0-5.2-5.5-7.1-11.6-8.8
				c-7.1-2.1-15-4.2-15-12v-0.2c0-7.1,5.9-12.1,14.4-12.1c5.2,0,11.2,1.9,15.6,4.8l-2.2,3.5c-4-2.7-8.9-4.4-13.5-4.4
				c-6,0-10,3.3-10,7.7v0.2c0,4.9,5.9,6.7,12.2,8.5c7.1,2,14.4,4.6,14.4,12.3v0.2c0,7.8-6.7,12.8-15.1,12.8
				C360.1,91.1,353.1,88.5,348.5,84.7z"/>
			<path class="st0" d="M392,68.5v-0.2c0-12.3,9.5-23,22.6-23c13,0,22.4,10.5,22.4,22.8v0.2c0,12.3-9.5,23-22.6,23
				C401.5,91.3,392,80.8,392,68.5z M432.5,68.5v-0.2c0-10.6-7.9-19-18.1-19c-10.4,0-17.9,8.5-17.9,18.8v0.2c0,10.6,7.9,19,18.1,19
				C425,87.3,432.5,78.8,432.5,68.5z"/>
			<path class="st0" d="M450,46.4h4.2v8.2c2.9-5.2,7.8-9.2,15.8-9.2c11.1,0,17.5,7.6,17.5,18.1v26.8h-4.2V64.2c0-9-5.1-15-13.9-15
				c-8.6,0-15.2,6.5-15.2,15.6v25.4H450V46.4z"/>
			<path class="st0" d="M552.4,29.6h4.3l28,60.6h-4.9l-7.7-16.9h-35.5L529,90.2h-4.6L552.4,29.6z M570.2,69.3l-15.8-34.8l-15.9,34.8
				H570.2z"/>
			<path class="st0" d="M597.1,27.5h4.2v62.8h-4.2V27.5z"/>
			<path class="st0" d="M613.4,46.4h4.9l16.6,39.1l16.8-39.1h4.7l-19.7,44.2h-3.6L613.4,46.4z"/>
			<path class="st0" d="M662.3,68.4v-0.2c0-12.7,8.9-22.9,20.8-22.9c12.3,0,20.1,10,20.1,23c0,0.8,0,1-0.1,1.7h-36.4
				c0.8,10.9,8.6,17.3,17.2,17.3c6.8,0,11.4-3,15-6.9L702,83c-4.5,4.8-9.7,8.3-18.1,8.3C672.3,91.3,662.3,82.1,662.3,68.4z
				 M698.7,66.3c-0.6-8.9-5.7-17-15.7-17c-8.7,0-15.4,7.3-16.2,17H698.7z"/>
			<path class="st0" d="M711.8,84.7l2.5-3.4c4.8,3.7,10.1,5.8,15.7,5.8c5.9,0,10.6-3.3,10.6-8.3v-0.2c0-5.2-5.5-7.1-11.6-8.8
				c-7.1-2.1-15-4.2-15-12v-0.2c0-7.1,5.9-12.1,14.4-12.1c5.2,0,11.2,1.9,15.6,4.8l-2.2,3.5c-4-2.7-8.9-4.4-13.5-4.4
				c-6,0-10,3.3-10,7.7v0.2c0,4.9,5.9,6.7,12.2,8.5c7.1,2,14.4,4.6,14.4,12.3v0.2c0,7.8-6.7,12.8-15.1,12.8
				C723.4,91.1,716.4,88.5,711.8,84.7z"/>
		</g>
		<g>
			<path class="st0" d="M282.5,107h3.4l4.3,13.3l4.4-13.3h2.7l4.4,13.3L306,107h3.3l-6.2,18h-2.7l-4.4-12.9l-4.4,12.9h-2.7
				L282.5,107z"/>
			<path class="st0" d="M309.7,118.2L309.7,118.2c0-3.9,2.7-7.1,6.6-7.1c4.3,0,6.5,3.4,6.5,7.3c0,0.3,0,0.6-0.1,0.9h-9.9
				c0.3,2.2,1.9,3.4,3.9,3.4c1.5,0,2.6-0.6,3.7-1.6l1.8,1.6c-1.3,1.5-3,2.5-5.5,2.5C312.7,125.2,309.7,122.4,309.7,118.2z
				 M319.7,117.2c-0.2-2-1.4-3.6-3.4-3.6c-1.9,0-3.2,1.5-3.5,3.6H319.7z"/>
			<path class="st0" d="M329,122.8v2.1h-3.1v-18.7h3.1v7.4c1-1.4,2.4-2.5,4.6-2.5c3.2,0,6.3,2.5,6.3,7v0.1c0,4.5-3.1,7-6.3,7
				C331.4,125.2,329.9,124,329,122.8z M336.7,118.2L336.7,118.2c0-2.7-1.8-4.4-3.9-4.4s-3.9,1.7-3.9,4.3v0.1c0,2.6,1.8,4.3,3.9,4.3
				C335,122.5,336.7,120.8,336.7,118.2z"/>
			<path class="st0" d="M351.1,107h6.7c5.6,0,9.5,3.9,9.5,8.9v0.1c0,5-3.9,9-9.5,9h-6.7V107z M354.3,109.8V122h3.5
				c3.8,0,6.2-2.5,6.2-6v-0.1c0-3.5-2.5-6.1-6.2-6.1H354.3z"/>
			<path class="st0" d="M370,118.2L370,118.2c0-3.9,2.7-7.1,6.6-7.1c4.3,0,6.5,3.4,6.5,7.3c0,0.3,0,0.6-0.1,0.9h-9.9
				c0.3,2.2,1.9,3.4,3.9,3.4c1.5,0,2.6-0.6,3.7-1.6l1.8,1.6c-1.3,1.5-3,2.5-5.5,2.5C373,125.2,370,122.4,370,118.2z M380,117.2
				c-0.2-2-1.4-3.6-3.4-3.6c-1.9,0-3.2,1.5-3.5,3.6H380z"/>
			<path class="st0" d="M385.1,123.1l1.4-2.1c1.5,1.1,3,1.7,4.4,1.7c1.3,0,2.1-0.6,2.1-1.5v-0.1c0-1-1.4-1.4-3-1.9
				c-2-0.6-4.2-1.4-4.2-4v-0.1c0-2.6,2.1-4.1,4.8-4.1c1.7,0,3.5,0.6,5,1.5l-1.2,2.2c-1.3-0.8-2.7-1.3-3.8-1.3
				c-1.2,0-1.9,0.6-1.9,1.3v0.1c0,1,1.5,1.4,3,1.9c2,0.6,4.2,1.5,4.2,3.9v0.1c0,2.8-2.2,4.2-5,4.2
				C388.9,125.1,386.8,124.5,385.1,123.1z"/>
			<path class="st0" d="M399.1,106.4h3.3v2.9h-3.3V106.4z M399.2,111.4h3.1v13.5h-3.1V111.4z"/>
			<path class="st0" d="M406.3,127.4l1.2-2.3c1.5,0.9,3,1.4,4.8,1.4c2.8,0,4.3-1.4,4.3-4.1v-1c-1.1,1.5-2.5,2.5-4.8,2.5
				c-3.2,0-6.1-2.4-6.1-6.3v-0.1c0-4,3-6.3,6.1-6.3c2.3,0,3.7,1,4.7,2.3v-2h3.1v10.7c0,2.3-0.6,4-1.7,5.1c-1.2,1.2-3.1,1.8-5.6,1.8
				C410.1,129,408.1,128.5,406.3,127.4z M416.6,117.5L416.6,117.5c0-2.3-1.8-3.8-4-3.8c-2.1,0-3.8,1.5-3.8,3.7v0.1
				c0,2.2,1.7,3.7,3.8,3.7C414.8,121.2,416.6,119.7,416.6,117.5z"/>
			<path class="st0" d="M423.5,111.4h3.1v2.1c0.9-1.3,2.1-2.4,4.2-2.4c3,0,4.8,2,4.8,5.2v8.6h-3.1v-7.7c0-2.1-1-3.3-2.9-3.3
				c-1.8,0-3,1.3-3,3.4v7.6h-3.1V111.4z"/>
			<path class="st0" d="M438.6,118.2L438.6,118.2c0-3.9,2.7-7.1,6.6-7.1c4.3,0,6.5,3.4,6.5,7.3c0,0.3,0,0.6-0.1,0.9h-9.9
				c0.3,2.2,1.9,3.4,3.9,3.4c1.5,0,2.6-0.6,3.7-1.6l1.8,1.6c-1.3,1.5-3,2.5-5.5,2.5C441.7,125.2,438.6,122.4,438.6,118.2z
				 M448.6,117.2c-0.2-2-1.4-3.6-3.4-3.6c-1.9,0-3.2,1.5-3.5,3.6H448.6z"/>
			<path class="st0" d="M454.8,111.4h3.1v3c0.8-2,2.4-3.4,4.8-3.3v3.3h-0.2c-2.7,0-4.6,1.8-4.6,5.3v5.1h-3.1L454.8,111.4
				L454.8,111.4z"/>
			<path class="st0" d="M472.6,115.5h7.6v3h-7.6V115.5z"/>
			<path class="st0" d="M490.8,116L490.8,116c0-5.1,3.8-9.3,9.2-9.3c3.1,0,5,0.9,6.9,2.4l-2,2.4c-1.4-1.2-2.7-1.9-5-1.9
				c-3.3,0-5.8,2.9-5.8,6.3v0.1c0,3.7,2.4,6.4,6.1,6.4c1.7,0,3.2-0.5,4.3-1.4v-3.4h-4.6v-2.7h7.6v7.5c-1.8,1.5-4.3,2.8-7.5,2.8
				C494.5,125.2,490.8,121.2,490.8,116z"/>
			<path class="st0" d="M511.3,111.4h3.1v3c0.8-2,2.4-3.4,4.8-3.3v3.3H519c-2.7,0-4.6,1.8-4.6,5.3v5.1h-3.1L511.3,111.4L511.3,111.4
				z"/>
			<path class="st0" d="M520.3,121L520.3,121c0-3,2.3-4.4,5.6-4.4c1.5,0,2.6,0.2,3.6,0.6v-0.3c0-1.9-1.2-2.9-3.4-2.9
				c-1.5,0-2.6,0.3-3.9,0.8l-0.8-2.4c1.5-0.7,2.9-1.1,5.1-1.1c2,0,3.5,0.5,4.5,1.5s1.5,2.4,1.5,4.2v8h-3v-1.7c-0.9,1.1-2.3,2-4.4,2
				C522.5,125.2,520.3,123.7,520.3,121z M529.6,120v-0.9c-0.8-0.3-1.8-0.5-3.1-0.5c-2,0-3.2,0.8-3.2,2.3v0.1c0,1.3,1.2,2,2.6,2
				C528,122.9,529.6,121.7,529.6,120z"/>
			<path class="st0" d="M536.2,111.4h3.1v2.3c1-1.4,2.4-2.5,4.6-2.5c3.2,0,6.3,2.5,6.3,7v0.1c0,4.5-3.1,7-6.3,7
				c-2.3,0-3.7-1.1-4.6-2.4v6.2h-3.1V111.4z M547,118.2L547,118.2c0-2.7-1.8-4.4-3.9-4.4c-2.1,0-3.9,1.7-3.9,4.3v0.1
				c0,2.6,1.8,4.3,3.9,4.3C545.3,122.5,547,120.8,547,118.2z"/>
			<path class="st0" d="M553.4,106.2h3.1v7.2c0.9-1.3,2.1-2.4,4.2-2.4c3,0,4.8,2,4.8,5.2v8.6h-3.1v-7.7c0-2.1-1-3.3-2.9-3.3
				c-1.8,0-3,1.3-3,3.4v7.6h-3.1V106.2z"/>
			<path class="st0" d="M569.3,106.4h3.3v2.9h-3.3V106.4z M569.4,111.4h3.1v13.5h-3.1V111.4z"/>
			<path class="st0" d="M575.8,118.2L575.8,118.2c0-3.9,3-7.1,7-7.1c2.5,0,4.1,0.9,5.4,2.3l-1.9,2.1c-0.9-1-1.9-1.7-3.5-1.7
				c-2.3,0-3.9,1.9-3.9,4.3v0.1c0,2.4,1.7,4.3,4,4.3c1.5,0,2.5-0.7,3.5-1.7l1.9,1.8c-1.3,1.5-2.9,2.5-5.5,2.5
				C578.8,125.2,575.8,122,575.8,118.2z"/>
			<path class="st0" d="M599.2,107h6.7c5.6,0,9.5,3.9,9.5,8.9v0.1c0,5-3.9,9-9.5,9h-6.7V107z M602.4,109.8V122h3.5
				c3.8,0,6.2-2.5,6.2-6v-0.1c0-3.5-2.5-6.1-6.2-6.1H602.4z"/>
			<path class="st0" d="M618.1,118.2L618.1,118.2c0-3.9,2.7-7.1,6.6-7.1c4.3,0,6.5,3.4,6.5,7.3c0,0.3,0,0.6-0.1,0.9h-9.9
				c0.3,2.2,1.9,3.4,3.9,3.4c1.5,0,2.6-0.6,3.7-1.6l1.8,1.6c-1.3,1.5-3,2.5-5.5,2.5C621.1,125.2,618.1,122.4,618.1,118.2z
				 M628.1,117.2c-0.2-2-1.4-3.6-3.4-3.6c-1.9,0-3.2,1.5-3.5,3.6H628.1z"/>
			<path class="st0" d="M633.2,123.1l1.4-2.1c1.5,1.1,3,1.7,4.4,1.7c1.3,0,2.1-0.6,2.1-1.5v-0.1c0-1-1.4-1.4-3-1.9
				c-2-0.6-4.2-1.4-4.2-4v-0.1c0-2.6,2.1-4.1,4.8-4.1c1.7,0,3.5,0.6,5,1.5l-1.2,2.2c-1.3-0.8-2.7-1.3-3.8-1.3
				c-1.2,0-1.9,0.6-1.9,1.3v0.1c0,1,1.5,1.4,3,1.9c2,0.6,4.2,1.5,4.2,3.9v0.1c0,2.8-2.2,4.2-5,4.2
				C637,125.1,634.9,124.5,633.2,123.1z"/>
			<path class="st0" d="M647.2,106.4h3.3v2.9h-3.3V106.4z M647.3,111.4h3.1v13.5h-3.1V111.4z"/>
			<path class="st0" d="M654.4,127.4l1.2-2.3c1.5,0.9,3,1.4,4.8,1.4c2.8,0,4.3-1.4,4.3-4.1v-1c-1.1,1.5-2.5,2.5-4.8,2.5
				c-3.2,0-6.1-2.4-6.1-6.3v-0.1c0-4,3-6.3,6.1-6.3c2.3,0,3.7,1,4.7,2.3v-2h3.1v10.7c0,2.3-0.6,4-1.7,5.1c-1.2,1.2-3.1,1.8-5.6,1.8
				C658.2,129,656.2,128.5,654.4,127.4z M664.7,117.5L664.7,117.5c0-2.3-1.8-3.8-4-3.8c-2.1,0-3.8,1.5-3.8,3.7v0.1
				c0,2.2,1.7,3.7,3.8,3.7C662.9,121.2,664.7,119.7,664.7,117.5z"/>
			<path class="st0" d="M671.6,111.4h3.1v2.1c0.9-1.3,2.1-2.4,4.2-2.4c3,0,4.8,2,4.8,5.2v8.6h-3.1v-7.7c0-2.1-1-3.3-2.9-3.3
				c-1.8,0-3,1.3-3,3.4v7.6h-3.1V111.4z"/>
			<path class="st0" d="M686.8,118.2L686.8,118.2c0-3.9,2.7-7.1,6.6-7.1c4.3,0,6.5,3.4,6.5,7.3c0,0.3,0,0.6-0.1,0.9h-9.9
				c0.3,2.2,1.9,3.4,3.9,3.4c1.5,0,2.6-0.6,3.7-1.6l1.8,1.6c-1.3,1.5-3,2.5-5.5,2.5C689.8,125.2,686.8,122.4,686.8,118.2z
				 M696.8,117.2c-0.2-2-1.4-3.6-3.4-3.6c-1.9,0-3.2,1.5-3.5,3.6H696.8z"/>
			<path class="st0" d="M702.9,111.4h3.1v3c0.8-2,2.4-3.4,4.8-3.3v3.3h-0.2c-2.7,0-4.6,1.8-4.6,5.3v5.1h-3.1V111.4z"/>
		</g>
	</g>
</g>
</svg>
