<?xml version="1.0" encoding="utf-8"?>
<!-- Generator: Adobe Illustrator 22.1.0, SVG Export Plug-In . SVG Version: 6.00 Build 0)  -->
<svg version="1.1" id="Camada_1" xmlns="http://www.w3.org/2000/svg" xmlns:xlink="http://www.w3.org/1999/xlink" x="0px" y="0px"
	 viewBox="0 0 713.1 119.9" style="enable-background:new 0 0 713.1 119.9;" xml:space="preserve">
<style type="text/css">
	.st0{fill:#7224B5;stroke:#7224B5;stroke-miterlimit:10;}
	.st1{fill:#7224B5;}
	.st2{fill:#FFFFFF;}
	.st3{fill:#FCFCFC;}
</style>
<rect x="982.1" y="-1767.8" class="st0" width="1200" height="1200"/>
<g>
	<g>
		<g>
			<path class="st1" d="M186.9-988.7h3.8l6.2,9.6l6.2-9.6h3.8v20.2h-3.5V-983l-6.4,9.5h-0.1l-6.3-9.5v14.5h-3.5V-988.7z"/>
			<path class="st1" d="M220.8-988.9h3.3l8.9,20.4h-3.8l-2.1-4.9h-9.6l-2.1,4.9h-3.6L220.8-988.9z M225.9-976.5l-3.5-8.1l-3.5,8.1
				H225.9z"/>
			<path class="st1" d="M238.2-988.7h9c1.3,0,2.4,0.2,3.4,0.5s1.8,0.9,2.5,1.5c0.5,0.6,1,1.2,1.2,1.9s0.4,1.5,0.4,2.4v0.1
				c0,0.8-0.1,1.6-0.4,2.2c-0.2,0.7-0.6,1.3-1,1.8c-0.4,0.5-0.9,0.9-1.5,1.3c-0.6,0.4-1.2,0.6-2,0.8l5.5,7.7h-4.2l-5-7.1h-0.1h-4.4
				v7.1h-3.5V-988.7z M247-978.7c1.3,0,2.3-0.3,3-0.9s1.1-1.4,1.1-2.5v-0.1c0-1.1-0.4-1.9-1.1-2.5c-0.7-0.6-1.8-0.9-3.1-0.9h-5.2
				v6.8H247z"/>
			<path class="st1" d="M260.9-988.7h3.5v10.2l9.6-10.2h4.4L270-980l8.8,11.5h-4.3l-6.9-9.1l-3.2,3.2v5.9h-3.5V-988.7z"/>
			<path class="st1" d="M283.6-988.7h15v3.2h-11.4v5.2h10.1v3.2h-10.1v5.4h11.6v3.2h-15.1V-988.7z"/>
			<path class="st1" d="M309.6-985.4h-6.4v-3.3h16.4v3.3h-6.4v16.9h-3.6V-985.4z"/>
			<path class="st1" d="M325.3-988.7h3.5v20.2h-3.5V-988.7z"/>
			<path class="st1" d="M336-988.7h3.3l10.8,14v-14h3.5v20.2h-3l-11.1-14.4v14.4H336V-988.7z"/>
			<path class="st1" d="M370.2-968.1c-1.6,0-3-0.3-4.3-0.8c-1.3-0.5-2.4-1.3-3.3-2.2c-0.9-0.9-1.6-2-2.1-3.3
				c-0.5-1.3-0.8-2.6-0.8-4.1v-0.1c0-1.4,0.3-2.7,0.8-4c0.5-1.3,1.2-2.4,2.2-3.3s2-1.7,3.3-2.3c1.3-0.6,2.7-0.8,4.2-0.8
				c0.9,0,1.7,0.1,2.4,0.2c0.7,0.1,1.4,0.3,2,0.5c0.6,0.2,1.2,0.5,1.7,0.9c0.5,0.3,1.1,0.7,1.6,1.2l-2.3,2.7
				c-0.4-0.3-0.8-0.6-1.2-0.9c-0.4-0.3-0.8-0.5-1.3-0.7c-0.4-0.2-0.9-0.3-1.5-0.4c-0.5-0.1-1.1-0.2-1.7-0.2c-0.9,0-1.8,0.2-2.6,0.6
				s-1.5,0.9-2.1,1.5s-1.1,1.4-1.4,2.3s-0.5,1.8-0.5,2.8v0.1c0,1,0.2,2,0.5,2.9c0.3,0.9,0.8,1.7,1.4,2.3c0.6,0.6,1.3,1.1,2.2,1.5
				c0.8,0.4,1.8,0.6,2.8,0.6c1,0,1.9-0.1,2.7-0.4c0.8-0.3,1.6-0.7,2.2-1.1v-3.8H370v-3.1h8.6v8.5c-0.5,0.4-1.1,0.8-1.7,1.2
				c-0.6,0.4-1.3,0.7-2,1c-0.7,0.3-1.5,0.5-2.3,0.7C371.9-968.2,371.1-968.1,370.2-968.1z"/>
			<path class="st1" d="M395.4-988.7h7.5c1.6,0,3,0.3,4.3,0.8c1.3,0.5,2.5,1.2,3.4,2.1c1,0.9,1.7,2,2.2,3.2c0.5,1.2,0.8,2.5,0.8,4
				v0.1c0,1.4-0.3,2.8-0.8,4c-0.5,1.2-1.3,2.3-2.2,3.2c-1,0.9-2.1,1.6-3.4,2.1c-1.3,0.5-2.8,0.8-4.3,0.8h-7.5V-988.7z M402.9-971.7
				c1.1,0,2-0.2,2.9-0.5c0.9-0.3,1.6-0.8,2.2-1.4c0.6-0.6,1.1-1.3,1.4-2.2c0.3-0.8,0.5-1.8,0.5-2.7v-0.1c0-1-0.2-1.9-0.5-2.8
				c-0.3-0.9-0.8-1.6-1.4-2.2c-0.6-0.6-1.3-1.1-2.2-1.4s-1.8-0.5-2.9-0.5h-4v13.8H402.9z"/>
			<path class="st1" d="M419.9-988.7h3.5v20.2h-3.5V-988.7z"/>
			<path class="st1" d="M440.2-968.1c-1.6,0-3-0.3-4.3-0.8c-1.3-0.5-2.4-1.3-3.3-2.2c-0.9-0.9-1.6-2-2.1-3.3
				c-0.5-1.3-0.8-2.6-0.8-4.1v-0.1c0-1.4,0.3-2.7,0.8-4c0.5-1.3,1.2-2.4,2.2-3.3s2-1.7,3.3-2.3c1.3-0.6,2.7-0.8,4.2-0.8
				c0.9,0,1.7,0.1,2.4,0.2c0.7,0.1,1.4,0.3,2,0.5c0.6,0.2,1.2,0.5,1.7,0.9c0.5,0.3,1.1,0.7,1.6,1.2l-2.3,2.7
				c-0.4-0.3-0.8-0.6-1.2-0.9c-0.4-0.3-0.8-0.5-1.3-0.7c-0.4-0.2-0.9-0.3-1.5-0.4c-0.5-0.1-1.1-0.2-1.7-0.2c-0.9,0-1.8,0.2-2.6,0.6
				s-1.5,0.9-2.1,1.5s-1.1,1.4-1.4,2.3s-0.5,1.8-0.5,2.8v0.1c0,1,0.2,2,0.5,2.9c0.3,0.9,0.8,1.7,1.4,2.3c0.6,0.6,1.3,1.1,2.2,1.5
				c0.8,0.4,1.8,0.6,2.8,0.6c1,0,1.9-0.1,2.7-0.4c0.8-0.3,1.6-0.7,2.2-1.1v-3.8h-5.2v-3.1h8.6v8.5c-0.5,0.4-1.1,0.8-1.7,1.2
				c-0.6,0.4-1.3,0.7-2,1c-0.7,0.3-1.5,0.5-2.3,0.7C442-968.2,441.1-968.1,440.2-968.1z"/>
			<path class="st1" d="M455.2-988.7h3.5v20.2h-3.5V-988.7z"/>
			<path class="st1" d="M470.9-985.4h-6.4v-3.3h16.4v3.3h-6.4v16.9h-3.6V-985.4z"/>
			<path class="st1" d="M493.6-988.9h3.3l8.9,20.4H502l-2.1-4.9h-9.6l-2.1,4.9h-3.6L493.6-988.9z M498.7-976.5l-3.5-8.1l-3.5,8.1
				H498.7z"/>
			<path class="st1" d="M511-988.7h3.5v17h10.6v3.2H511V-988.7z"/>
		</g>
		<g>
			<path class="st1" d="M165.5-1001.5c-5.2,0-9.9-0.9-14.1-2.6c-4.2-1.7-7.8-4.1-10.8-7.2c-3-3.1-5.3-6.7-7-10.8
				c-1.6-4.1-2.5-8.6-2.5-13.5v-0.2c0-4.6,0.8-9,2.5-13.1c1.7-4.2,4-7.8,7.1-10.9c3-3.1,6.7-5.6,10.9-7.4c4.2-1.8,8.8-2.7,13.8-2.7
				c2.9,0,5.5,0.2,7.9,0.6c2.4,0.4,4.6,1,6.6,1.8c2,0.8,3.9,1.7,5.7,2.8c1.8,1.1,3.5,2.4,5.3,3.8l-7.4,8.8c-1.3-1.1-2.6-2-3.9-2.9
				c-1.3-0.9-2.7-1.6-4.2-2.2c-1.5-0.6-3-1.1-4.8-1.4c-1.7-0.3-3.6-0.5-5.7-0.5c-3,0-5.9,0.6-8.5,1.9c-2.6,1.3-4.9,3-6.8,5.1
				c-1.9,2.1-3.4,4.6-4.5,7.4c-1.1,2.8-1.7,5.8-1.7,9v0.2c0,3.4,0.5,6.6,1.6,9.5c1.1,2.9,2.6,5.4,4.6,7.5c2,2.1,4.3,3.7,7.1,4.9
				c2.7,1.2,5.8,1.8,9.2,1.8c3.1,0,6.1-0.5,8.8-1.4c2.7-0.9,5.1-2.1,7.1-3.7v-12.5h-16.9v-10.1h28.2v27.8c-1.6,1.4-3.5,2.7-5.4,4
				c-2,1.3-4.1,2.4-6.4,3.3c-2.3,0.9-4.8,1.7-7.4,2.2C171.1-1001.8,168.4-1001.5,165.5-1001.5z"/>
			<path class="st1" d="M455.7-1001.7c-5.1,0-10-0.9-14.7-2.6c-4.7-1.7-9-4.4-13-8l7-8.3c3.2,2.8,6.5,4.9,9.7,6.4
				c3.3,1.5,7,2.2,11.2,2.2c3.6,0,6.4-0.8,8.6-2.3c2.1-1.5,3.2-3.5,3.2-6.1v-0.2c0-1.2-0.2-2.3-0.6-3.2c-0.4-0.9-1.2-1.8-2.3-2.6
				c-1.1-0.8-2.6-1.6-4.6-2.3c-1.9-0.7-4.4-1.4-7.5-2.1c-3.5-0.8-6.7-1.8-9.4-2.8c-2.8-1-5.1-2.3-6.9-3.8c-1.9-1.5-3.3-3.3-4.3-5.4
				c-1-2.1-1.5-4.7-1.5-7.8v-0.2c0-2.8,0.6-5.4,1.7-7.8c1.1-2.4,2.7-4.4,4.6-6.1c2-1.7,4.3-3,7.1-3.9c2.8-0.9,5.8-1.4,9.1-1.4
				c4.9,0,9.2,0.7,13.1,2.1c3.9,1.4,7.5,3.5,10.9,6.2l-6.2,8.8c-3-2.2-6-3.9-9-5.1c-3-1.2-6-1.8-9-1.8c-3.4,0-6.1,0.8-7.9,2.3
				c-1.9,1.5-2.8,3.4-2.8,5.6v0.2c0,1.3,0.2,2.4,0.7,3.4c0.4,1,1.2,1.9,2.4,2.6c1.2,0.8,2.8,1.5,4.8,2.2c2.1,0.7,4.7,1.4,7.8,2.2
				c3.5,0.9,6.6,1.9,9.2,2.9c2.7,1.1,4.9,2.4,6.7,3.9c1.8,1.5,3.1,3.3,4,5.4c0.9,2.1,1.4,4.4,1.4,7.1v0.2c0,3.1-0.6,5.9-1.7,8.3
				c-1.2,2.5-2.8,4.5-4.8,6.2c-2.1,1.7-4.5,3-7.4,3.9C462.3-1002.1,459.2-1001.7,455.7-1001.7z"/>
			<path class="st1" d="M499.3-1068.9h11.5v66.2h-11.5V-1068.9z"/>
			<path class="st1" d="M557.6-1001.7c-5.1,0-10-0.9-14.7-2.6c-4.7-1.7-9-4.4-13-8l7-8.3c3.2,2.8,6.5,4.9,9.7,6.4
				c3.3,1.5,7,2.2,11.2,2.2c3.6,0,6.4-0.8,8.6-2.3c2.1-1.5,3.2-3.5,3.2-6.1v-0.2c0-1.2-0.2-2.3-0.6-3.2c-0.4-0.9-1.2-1.8-2.3-2.6
				c-1.1-0.8-2.6-1.6-4.6-2.3c-1.9-0.7-4.4-1.4-7.5-2.1c-3.5-0.8-6.7-1.8-9.4-2.8c-2.8-1-5.1-2.3-6.9-3.8c-1.9-1.5-3.3-3.3-4.3-5.4
				c-1-2.1-1.5-4.7-1.5-7.8v-0.2c0-2.8,0.6-5.4,1.7-7.8c1.1-2.4,2.7-4.4,4.6-6.1c2-1.7,4.3-3,7.1-3.9c2.8-0.9,5.8-1.4,9.1-1.4
				c4.9,0,9.2,0.7,13.1,2.1c3.9,1.4,7.5,3.5,10.9,6.2l-6.2,8.8c-3-2.2-6-3.9-9-5.1c-3-1.2-6-1.8-9-1.8c-3.4,0-6.1,0.8-7.9,2.3
				c-1.9,1.5-2.8,3.4-2.8,5.6v0.2c0,1.3,0.2,2.4,0.7,3.4c0.4,1,1.2,1.9,2.4,2.6c1.2,0.8,2.8,1.5,4.8,2.2c2.1,0.7,4.7,1.4,7.8,2.2
				c3.5,0.9,6.6,1.9,9.2,2.9c2.7,1.1,4.9,2.4,6.7,3.9c1.8,1.5,3.1,3.3,4,5.4c0.9,2.1,1.4,4.4,1.4,7.1v0.2c0,3.1-0.6,5.9-1.7,8.3
				c-1.2,2.5-2.8,4.5-4.8,6.2c-2.1,1.7-4.5,3-7.4,3.9C564.2-1002.1,561-1001.7,557.6-1001.7z"/>
			<polygon class="st1" points="329.1,-1051 329.1,-1023.1 293.7,-1068.9 283,-1068.9 283,-1002.6 294.5,-1002.6 294.5,-1049.7 
				330.9,-1002.6 340.7,-1002.6 340.7,-1051 			"/>
			<polygon class="st1" points="225.4,-1013.1 225.4,-1028.4 225.4,-1030.8 225.4,-1041.3 225.4,-1045.2 225.4,-1058.4 
				262.9,-1058.4 262.9,-1068.9 213.9,-1068.9 213.9,-1002.6 263.4,-1002.6 263.4,-1013.1 			"/>
			<rect x="232.4" y="-1041.3" class="st1" width="22.3" height="10.5"/>
			<polygon class="st1" points="374.9,-1013.1 374.9,-1028.4 374.8,-1028.4 374.8,-1045.2 374.9,-1045.2 374.9,-1058.4 
				412.4,-1058.4 412.4,-1068.9 363.4,-1068.9 363.4,-1002.6 412.8,-1002.6 412.8,-1013.1 			"/>
			<rect x="381.8" y="-1041.3" class="st1" width="22.4" height="10.5"/>
		</g>
	</g>
	<g>
		<path class="st0" d="M488.5-1241.7c-31.2-19.8-74.8-37.8-122.8-50.7s-94.7-19.3-131.6-17.8c-39.7,1.5-63.1,11.7-67.9,29.4
			c-4.8,17.7,10.4,38.3,44,59.5c11.3,7.2,24.3,14.1,38.5,20.7c-2.6-5.2-4.9-10.6-6.7-16.2c-44.3-22.3-68.6-46.1-64.5-61
			c6.3-23.5,84-30.6,185.3-3.3c101.3,27.3,164.9,72.5,158.5,96c-3.8,14.3-34,22.5-79.8,20.6c-4.4,3.9-9,7.6-13.9,10.8
			c13.1,1,25.5,1.3,37,0.9c39.7-1.5,63.1-11.7,67.9-29.4C537.3-1199.9,522.1-1220.5,488.5-1241.7z"/>
		<path class="st0" d="M481-1197.1l0.1-0.1c0,0-37.1-31.2-130.8-56.1l5.1,15.1c0,0,46.8,5.9,109.1,45.6
			c-27.6,46-83.4,70.3-137.7,55.6c-65.6-17.7-104.6-85.4-86.9-151s85.4-104.6,151-86.9c53.9,14.5,89.9,62.9,91.1,116.1
			c0,2.9-0.2,8.3-1.8,11.9l14,8.7c0,0,2.7-6.6,2.9-11.9c2.7-63.2-38.6-122.3-102.2-139.5c-73.6-19.8-149.7,23.9-169.5,97.5
			c-19.8,73.6,23.9,149.7,97.5,169.5c65,17.5,131.9-14.6,160.4-73.1C482.5-1196,481.8-1196.5,481-1197.1z"/>
		<path class="st0" d="M215.5-1331.1c-5.3,0-9.4-4.2-9.4-9.6c0-5.2,4.3-9.4,9.6-9.4c5.2,0,9.4,4.3,9.4,9.5
			C225.1-1335.3,220.8-1331.1,215.5-1331.1z"/>
		<g>
			<path class="st1" d="M203.1-1141.8C203.1-1141.8,203.1-1141.8,203.1-1141.8c-12.9,0-22.9-10.2-22.9-23.1c0-12.9,10.1-22.9,23-23
				c0,0,0,0,0,0c6.2,0,12,2.4,16.4,6.8c4.4,4.4,6.7,10.2,6.7,16.4C226.3-1151.8,216.1-1141.8,203.1-1141.8z M203.2-1177.8
				C203.2-1177.8,203.2-1177.8,203.2-1177.8c-7.3,0-13,5.7-13,13c0,7.4,5.5,13,12.8,13l0,0c0,0,0,0,0,0c7.5,0,13.1-5.5,13.2-12.9
				c0-3.5-1.3-6.8-3.8-9.3C210-1176.4,206.7-1177.8,203.2-1177.8z"/>
		</g>
		<path class="st0" d="M454.3-1122c0-4.8,3.8-8.5,8.5-8.5c4.8,0,8.6,3.8,8.6,8.5c0,4.7-3.9,8.6-8.6,8.6
			C458.1-1113.4,454.3-1117.3,454.3-1122z"/>
		<g>
			<path class="st1" d="M527.5-1268.2C527.4-1268.2,527.4-1268.2,527.5-1268.2L527.5-1268.2c-7.5,0-13.5-6-13.6-13.4
				c0-3.5,1.4-6.9,3.9-9.5c2.6-2.6,6-4,9.6-4c0,0,0,0,0,0c3.7,0,7.2,1.4,9.8,4.1c2.5,2.6,3.9,5.9,3.8,9.5
				C540.9-1274,535-1268.2,527.5-1268.2z M527.4-1274.2C527.4-1274.2,527.5-1274.2,527.4-1274.2c4.2,0,7.5-3.3,7.6-7.4
				c0-2-0.7-3.8-2.1-5.2c-1.4-1.5-3.4-2.3-5.5-2.3c0,0,0,0,0,0c-2,0-3.9,0.8-5.3,2.3c-1.4,1.4-2.2,3.3-2.2,5.2
				C519.9-1277.5,523.3-1274.2,527.4-1274.2L527.4-1274.2z"/>
		</g>
	</g>
</g>
<g>
	<g>
		<g>
			<path class="st2" d="M61,113c-8,0-15.3-1.3-21.8-4c-6.5-2.7-12.1-6.4-16.8-11.1c-4.6-4.7-8.2-10.3-10.8-16.7
				c-2.5-6.4-3.8-13.4-3.8-20.9V60c0-7.1,1.3-13.9,3.9-20.4c2.6-6.5,6.3-12.1,11-16.9c4.7-4.8,10.3-8.7,16.8-11.5
				c6.5-2.8,13.6-4.3,21.3-4.3c4.5,0,8.6,0.3,12.2,1c3.7,0.6,7.1,1.5,10.2,2.7c3.1,1.2,6.1,2.6,8.9,4.3c2.8,1.7,5.5,3.7,8.1,5.9
				L88.9,34.4c-2-1.7-4-3.2-6-4.5c-2.1-1.4-4.2-2.5-6.5-3.4c-2.2-0.9-4.7-1.7-7.4-2.2c-2.7-0.5-5.6-0.8-8.9-0.8
				c-4.7,0-9.1,1-13.1,2.9c-4.1,2-7.6,4.6-10.6,7.9c-3,3.3-5.3,7.1-7,11.5c-1.7,4.4-2.6,9.1-2.6,14V60c0,5.3,0.8,10.2,2.5,14.7
				c1.7,4.5,4,8.4,7.1,11.6c3.1,3.2,6.7,5.8,11,7.6c4.2,1.9,9,2.8,14.3,2.8c4.9,0,9.4-0.7,13.7-2.1c4.2-1.4,7.9-3.3,11-5.7V69.6
				H60.2V53.9h43.7V97c-2.5,2.2-5.4,4.2-8.4,6.2c-3.1,2-6.4,3.7-10,5.1c-3.6,1.5-7.4,2.6-11.5,3.4C69.8,112.6,65.5,113,61,113z"/>
			<path class="st2" d="M510.9,112.7c-7.9,0-15.5-1.3-22.7-4c-7.2-2.7-13.9-6.8-20.1-12.4l10.9-12.9c5,4.3,10,7.6,15.1,9.9
				c5.1,2.3,10.9,3.4,17.3,3.4c5.6,0,10-1.2,13.3-3.5c3.3-2.3,4.9-5.5,4.9-9.4v-0.3c0-1.9-0.3-3.5-1-4.9c-0.6-1.4-1.8-2.8-3.5-4
				c-1.7-1.3-4.1-2.4-7.1-3.5c-3-1.1-6.9-2.1-11.7-3.2c-5.5-1.3-10.4-2.7-14.6-4.3c-4.3-1.6-7.8-3.6-10.7-5.9
				c-2.9-2.3-5.1-5.1-6.6-8.4c-1.5-3.3-2.3-7.3-2.3-12v-0.3c0-4.4,0.9-8.4,2.6-12.1c1.7-3.7,4.1-6.8,7.2-9.4c3.1-2.6,6.7-4.6,11-6.1
				c4.3-1.5,9-2.2,14.1-2.2c7.5,0,14.3,1.1,20.3,3.3c6,2.2,11.7,5.4,16.9,9.6l-9.7,13.6c-4.7-3.4-9.3-6-13.9-7.8
				c-4.6-1.8-9.2-2.7-13.9-2.7c-5.3,0-9.4,1.2-12.3,3.5c-2.9,2.3-4.4,5.2-4.4,8.7v0.3c0,2,0.3,3.7,1,5.2c0.7,1.5,1.9,2.9,3.7,4.1
				c1.8,1.2,4.3,2.4,7.5,3.4c3.2,1.1,7.2,2.2,12.1,3.4c5.4,1.4,10.2,2.9,14.3,4.5c4.2,1.7,7.6,3.7,10.4,6.1c2.7,2.4,4.8,5.2,6.2,8.4
				c1.4,3.2,2.1,6.9,2.1,11.1v0.3c0,4.8-0.9,9.1-2.7,12.9c-1.8,3.8-4.3,7-7.5,9.7c-3.2,2.6-7,4.6-11.5,6
				C521.2,112.1,516.3,112.7,510.9,112.7z"/>
			<path class="st2" d="M578.5,8.6h17.9v102.6h-17.9V8.6z"/>
			<path class="st2" d="M668.8,112.7c-7.9,0-15.5-1.3-22.7-4c-7.2-2.7-13.9-6.8-20.1-12.4l10.9-12.9c5,4.3,10,7.6,15.1,9.9
				c5.1,2.3,10.9,3.4,17.3,3.4c5.6,0,10-1.2,13.3-3.5c3.3-2.3,4.9-5.5,4.9-9.4v-0.3c0-1.9-0.3-3.5-1-4.9c-0.6-1.4-1.8-2.8-3.5-4
				c-1.7-1.3-4.1-2.4-7.1-3.5c-3-1.1-6.9-2.1-11.7-3.2c-5.5-1.3-10.4-2.7-14.6-4.3c-4.3-1.6-7.8-3.6-10.7-5.9
				c-2.9-2.3-5.1-5.1-6.6-8.4c-1.5-3.3-2.3-7.3-2.3-12v-0.3c0-4.4,0.9-8.4,2.6-12.1c1.7-3.7,4.1-6.8,7.2-9.4c3.1-2.6,6.7-4.6,11-6.1
				c4.3-1.5,9-2.2,14.1-2.2c7.5,0,14.3,1.1,20.3,3.3s11.7,5.4,16.9,9.6l-9.7,13.6c-4.7-3.4-9.3-6-13.9-7.8
				c-4.6-1.8-9.2-2.7-13.9-2.7c-5.3,0-9.4,1.2-12.3,3.5c-2.9,2.3-4.4,5.2-4.4,8.7v0.3c0,2,0.3,3.7,1,5.2c0.7,1.5,1.9,2.9,3.7,4.1
				c1.8,1.2,4.3,2.4,7.5,3.4c3.2,1.1,7.2,2.2,12.1,3.4c5.4,1.4,10.2,2.9,14.3,4.5c4.2,1.7,7.6,3.7,10.4,6.1c2.7,2.4,4.8,5.2,6.2,8.4
				c1.4,3.2,2.1,6.9,2.1,11.1v0.3c0,4.8-0.9,9.1-2.7,12.9c-1.8,3.8-4.3,7-7.5,9.7c-3.2,2.6-7,4.6-11.5,6
				C679.1,112.1,674.2,112.7,668.8,112.7z"/>
			<polygon class="st2" points="314.7,36.3 314.7,79.6 259.8,8.6 243.2,8.6 243.2,111.3 261,111.3 261,38.3 317.5,111.3 
				332.6,111.3 332.6,36.3 			"/>
			<polygon class="st2" points="154,95 154,71.4 154,67.6 154,51.3 154,45.2 154,24.9 212.1,24.9 212.1,8.6 136.1,8.6 136.1,111.3 
				212.8,111.3 212.8,95 			"/>
			<rect x="164.8" y="51.3" class="st2" width="34.5" height="16.3"/>
			<polygon class="st2" points="385.7,95 385.7,71.4 385.5,71.4 385.5,45.2 385.7,45.2 385.7,24.9 443.7,24.9 443.7,8.6 367.8,8.6 
				367.8,111.3 444.5,111.3 444.5,95 			"/>
			<rect x="396.3" y="51.3" class="st2" width="34.7" height="16.3"/>
		</g>
	</g>
</g>
<g>
	<g>
		<g>
			<path class="st2" d="M1543,99.3h3.8l6.2,9.6l6.2-9.6h3.8v20.2h-3.5V105l-6.4,9.5h-0.1l-6.3-9.5v14.5h-3.5V99.3z"/>
			<path class="st2" d="M1577,99.2h3.3l8.9,20.4h-3.8l-2.1-4.9h-9.6l-2.1,4.9h-3.6L1577,99.2z M1582.1,111.5l-3.5-8.1l-3.5,8.1
				H1582.1z"/>
			<path class="st2" d="M1594.4,99.3h9c1.3,0,2.4,0.2,3.4,0.5c1,0.4,1.8,0.9,2.5,1.5c0.5,0.6,1,1.2,1.2,1.9s0.4,1.5,0.4,2.4v0.1
				c0,0.8-0.1,1.6-0.4,2.2c-0.2,0.7-0.6,1.3-1,1.8c-0.4,0.5-0.9,0.9-1.5,1.3c-0.6,0.4-1.2,0.6-2,0.8l5.5,7.7h-4.2l-5-7.1h-0.1h-4.4
				v7.1h-3.5V99.3z M1603.2,109.3c1.3,0,2.3-0.3,3-0.9s1.1-1.4,1.1-2.5v-0.1c0-1.1-0.4-1.9-1.1-2.5c-0.7-0.6-1.8-0.9-3.1-0.9h-5.2
				v6.8H1603.2z"/>
			<path class="st2" d="M1617.1,99.3h3.5v10.2l9.6-10.2h4.4l-8.4,8.7l8.8,11.5h-4.3l-6.9-9.1l-3.2,3.2v5.9h-3.5V99.3z"/>
			<path class="st2" d="M1639.8,99.3h15v3.2h-11.4v5.2h10.1v3.2h-10.1v5.4h11.6v3.2h-15.1V99.3z"/>
			<path class="st2" d="M1665.8,102.6h-6.4v-3.3h16.4v3.3h-6.4v16.9h-3.6V102.6z"/>
			<path class="st2" d="M1681.5,99.3h3.5v20.2h-3.5V99.3z"/>
			<path class="st2" d="M1692.2,99.3h3.3l10.8,14v-14h3.5v20.2h-3l-11.1-14.4v14.4h-3.5V99.3z"/>
			<path class="st2" d="M1726.4,119.9c-1.6,0-3-0.3-4.3-0.8c-1.3-0.5-2.4-1.3-3.3-2.2c-0.9-0.9-1.6-2-2.1-3.3
				c-0.5-1.3-0.8-2.6-0.8-4.1v-0.1c0-1.4,0.3-2.7,0.8-4c0.5-1.3,1.2-2.4,2.2-3.3s2-1.7,3.3-2.3c1.3-0.6,2.7-0.8,4.2-0.8
				c0.9,0,1.7,0.1,2.4,0.2c0.7,0.1,1.4,0.3,2,0.5c0.6,0.2,1.2,0.5,1.7,0.9c0.5,0.3,1.1,0.7,1.6,1.2l-2.3,2.7
				c-0.4-0.3-0.8-0.6-1.2-0.9c-0.4-0.3-0.8-0.5-1.3-0.7c-0.4-0.2-0.9-0.3-1.5-0.4c-0.5-0.1-1.1-0.2-1.7-0.2c-0.9,0-1.8,0.2-2.6,0.6
				s-1.5,0.9-2.1,1.5s-1.1,1.4-1.4,2.3s-0.5,1.8-0.5,2.8v0.1c0,1,0.2,2,0.5,2.9c0.3,0.9,0.8,1.7,1.4,2.3c0.6,0.6,1.3,1.1,2.2,1.5
				c0.8,0.4,1.8,0.6,2.8,0.6c1,0,1.9-0.1,2.7-0.4c0.8-0.3,1.6-0.7,2.2-1.1v-3.8h-5.2v-3.1h8.6v8.5c-0.5,0.4-1.1,0.8-1.7,1.2
				c-0.6,0.4-1.3,0.7-2,1c-0.7,0.3-1.5,0.5-2.3,0.7C1728.1,119.8,1727.3,119.9,1726.4,119.9z"/>
			<path class="st2" d="M1751.6,99.3h7.5c1.6,0,3,0.3,4.3,0.8c1.3,0.5,2.5,1.2,3.4,2.1c1,0.9,1.7,2,2.2,3.2c0.5,1.2,0.8,2.5,0.8,4
				v0.1c0,1.4-0.3,2.8-0.8,4c-0.5,1.2-1.3,2.3-2.2,3.2c-1,0.9-2.1,1.6-3.4,2.1c-1.3,0.5-2.8,0.8-4.3,0.8h-7.5V99.3z M1759.1,116.3
				c1.1,0,2-0.2,2.9-0.5c0.9-0.3,1.6-0.8,2.2-1.4c0.6-0.6,1.1-1.3,1.4-2.2c0.3-0.8,0.5-1.8,0.5-2.7v-0.1c0-1-0.2-1.9-0.5-2.8
				c-0.3-0.9-0.8-1.6-1.4-2.2c-0.6-0.6-1.3-1.1-2.2-1.4s-1.8-0.5-2.9-0.5h-4v13.8H1759.1z"/>
			<path class="st2" d="M1776.1,99.3h3.5v20.2h-3.5V99.3z"/>
			<path class="st2" d="M1796.4,119.9c-1.6,0-3-0.3-4.3-0.8c-1.3-0.5-2.4-1.3-3.3-2.2c-0.9-0.9-1.6-2-2.1-3.3
				c-0.5-1.3-0.8-2.6-0.8-4.1v-0.1c0-1.4,0.3-2.7,0.8-4c0.5-1.3,1.2-2.4,2.2-3.3s2-1.7,3.3-2.3c1.3-0.6,2.7-0.8,4.2-0.8
				c0.9,0,1.7,0.1,2.4,0.2c0.7,0.1,1.4,0.3,2,0.5c0.6,0.2,1.2,0.5,1.7,0.9c0.5,0.3,1.1,0.7,1.6,1.2l-2.3,2.7
				c-0.4-0.3-0.8-0.6-1.2-0.9c-0.4-0.3-0.8-0.5-1.3-0.7c-0.4-0.2-0.9-0.3-1.5-0.4c-0.5-0.1-1.1-0.2-1.7-0.2c-0.9,0-1.8,0.2-2.6,0.6
				s-1.5,0.9-2.1,1.5s-1.1,1.4-1.4,2.3s-0.5,1.8-0.5,2.8v0.1c0,1,0.2,2,0.5,2.9c0.3,0.9,0.8,1.7,1.4,2.3c0.6,0.6,1.3,1.1,2.2,1.5
				c0.8,0.4,1.8,0.6,2.8,0.6c1,0,1.9-0.1,2.7-0.4c0.8-0.3,1.6-0.7,2.2-1.1v-3.8h-5.2v-3.1h8.6v8.5c-0.5,0.4-1.1,0.8-1.7,1.2
				c-0.6,0.4-1.3,0.7-2,1c-0.7,0.3-1.5,0.5-2.3,0.7C1798.2,119.8,1797.3,119.9,1796.4,119.9z"/>
			<path class="st2" d="M1811.4,99.3h3.5v20.2h-3.5V99.3z"/>
			<path class="st2" d="M1827.1,102.6h-6.4v-3.3h16.4v3.3h-6.4v16.9h-3.6V102.6z"/>
			<path class="st2" d="M1849.8,99.2h3.3l8.9,20.4h-3.8l-2.1-4.9h-9.6l-2.1,4.9h-3.6L1849.8,99.2z M1854.8,111.5l-3.5-8.1l-3.5,8.1
				H1854.8z"/>
			<path class="st2" d="M1867.2,99.3h3.5v17h10.6v3.2h-14.2V99.3z"/>
		</g>
		<g>
			<path class="st2" d="M1521.6,86.5c-5.2,0-9.9-0.9-14.1-2.6c-4.2-1.7-7.8-4.1-10.8-7.2c-3-3.1-5.3-6.7-7-10.8
				c-1.6-4.1-2.5-8.6-2.5-13.5v-0.2c0-4.6,0.8-9,2.5-13.1c1.7-4.2,4-7.8,7.1-10.9c3-3.1,6.7-5.6,10.9-7.4c4.2-1.8,8.8-2.7,13.8-2.7
				c2.9,0,5.5,0.2,7.9,0.6c2.4,0.4,4.6,1,6.6,1.8c2,0.8,3.9,1.7,5.7,2.8c1.8,1.1,3.5,2.4,5.3,3.8l-7.4,8.8c-1.3-1.1-2.6-2-3.9-2.9
				c-1.3-0.9-2.7-1.6-4.2-2.2c-1.5-0.6-3-1.1-4.8-1.4c-1.7-0.3-3.6-0.5-5.7-0.5c-3,0-5.9,0.6-8.5,1.9c-2.6,1.3-4.9,3-6.8,5.1
				c-1.9,2.1-3.4,4.6-4.5,7.4c-1.1,2.8-1.7,5.8-1.7,9v0.2c0,3.4,0.5,6.6,1.6,9.5c1.1,2.9,2.6,5.4,4.6,7.5c2,2.1,4.3,3.7,7.1,4.9
				c2.7,1.2,5.8,1.8,9.2,1.8c3.1,0,6.1-0.5,8.8-1.4c2.7-0.9,5.1-2.1,7.1-3.7V58.5h-16.9V48.4h28.2v27.8c-1.6,1.4-3.5,2.7-5.4,4
				c-2,1.3-4.1,2.4-6.4,3.3c-2.3,0.9-4.8,1.7-7.4,2.2C1527.3,86.2,1524.5,86.5,1521.6,86.5z"/>
			<path class="st2" d="M1811.9,86.3c-5.1,0-10-0.9-14.7-2.6c-4.7-1.7-9-4.4-13-8l7-8.3c3.2,2.8,6.5,4.9,9.7,6.4
				c3.3,1.5,7,2.2,11.2,2.2c3.6,0,6.4-0.8,8.6-2.3c2.1-1.5,3.2-3.5,3.2-6.1v-0.2c0-1.2-0.2-2.3-0.6-3.2c-0.4-0.9-1.2-1.8-2.3-2.6
				c-1.1-0.8-2.6-1.6-4.6-2.3c-1.9-0.7-4.4-1.4-7.5-2.1c-3.5-0.8-6.7-1.8-9.4-2.8c-2.8-1-5.1-2.3-6.9-3.8c-1.9-1.5-3.3-3.3-4.3-5.4
				c-1-2.1-1.5-4.7-1.5-7.8v-0.2c0-2.8,0.6-5.4,1.7-7.8c1.1-2.4,2.7-4.4,4.6-6.1c2-1.7,4.3-3,7.1-3.9c2.8-0.9,5.8-1.4,9.1-1.4
				c4.9,0,9.2,0.7,13.1,2.1c3.9,1.4,7.5,3.5,10.9,6.2l-6.2,8.8c-3-2.2-6-3.9-9-5.1c-3-1.2-6-1.8-9-1.8c-3.4,0-6.1,0.8-7.9,2.3
				c-1.9,1.5-2.8,3.4-2.8,5.6v0.2c0,1.3,0.2,2.4,0.7,3.4c0.4,1,1.2,1.9,2.4,2.6c1.2,0.8,2.8,1.5,4.8,2.2c2.1,0.7,4.7,1.4,7.8,2.2
				c3.5,0.9,6.6,1.9,9.2,2.9c2.7,1.1,4.9,2.4,6.7,3.9c1.8,1.5,3.1,3.3,4,5.4c0.9,2.1,1.4,4.4,1.4,7.1v0.2c0,3.1-0.6,5.9-1.7,8.3
				c-1.2,2.5-2.8,4.5-4.8,6.2c-2.1,1.7-4.5,3-7.4,3.9C1818.5,85.9,1815.3,86.3,1811.9,86.3z"/>
			<path class="st2" d="M1855.5,19.2h11.5v66.2h-11.5V19.2z"/>
			<path class="st2" d="M1913.8,86.3c-5.1,0-10-0.9-14.7-2.6c-4.7-1.7-9-4.4-13-8l7-8.3c3.2,2.8,6.5,4.9,9.7,6.4
				c3.3,1.5,7,2.2,11.2,2.2c3.6,0,6.4-0.8,8.6-2.3c2.1-1.5,3.2-3.5,3.2-6.1v-0.2c0-1.2-0.2-2.3-0.6-3.2c-0.4-0.9-1.2-1.8-2.3-2.6
				c-1.1-0.8-2.6-1.6-4.6-2.3c-1.9-0.7-4.4-1.4-7.5-2.1c-3.5-0.8-6.7-1.8-9.4-2.8c-2.8-1-5.1-2.3-6.9-3.8c-1.9-1.5-3.3-3.3-4.3-5.4
				c-1-2.1-1.5-4.7-1.5-7.8v-0.2c0-2.8,0.6-5.4,1.7-7.8c1.1-2.4,2.7-4.4,4.6-6.1c2-1.7,4.3-3,7.1-3.9c2.8-0.9,5.8-1.4,9.1-1.4
				c4.9,0,9.2,0.7,13.1,2.1c3.9,1.4,7.5,3.5,10.9,6.2l-6.2,8.8c-3-2.2-6-3.9-9-5.1c-3-1.2-6-1.8-9-1.8c-3.4,0-6.1,0.8-7.9,2.3
				c-1.9,1.5-2.8,3.4-2.8,5.6v0.2c0,1.3,0.2,2.4,0.7,3.4c0.4,1,1.2,1.9,2.4,2.6c1.2,0.8,2.8,1.5,4.8,2.2c2.1,0.7,4.7,1.4,7.8,2.2
				c3.5,0.9,6.6,1.9,9.2,2.9c2.7,1.1,4.9,2.4,6.7,3.9c1.8,1.5,3.1,3.3,4,5.4c0.9,2.1,1.4,4.4,1.4,7.1v0.2c0,3.1-0.6,5.9-1.7,8.3
				c-1.2,2.5-2.8,4.5-4.8,6.2c-2.1,1.7-4.5,3-7.4,3.9C1920.4,85.9,1917.2,86.3,1913.8,86.3z"/>
			<polygon class="st2" points="1685.3,37 1685.3,64.9 1649.9,19.2 1639.1,19.2 1639.1,85.4 1650.7,85.4 1650.7,38.3 1687.1,85.4 
				1696.8,85.4 1696.8,37 			"/>
			<polygon class="st2" points="1581.6,74.9 1581.6,59.6 1581.6,57.2 1581.6,46.7 1581.6,42.8 1581.6,29.7 1619.1,29.7 1619.1,19.2 
				1570.1,19.2 1570.1,85.4 1619.5,85.4 1619.5,74.9 			"/>
			<rect x="1588.6" y="46.7" class="st2" width="22.3" height="10.5"/>
			<polygon class="st2" points="1731.1,74.9 1731.1,59.6 1731,59.6 1731,42.8 1731.1,42.8 1731.1,29.7 1768.5,29.7 1768.5,19.2 
				1719.5,19.2 1719.5,85.4 1769,85.4 1769,74.9 			"/>
			<rect x="1737.9" y="46.7" class="st2" width="22.4" height="10.5"/>
		</g>
	</g>
	<g>
		<path class="st2" d="M1431.9,67.9c-19.8-12.5-47.4-24-77.9-32.2s-60.1-12.2-83.5-11.3c-25.2,1-40.1,7.4-43.1,18.6
			c-3,11.2,6.6,24.3,27.9,37.7c7.2,4.6,15.4,9,24.4,13.1c-1.7-3.3-3.1-6.7-4.3-10.3c-28.1-14.2-43.5-29.2-40.9-38.7
			c4-14.9,53.3-19.4,117.5-2.1c64.3,17.3,104.6,46,100.6,60.9c-2.4,9.1-21.6,14.3-50.6,13.1c-2.8,2.5-5.7,4.8-8.8,6.9
			c8.3,0.6,16.2,0.8,23.5,0.6c25.2-1,40.1-7.4,43.1-18.6C1462.8,94.5,1453.2,81.4,1431.9,67.9z"/>
		<path class="st2" d="M1427.2,96.3L1427.2,96.3c0-0.1-23.5-19.9-82.9-35.7l3.2,9.5c0,0,29.7,3.7,69.2,28.9
			c-17.5,29.2-52.9,44.6-87.4,35.3c-41.6-11.2-66.3-54.2-55.1-95.8s54.2-66.3,95.8-55.1c34.2,9.2,57,39.9,57.8,73.7
			c0,1.9-0.1,5.3-1.1,7.6l8.9,5.5c0,0,1.7-4.2,1.8-7.6c1.7-40.1-24.5-77.6-64.8-88.5c-46.7-12.6-94.9,15.2-107.5,61.9
			s15.2,94.9,61.9,107.5c41.3,11.1,83.7-9.2,101.7-46.3C1428.1,97,1427.7,96.6,1427.2,96.3z"/>
		<path class="st2" d="M1258.7,11.2c-3.4,0-6-2.7-6-6.1c0-3.3,2.7-6,6.1-6c3.3,0,6,2.7,6,6.1C1264.8,8.6,1262.1,11.2,1258.7,11.2z"
			/>
		<g>
			<path class="st2" d="M1250.9,131.3C1250.9,131.3,1250.9,131.3,1250.9,131.3c-8.2,0-14.5-6.4-14.5-14.6c0-8.2,6.4-14.6,14.6-14.6
				c0,0,0,0,0,0c3.9,0,7.6,1.5,10.4,4.3c2.8,2.8,4.3,6.5,4.3,10.4C1265.6,125,1259.1,131.3,1250.9,131.3z M1251,108.5
				C1251,108.5,1251,108.5,1251,108.5c-4.6,0-8.2,3.6-8.2,8.2c0,4.7,3.5,8.3,8.1,8.3l0,0c0,0,0,0,0,0c4.7,0,8.3-3.5,8.4-8.2
				c0-2.2-0.8-4.3-2.4-5.9C1255.3,109.4,1253.2,108.5,1251,108.5z"/>
		</g>
		<path class="st2" d="M1410.2,143.9c0-3,2.4-5.4,5.4-5.4c3,0,5.4,2.4,5.4,5.4c0,3-2.5,5.5-5.4,5.4
			C1412.6,149.3,1410.2,146.9,1410.2,143.9z"/>
		<g>
			<path class="st2" d="M1456.6,51.2C1456.6,51.2,1456.6,51.2,1456.6,51.2L1456.6,51.2c-4.7,0-8.6-3.8-8.6-8.5c0-2.2,0.9-4.4,2.5-6
				c1.6-1.6,3.8-2.5,6.1-2.6c0,0,0,0,0,0c2.4,0,4.6,0.9,6.2,2.6c1.6,1.6,2.5,3.8,2.4,6C1465.2,47.4,1461.4,51.2,1456.6,51.2z
				 M1456.6,47.4C1456.6,47.4,1456.6,47.4,1456.6,47.4c2.7,0,4.8-2.1,4.8-4.7c0-1.2-0.5-2.4-1.3-3.3c-0.9-0.9-2.2-1.4-3.5-1.4
				c0,0,0,0,0,0c-1.3,0-2.5,0.5-3.4,1.4c-0.9,0.9-1.4,2.1-1.4,3.3C1451.8,45.2,1454,47.3,1456.6,47.4L1456.6,47.4z"/>
		</g>
	</g>
</g>
<g>
	<g>
		<g>
			<path class="st2" d="M1412.9-977.6h3.8l6.2,9.6l6.2-9.6h3.8v20.2h-3.5v-14.5l-6.4,9.5h-0.1l-6.3-9.5v14.5h-3.5V-977.6z"/>
			<path class="st2" d="M1446.8-977.7h3.3l8.9,20.4h-3.8l-2.1-4.9h-9.6l-2.1,4.9h-3.6L1446.8-977.7z M1451.9-965.4l-3.5-8.1
				l-3.5,8.1H1451.9z"/>
			<path class="st2" d="M1464.2-977.6h9c1.3,0,2.4,0.2,3.4,0.5s1.8,0.9,2.5,1.5c0.5,0.6,1,1.2,1.2,1.9s0.4,1.5,0.4,2.4v0.1
				c0,0.8-0.1,1.6-0.4,2.2c-0.2,0.7-0.6,1.3-1,1.8c-0.4,0.5-0.9,0.9-1.5,1.3c-0.6,0.4-1.2,0.6-2,0.8l5.5,7.7h-4.2l-5-7.1h-0.1h-4.4
				v7.1h-3.5V-977.6z M1473-967.5c1.3,0,2.3-0.3,3-0.9s1.1-1.4,1.1-2.5v-0.1c0-1.1-0.4-1.9-1.1-2.5c-0.7-0.6-1.8-0.9-3.1-0.9h-5.2
				v6.8H1473z"/>
			<path class="st2" d="M1486.9-977.6h3.5v10.2l9.6-10.2h4.4l-8.4,8.7l8.8,11.5h-4.3l-6.9-9.1l-3.2,3.2v5.9h-3.5V-977.6z"/>
			<path class="st2" d="M1509.6-977.6h15v3.2h-11.4v5.2h10.1v3.2h-10.1v5.4h11.6v3.2h-15.1V-977.6z"/>
			<path class="st2" d="M1535.6-974.3h-6.4v-3.3h16.4v3.3h-6.4v16.9h-3.6V-974.3z"/>
			<path class="st2" d="M1551.3-977.6h3.5v20.2h-3.5V-977.6z"/>
			<path class="st2" d="M1562-977.6h3.3l10.8,14v-14h3.5v20.2h-3l-11.1-14.4v14.4h-3.5V-977.6z"/>
			<path class="st2" d="M1596.2-957c-1.6,0-3-0.3-4.3-0.8c-1.3-0.5-2.4-1.3-3.3-2.2c-0.9-0.9-1.6-2-2.1-3.3
				c-0.5-1.3-0.8-2.6-0.8-4.1v-0.1c0-1.4,0.3-2.7,0.8-4c0.5-1.3,1.2-2.4,2.2-3.3s2-1.7,3.3-2.3c1.3-0.6,2.7-0.8,4.2-0.8
				c0.9,0,1.7,0.1,2.4,0.2c0.7,0.1,1.4,0.3,2,0.5c0.6,0.2,1.2,0.5,1.7,0.9c0.5,0.3,1.1,0.7,1.6,1.2l-2.3,2.7
				c-0.4-0.3-0.8-0.6-1.2-0.9c-0.4-0.3-0.8-0.5-1.3-0.7c-0.4-0.2-0.9-0.3-1.5-0.4c-0.5-0.1-1.1-0.2-1.7-0.2c-0.9,0-1.8,0.2-2.6,0.6
				s-1.5,0.9-2.1,1.5s-1.1,1.4-1.4,2.3s-0.5,1.8-0.5,2.8v0.1c0,1,0.2,2,0.5,2.9c0.3,0.9,0.8,1.7,1.4,2.3c0.6,0.6,1.3,1.1,2.2,1.5
				c0.8,0.4,1.8,0.6,2.8,0.6c1,0,1.9-0.1,2.7-0.4c0.8-0.3,1.6-0.7,2.2-1.1v-3.8h-5.2v-3.1h8.6v8.5c-0.5,0.4-1.1,0.8-1.7,1.2
				c-0.6,0.4-1.3,0.7-2,1c-0.7,0.3-1.5,0.5-2.3,0.7C1597.9-957.1,1597.1-957,1596.2-957z"/>
			<path class="st2" d="M1621.4-977.6h7.5c1.6,0,3,0.3,4.3,0.8c1.3,0.5,2.5,1.2,3.4,2.1c1,0.9,1.7,2,2.2,3.2c0.5,1.2,0.8,2.5,0.8,4
				v0.1c0,1.4-0.3,2.8-0.8,4c-0.5,1.2-1.3,2.3-2.2,3.2c-1,0.9-2.1,1.6-3.4,2.1c-1.3,0.5-2.8,0.8-4.3,0.8h-7.5V-977.6z M1628.9-960.5
				c1.1,0,2-0.2,2.9-0.5c0.9-0.3,1.6-0.8,2.2-1.4c0.6-0.6,1.1-1.3,1.4-2.2c0.3-0.8,0.5-1.8,0.5-2.7v-0.1c0-1-0.2-1.9-0.5-2.8
				c-0.3-0.9-0.8-1.6-1.4-2.2c-0.6-0.6-1.3-1.1-2.2-1.4s-1.8-0.5-2.9-0.5h-4v13.8H1628.9z"/>
			<path class="st2" d="M1645.9-977.6h3.5v20.2h-3.5V-977.6z"/>
			<path class="st2" d="M1666.2-957c-1.6,0-3-0.3-4.3-0.8c-1.3-0.5-2.4-1.3-3.3-2.2c-0.9-0.9-1.6-2-2.1-3.3
				c-0.5-1.3-0.8-2.6-0.8-4.1v-0.1c0-1.4,0.3-2.7,0.8-4c0.5-1.3,1.2-2.4,2.2-3.3s2-1.7,3.3-2.3c1.3-0.6,2.7-0.8,4.2-0.8
				c0.9,0,1.7,0.1,2.4,0.2c0.7,0.1,1.4,0.3,2,0.5c0.6,0.2,1.2,0.5,1.7,0.9c0.5,0.3,1.1,0.7,1.6,1.2l-2.3,2.7
				c-0.4-0.3-0.8-0.6-1.2-0.9c-0.4-0.3-0.8-0.5-1.3-0.7c-0.4-0.2-0.9-0.3-1.5-0.4c-0.5-0.1-1.1-0.2-1.7-0.2c-0.9,0-1.8,0.2-2.6,0.6
				s-1.5,0.9-2.1,1.5s-1.1,1.4-1.4,2.3s-0.5,1.8-0.5,2.8v0.1c0,1,0.2,2,0.5,2.9c0.3,0.9,0.8,1.7,1.4,2.3c0.6,0.6,1.3,1.1,2.2,1.5
				c0.8,0.4,1.8,0.6,2.8,0.6c1,0,1.9-0.1,2.7-0.4c0.8-0.3,1.6-0.7,2.2-1.1v-3.8h-5.2v-3.1h8.6v8.5c-0.5,0.4-1.1,0.8-1.7,1.2
				c-0.6,0.4-1.3,0.7-2,1c-0.7,0.3-1.5,0.5-2.3,0.7C1668-957.1,1667.1-957,1666.2-957z"/>
			<path class="st2" d="M1681.2-977.6h3.5v20.2h-3.5V-977.6z"/>
			<path class="st2" d="M1696.9-974.3h-6.4v-3.3h16.4v3.3h-6.4v16.9h-3.6V-974.3z"/>
			<path class="st2" d="M1719.6-977.7h3.3l8.9,20.4h-3.8l-2.1-4.9h-9.6l-2.1,4.9h-3.6L1719.6-977.7z M1724.7-965.4l-3.5-8.1
				l-3.5,8.1H1724.7z"/>
			<path class="st2" d="M1737-977.6h3.5v17h10.6v3.2H1737V-977.6z"/>
		</g>
		<g>
			<path class="st2" d="M1391.5-990.4c-5.2,0-9.9-0.9-14.1-2.6c-4.2-1.7-7.8-4.1-10.8-7.2c-3-3.1-5.3-6.7-7-10.8
				c-1.6-4.1-2.5-8.6-2.5-13.5v-0.2c0-4.6,0.8-9,2.5-13.1c1.7-4.2,4-7.8,7.1-10.9c3-3.1,6.7-5.6,10.9-7.4c4.2-1.8,8.8-2.7,13.8-2.7
				c2.9,0,5.5,0.2,7.9,0.6c2.4,0.4,4.6,1,6.6,1.8c2,0.8,3.9,1.7,5.7,2.8c1.8,1.1,3.5,2.4,5.3,3.8l-7.4,8.8c-1.3-1.1-2.6-2-3.9-2.9
				c-1.3-0.9-2.7-1.6-4.2-2.2c-1.5-0.6-3-1.1-4.8-1.4c-1.7-0.3-3.6-0.5-5.7-0.5c-3,0-5.9,0.6-8.5,1.9c-2.6,1.3-4.9,3-6.8,5.1
				c-1.9,2.1-3.4,4.6-4.5,7.4c-1.1,2.8-1.7,5.8-1.7,9v0.2c0,3.4,0.5,6.6,1.6,9.5c1.1,2.9,2.6,5.4,4.6,7.5c2,2.1,4.3,3.7,7.1,4.9
				c2.7,1.2,5.8,1.8,9.2,1.8c3.1,0,6.1-0.5,8.8-1.4c2.7-0.9,5.1-2.1,7.1-3.7v-12.5h-16.9v-10.1h28.2v27.8c-1.6,1.4-3.5,2.7-5.4,4
				c-2,1.3-4.1,2.4-6.4,3.3c-2.3,0.9-4.8,1.7-7.4,2.2C1397.1-990.6,1394.4-990.4,1391.5-990.4z"/>
			<path class="st2" d="M1681.7-990.5c-5.1,0-10-0.9-14.7-2.6c-4.7-1.7-9-4.4-13-8l7-8.3c3.2,2.8,6.5,4.9,9.7,6.4
				c3.3,1.5,7,2.2,11.2,2.2c3.6,0,6.4-0.8,8.6-2.3c2.1-1.5,3.2-3.5,3.2-6.1v-0.2c0-1.2-0.2-2.3-0.6-3.2c-0.4-0.9-1.2-1.8-2.3-2.6
				c-1.1-0.8-2.6-1.6-4.6-2.3c-1.9-0.7-4.4-1.4-7.5-2.1c-3.5-0.8-6.7-1.8-9.4-2.8c-2.8-1-5.1-2.3-6.9-3.8c-1.9-1.5-3.3-3.3-4.3-5.4
				c-1-2.1-1.5-4.7-1.5-7.8v-0.2c0-2.8,0.6-5.4,1.7-7.8c1.1-2.4,2.7-4.4,4.6-6.1c2-1.7,4.3-3,7.1-3.9c2.8-0.9,5.8-1.4,9.1-1.4
				c4.9,0,9.2,0.7,13.1,2.1s7.5,3.5,10.9,6.2l-6.2,8.8c-3-2.2-6-3.9-9-5.1c-3-1.2-6-1.8-9-1.8c-3.4,0-6.1,0.8-7.9,2.3
				c-1.9,1.5-2.8,3.4-2.8,5.6v0.2c0,1.3,0.2,2.4,0.7,3.4c0.4,1,1.2,1.9,2.4,2.6c1.2,0.8,2.8,1.5,4.8,2.2c2.1,0.7,4.7,1.4,7.8,2.2
				c3.5,0.9,6.6,1.9,9.2,2.9c2.7,1.1,4.9,2.4,6.7,3.9c1.8,1.5,3.1,3.3,4,5.4c0.9,2.1,1.4,4.4,1.4,7.1v0.2c0,3.1-0.6,5.9-1.7,8.3
				c-1.2,2.5-2.8,4.5-4.8,6.2c-2.1,1.7-4.5,3-7.4,3.9C1688.3-991,1685.2-990.5,1681.7-990.5z"/>
			<path class="st2" d="M1725.3-1057.7h11.5v66.2h-11.5V-1057.7z"/>
			<path class="st2" d="M1783.6-990.5c-5.1,0-10-0.9-14.7-2.6c-4.7-1.7-9-4.4-13-8l7-8.3c3.2,2.8,6.5,4.9,9.7,6.4
				c3.3,1.5,7,2.2,11.2,2.2c3.6,0,6.4-0.8,8.6-2.3c2.1-1.5,3.2-3.5,3.2-6.1v-0.2c0-1.2-0.2-2.3-0.6-3.2c-0.4-0.9-1.2-1.8-2.3-2.6
				c-1.1-0.8-2.6-1.6-4.6-2.3c-1.9-0.7-4.4-1.4-7.5-2.1c-3.5-0.8-6.7-1.8-9.4-2.8c-2.8-1-5.1-2.3-6.9-3.8c-1.9-1.5-3.3-3.3-4.3-5.4
				c-1-2.1-1.5-4.7-1.5-7.8v-0.2c0-2.8,0.6-5.4,1.7-7.8c1.1-2.4,2.7-4.4,4.6-6.1c2-1.7,4.3-3,7.1-3.9c2.8-0.9,5.8-1.4,9.1-1.4
				c4.9,0,9.2,0.7,13.1,2.1s7.5,3.5,10.9,6.2l-6.2,8.8c-3-2.2-6-3.9-9-5.1c-3-1.2-6-1.8-9-1.8c-3.4,0-6.1,0.8-7.9,2.3
				c-1.9,1.5-2.8,3.4-2.8,5.6v0.2c0,1.3,0.2,2.4,0.7,3.4c0.4,1,1.2,1.9,2.4,2.6c1.2,0.8,2.8,1.5,4.8,2.2c2.1,0.7,4.7,1.4,7.8,2.2
				c3.5,0.9,6.6,1.9,9.2,2.9c2.7,1.1,4.9,2.4,6.7,3.9c1.8,1.5,3.1,3.3,4,5.4c0.9,2.1,1.4,4.4,1.4,7.1v0.2c0,3.1-0.6,5.9-1.7,8.3
				c-1.2,2.5-2.8,4.5-4.8,6.2c-2.1,1.7-4.5,3-7.4,3.9C1790.2-991,1787-990.5,1783.6-990.5z"/>
			<polygon class="st2" points="1555.1,-1039.8 1555.1,-1011.9 1519.7,-1057.7 1509,-1057.7 1509,-991.5 1520.5,-991.5 
				1520.5,-1038.6 1556.9,-991.5 1566.7,-991.5 1566.7,-1039.8 			"/>
			<polygon class="st2" points="1451.4,-1002 1451.4,-1017.2 1451.4,-1019.7 1451.4,-1030.2 1451.4,-1034.1 1451.4,-1047.2 
				1488.9,-1047.2 1488.9,-1057.7 1439.9,-1057.7 1439.9,-991.5 1489.4,-991.5 1489.4,-1002 			"/>
			<rect x="1458.4" y="-1030.2" class="st2" width="22.3" height="10.5"/>
			<polygon class="st2" points="1600.9,-1002 1600.9,-1017.2 1600.8,-1017.2 1600.8,-1034.1 1600.9,-1034.1 1600.9,-1047.2 
				1638.4,-1047.2 1638.4,-1057.7 1589.4,-1057.7 1589.4,-991.5 1638.8,-991.5 1638.8,-1002 			"/>
			<rect x="1607.8" y="-1030.2" class="st2" width="22.4" height="10.5"/>
		</g>
	</g>
	<g>
		<path class="st2" d="M1714.5-1230.6c-31.2-19.8-74.8-37.8-122.8-50.7s-94.7-19.3-131.6-17.8c-39.7,1.5-63.1,11.7-67.9,29.4
			s10.4,38.3,44,59.5c11.3,7.2,24.3,14.1,38.5,20.7c-2.6-5.2-4.9-10.6-6.7-16.2c-44.3-22.3-68.6-46.1-64.5-61
			c6.3-23.5,84-30.6,185.3-3.3c101.3,27.3,164.9,72.5,158.5,96c-3.8,14.3-34,22.5-79.8,20.6c-4.4,3.9-9,7.6-13.9,10.8
			c13.1,1,25.5,1.3,37,0.9c39.7-1.5,63.2-11.7,67.9-29.4C1763.3-1188.7,1748.1-1209.3,1714.5-1230.6z"/>
		<path class="st2" d="M1707-1185.9l0.1-0.1c0,0-37.1-31.2-130.8-56.1l5.1,15.1c0,0,46.8,5.9,109.1,45.6
			c-27.6,46-83.4,70.3-137.7,55.6c-65.6-17.7-104.6-85.4-86.9-151c17.7-65.6,85.4-104.6,151-86.9c53.9,14.5,89.9,62.9,91.1,116.1
			c0,2.9-0.2,8.3-1.8,11.9l14,8.7c0,0,2.7-6.6,2.9-11.9c2.7-63.2-38.6-122.3-102.2-139.5c-73.6-19.8-149.7,23.9-169.5,97.5
			c-19.8,73.6,23.9,149.7,97.5,169.5c65,17.5,131.9-14.6,160.4-73.1C1708.5-1184.8,1707.8-1185.3,1707-1185.9z"/>
		<path class="st2" d="M1441.5-1320c-5.3,0-9.4-4.2-9.4-9.6c0-5.2,4.3-9.4,9.6-9.4c5.2,0,9.4,4.3,9.4,9.5
			C1451.1-1324.1,1446.8-1319.9,1441.5-1320z"/>
		<g>
			<path class="st2" d="M1429.1-1130.6C1429.1-1130.6,1429.1-1130.6,1429.1-1130.6c-12.9,0-22.9-10.2-22.9-23.1
				c0-12.9,10.1-22.9,23-23c0,0,0,0,0,0c6.2,0,12,2.4,16.4,6.8c4.4,4.4,6.7,10.2,6.7,16.4
				C1452.3-1140.6,1442.1-1130.6,1429.1-1130.6z M1429.2-1166.6C1429.2-1166.6,1429.2-1166.6,1429.2-1166.6c-7.3,0-13,5.7-13,13
				c0,7.4,5.5,13,12.8,13h0c0,0,0,0,0,0c7.5,0,13.1-5.5,13.2-12.9c0-3.5-1.3-6.8-3.8-9.3C1436-1165.3,1432.7-1166.6,1429.2-1166.6z"
				/>
		</g>
		<path class="st2" d="M1680.3-1110.9c0-4.8,3.8-8.5,8.5-8.5c4.8,0,8.6,3.8,8.6,8.5c0,4.7-3.9,8.6-8.6,8.6
			C1684.1-1102.3,1680.3-1106.1,1680.3-1110.9z"/>
		<g>
			<path class="st3" d="M1753.5-1257C1753.5-1257,1753.4-1257,1753.5-1257c-7.5,0-13.5-6-13.6-13.4c0-3.5,1.4-6.9,3.9-9.5
				c2.6-2.6,6-4,9.6-4c0,0,0,0,0,0c3.7,0,7.2,1.4,9.8,4.1c2.5,2.6,3.9,5.9,3.8,9.5C1766.9-1262.9,1761-1257,1753.5-1257z
				 M1753.4-1277.9C1753.4-1277.9,1753.4-1277.9,1753.4-1277.9c-2,0-3.9,0.8-5.3,2.3c-1.4,1.4-2.2,3.3-2.2,5.2
				c0,4.1,3.4,7.4,7.5,7.4l0,0c0,0,0,0,0,0c4.2,0,7.5-3.3,7.6-7.4c0-2-0.7-3.8-2.1-5.2C1757.5-1277.1,1755.5-1277.9,1753.4-1277.9z"
				/>
		</g>
	</g>
</g>
<rect x="170.1" y="169.2" class="st2" width="713" height="121"/>
</svg>
