<?xml version="1.0" encoding="utf-8"?>
<!-- Generator: Adobe Illustrator 23.0.2, SVG Export Plug-In . SVG Version: 6.00 Build 0)  -->
<svg version="1.1" id="Camada_1" xmlns="http://www.w3.org/2000/svg" xmlns:xlink="http://www.w3.org/1999/xlink" x="0px" y="0px"
	 viewBox="0 0 1121 1174" style="enable-background:new 0 0 1121 1174;" xml:space="preserve">
<style type="text/css">
	.st0{fill:#FFFFFF;}
</style>
<g>
	<g>
		<path class="st0" d="M1262.1,997.6c-109.4-69-261.3-132.3-429-177.2c-167.7-44.9-330.9-67.3-460.4-62.2
			c-138.5,5.6-220.9,40.9-237.2,102.6s36.5,133.5,153.7,208c39.8,25.2,85.2,49.3,134.6,72.3c-9-18.5-16.8-37-23.6-56.6
			c-154.8-77.9-239.5-160.9-225.4-213.1c21.9-81.9,293.8-107.1,647.7-11.8c354.4,95.3,576.5,253.5,554,335.3
			c-13.5,49.9-118.9,78.5-279.3,72.3c-15.1,14-31.4,26.4-48.8,38.1c46,3.4,89.2,4.5,129.5,3.4c138.5-5.6,220.9-40.9,237.2-102.6
			C1432.5,1144,1379.3,1072.2,1262.1,997.6z"/>
		<path class="st0" d="M1235.7,1153.5L1235.7,1153.5c0-0.6-129.5-109.9-457-196.3l17.9,52.7c0,0,163.7,20.7,381.3,159.3
			c-96.5,160.9-291.6,245.6-481.7,194.6c-228.8-61.7-365.1-298.9-303.4-527.7c61.7-229.4,298.3-365.6,527.7-303.9
			c188.4,51,314,219.8,318.5,406c0,10.1-0.6,29.2-6.2,41.5l48.8,30.8c0,0,9.5-23,10.1-41.5c9.5-220.9-134.6-427.9-357.2-487.9
			c-257.4-69.5-523.8,83.6-592.7,341s83.6,523.2,341,592.7c227.1,61.1,461.5-51,560.8-255.2
			C1241.3,1157.4,1238.5,1155.7,1235.7,1153.5z"/>
		<path class="st0" d="M307.6,685.2c-18.5,0-33.1-14.6-33.1-33.6c0-17.9,15.1-33.1,33.6-33.1c17.9,0,33.1,15.1,33.1,33.1
			C341.3,670.7,326.1,685.2,307.6,685.2z"/>
		<g>
			<path class="st0" d="M264.4,1347C264.4,1347,263.9,1347,264.4,1347c-44.9,0-80.2-35.3-80.2-80.8c0-44.9,35.3-80.2,80.2-80.2l0,0
				c21.9,0,42.1,8.4,57.2,23.6s23.6,35.3,23.6,57.2C345.2,1312.2,309.3,1347,264.4,1347z M264.4,1221.3L264.4,1221.3
				c-25.2,0-45.4,20.2-45.4,45.4c0,25.8,19.1,45.4,44.9,45.4l0,0l0,0c26.4,0,46-19.6,46-44.9c0-12.3-4.5-23.6-13.5-32.5
				C288.6,1225.8,276.8,1221.3,264.4,1221.3z"/>
		</g>
		<path class="st0" d="M1142.6,1415.9c0-16.8,12.9-29.7,29.7-29.7s29.7,13.5,29.7,29.7c0,16.8-13.5,30.3-29.7,29.7
			C1155.5,1446.2,1142.6,1432.8,1142.6,1415.9z"/>
		<g>
			<path class="st0" d="M1398.3,905.1C1398.3,905.1,1397.8,905.1,1398.3,905.1L1398.3,905.1c-26.4,0-47.1-21.3-47.7-47.1
				c0-12.3,5-24.1,14-33.1s20.7-14,33.6-14l0,0c12.9,0,25.2,5,34.2,14c9,9,13.5,20.7,13.5,33.1
				C1445.4,884.9,1424.1,905.1,1398.3,905.1z M1398.3,884.3L1398.3,884.3c14.6,0,26.4-11.2,26.4-25.8c0-6.7-2.2-13.5-7.3-18.5
				c-5-5-11.8-7.9-19.1-7.9l0,0c-6.7,0-13.5,2.8-18.5,7.9c-5,5-7.9,11.2-7.9,18.5C1372,872.5,1383.8,884.3,1398.3,884.3
				L1398.3,884.3z"/>
		</g>
	</g>
</g>
</svg>
