<?xml version="1.0" encoding="utf-8"?>
<!-- Generator: Adobe Illustrator 23.0.2, SVG Export Plug-In . SVG Version: 6.00 Build 0)  -->
<svg version="1.1" id="Camada_1" xmlns="http://www.w3.org/2000/svg" xmlns:xlink="http://www.w3.org/1999/xlink" x="0px" y="0px"
	 viewBox="0 0 512 512" style="enable-background:new 0 0 512 512;" xml:space="preserve">
<style type="text/css">
	.st0{fill:#7224B5;}
	.st1{fill:#3C1D5E;}
</style>
<path class="st0" d="M7.5,155.1c4.1,0,7.5-3.4,7.5-7.5V84.3c0-1.4,1.1-2.5,2.5-2.5h340.8c4.1,0,7.5-3.4,7.5-7.5
	c0-4.1-3.4-7.5-7.5-7.5h-37.1l-15-23.2c-3.2-5-8.7-8-14.7-8H190.9l-1.7-2.6c-3.2-5-8.7-8-14.7-8h-137C27.9,25,20,32.9,20,42.5v24.3
	h-2.5C7.9,66.8,0,74.6,0,84.3v63.3C0,151.8,3.4,155.1,7.5,155.1z M291.4,50.6c0.9,0,1.6,0.4,2.1,1.1l9.7,15h-92.2l-10.4-16.2H291.4z
	 M35,42.5c0-1.4,1.1-2.5,2.5-2.5h137c0.9,0,1.6,0.4,2.1,1.1l16.6,25.6H35V42.5z"/>
<path class="st1" d="M494.5,66.8H390.9c-4.1,0-7.5,3.4-7.5,7.5c0,4.1,3.4,7.5,7.5,7.5h103.6c1.4,0,2.5,1.1,2.5,2.5v320.3
	c0,1.4-1.1,2.5-2.5,2.5h-13.7V188.3c0-9.7-7.9-17.5-17.5-17.5H261.9c-4.1,0-7.5,3.4-7.5,7.5c0,4.1,3.4,7.5,7.5,7.5h201.4
	c1.4,0,2.5,1.1,2.5,2.5V417c0,30.3-24.6,54.9-54.9,54.9h-4c-30.3,0-54.9-24.6-54.9-54.9v-15.4c0-9.6-7.9-17.5-17.5-17.5H171.9V188.3
	c0-1.4,1.1-2.5,2.5-2.5h54.9c4.1,0,7.5-3.4,7.5-7.5c0-4.1-3.4-7.5-7.5-7.5h-54.9c-9.6,0-17.5,7.8-17.5,17.5V384H45.5
	c-9.6,0-17.5,7.9-17.5,17.5v5.6H17.5c-1.4,0-2.5-1.1-2.5-2.5V180.3c0-4.1-3.4-7.5-7.5-7.5S0,176.1,0,180.3v224.4
	c0,9.6,7.9,17.5,17.5,17.5h10.7c2.7,36.2,32.9,64.8,69.7,64.8h312.9c36.8,0,67.1-28.6,69.7-64.8h13.9c9.6,0,17.5-7.9,17.5-17.5V84.3
	C512,74.6,504.1,66.8,494.5,66.8z M97.9,471.9C67.6,471.9,43,447.3,43,417v-15.4c0-1.4,1.1-2.5,2.5-2.5h289c1.4,0,2.5,1.1,2.5,2.5
	V417c0,22.3,10.5,42.1,26.7,54.9H97.9z"/>
<path class="st0" d="M209,304h15.2c4.1,0,7.5-3.4,7.5-7.5c0-4.1-3.4-7.5-7.5-7.5H209c-4.1,0-7.5,3.4-7.5,7.5
	C201.5,300.7,204.9,304,209,304z"/>
<path class="st0" d="M240.7,296.5c0,4.1,3.4,7.5,7.5,7.5h183c4.1,0,7.5-3.4,7.5-7.5c0-4.1-3.4-7.5-7.5-7.5h-183
	C244.1,289,240.7,292.4,240.7,296.5z"/>
<path class="st0" d="M431.3,314H209c-4.1,0-7.5,3.4-7.5,7.5c0,4.1,3.4,7.5,7.5,7.5h222.2c4.1,0,7.5-3.4,7.5-7.5
	C438.8,317.4,435.4,314,431.3,314z"/>
<path class="st0" d="M431.3,339H209c-4.1,0-7.5,3.4-7.5,7.5c0,4.1,3.4,7.5,7.5,7.5h222.2c4.1,0,7.5-3.4,7.5-7.5
	C438.8,342.4,435.4,339,431.3,339z"/>
<path class="st0" d="M431.3,271.2c4.1,0,7.5-3.4,7.5-7.5v-27.2c0-4.1-3.4-7.5-7.5-7.5H350c-4.1,0-7.5,3.4-7.5,7.5v27.2
	c0,4.1,3.4,7.5,7.5,7.5H431.3z M357.5,244h66.3v12.2h-66.3V244z"/>
</svg>
