<?xml version="1.0" encoding="utf-8"?>
<!-- Generator: Adobe Illustrator 23.0.2, SVG Export Plug-In . SVG Version: 6.00 Build 0)  -->
<svg version="1.1" id="Camada_1" xmlns="http://www.w3.org/2000/svg" xmlns:xlink="http://www.w3.org/1999/xlink" x="0px" y="0px"
	 viewBox="0 0 512 512" style="enable-background:new 0 0 512 512;" xml:space="preserve">
<style type="text/css">
	.st0{fill:#3C1D5E;}
	.st1{fill:#7224B5;}
</style>
<path class="st0" d="M122.4,189.8l16.6,41.9c2.1,5.3,7.1,8.7,12.8,8.7c5.7,0,10.7-3.4,12.8-8.7l16.6-41.9c5.2-3.2,8.7-8.9,8.7-15.4
	V139c0-4.1-3.4-7.5-7.5-7.5s-7.5,3.4-7.5,7.5v35.4c0,1.7-1.4,3-3,3h-40.2c-1.7,0-3-1.4-3-3V46.4c0-1.7,1.4-3,3-3h40.2
	c1.7,0,3,1.4,3,3v59.9c0,4.1,3.4,7.5,7.5,7.5s7.5-3.4,7.5-7.5V46.4c0-5-2.1-9.6-5.4-12.8V18.2c0-9.9-8.1-18-18-18h-29.4
	c-9.9,0-18,8.1-18,18v15.5c-3.3,3.3-5.4,7.8-5.4,12.8v127.9C113.8,180.9,117.2,186.6,122.4,189.8z M151.9,223.3l-12.3-30.9h24.5
	L151.9,223.3z M137.2,15.1h29.4c1.7,0,3,1.4,3,3v10.3h-35.4V18.2C134.1,16.5,135.5,15.1,137.2,15.1z"/>
<path class="st1" d="M31.6,395.4h43.3c10.5,0,19.1-8.5,19.1-19V73.8c0-6.2-3-11.8-7.7-15.3L66.6,9.2c-2.2-5.5-7.5-9.1-13.4-9.1
	S42,3.7,39.8,9.2L20.2,58.6c-4.7,3.5-7.7,9-7.7,15.3v302.5C12.5,386.8,21.1,395.4,31.6,395.4z M74.8,69.8c2.2,0,4.1,1.8,4.1,4v262.4
	c-0.6-0.1-1.1-0.2-1.7-0.2H60.7V69.8H74.8z M45.7,336.1H29.3c-0.6,0-1.2,0.1-1.7,0.2V73.8c0-2.2,1.8-4,4-4h14.1V336.1z M74.8,380.4
	H31.6c-2.2,0-4-1.8-4-4v-25.5c0.6,0.1,1.1,0.2,1.7,0.2h47.9c0.6,0,1.2-0.1,1.7-0.2v25.5C78.9,378.6,77.1,380.4,74.8,380.4z
	 M53.2,16.1l15.3,38.7H37.9L53.2,16.1z"/>
<path class="st1" d="M128.3,395.4h47.2c10.5,0,19-8.5,19-19.1v-63.6c0-6-2.8-11.4-7.2-14.9v-12.2c0-10.5-8.5-19-19.1-19h-32.8
	c-10.5,0-19.1,8.5-19.1,19v12.2c-4.4,3.5-7.2,8.9-7.2,14.9v63.6C109.2,386.8,117.8,395.4,128.3,395.4z M179.5,376.3
	c0,2.2-1.8,4.1-4,4.1h-47.2c-2.2,0-4.1-1.8-4.1-4.1v-63.6c0-2.2,1.8-4.1,4.1-4.1h47.2c2.2,0,4,1.8,4,4.1V376.3z M135.5,281.6h32.8
	c2.2,0,4.1,1.8,4.1,4v8h-40.9v-8C131.4,283.4,133.3,281.6,135.5,281.6z"/>
<path class="st1" d="M230.6,389.3h22.5c2.4,4.8,7.3,8,12.9,8h12.1c5.7,0,10.6-3.3,12.9-8H468c16.9,0,30.6-13.7,30.6-30.6v-320
	C498.6,21.8,484.8,8,468,8H291c-2.4-4.8-7.3-8-12.9-8H266c-5.7,0-10.6,3.3-12.9,8h-22.5c-10.5,0-19.1,8.5-19.1,19.1v79.2
	c0,4.1,3.4,7.5,7.5,7.5c4.1,0,7.5-3.4,7.5-7.5V27.1c0-2.2,1.8-4.1,4.1-4.1h21v351.2h-21c-2.2,0-4.1-1.8-4.1-4.1V139
	c0-4.1-3.4-7.5-7.5-7.5c-4.1,0-7.5,3.4-7.5,7.5v231.2C211.5,380.7,220.1,389.3,230.6,389.3z M483.6,38.6v320c0,8.6-7,15.6-15.6,15.6
	H292.5V23H468C476.6,23,483.6,30,483.6,38.6z M266.5,15h11v367.3h-11V15z"/>
<path d="M420.1,350.3H446c4.1,0,7.5-3.4,7.5-7.5c0-4.1-3.4-7.5-7.5-7.5h-25.9c-4.1,0-7.5,3.4-7.5,7.5
	C412.6,347,416,350.3,420.1,350.3z"/>
<path d="M445.2,331L445.2,331c4.2,0,7.5-3.4,7.5-7.5c0-4.1-3.4-7.5-7.5-7.5c0,0,0,0,0,0h-0.1c-4.1,0-7.4,3.4-7.4,7.5
	C437.7,327.6,441.1,331,445.2,331z"/>
<path class="st0" d="M486,409.8h-461c-10.5,0-19.1,8.5-19.1,19.1v64.1c0,10.5,8.5,19.1,19.1,19.1h361.7c4.1,0,7.5-3.4,7.5-7.5
	s-3.4-7.5-7.5-7.5H25.1c-2.2,0-4.1-1.8-4.1-4.1v-64.1c0-2.2,1.8-4.1,4.1-4.1H53v11.3c0,4.1,3.4,7.5,7.5,7.5c4.1,0,7.5-3.4,7.5-7.5
	v-11.3h20.5v11.3c0,4.1,3.4,7.5,7.5,7.5c4.1,0,7.5-3.4,7.5-7.5v-11.3h20.5v11.3c0,4.1,3.4,7.5,7.5,7.5s7.5-3.4,7.5-7.5v-11.3h20.5
	v11.3c0,4.1,3.4,7.5,7.5,7.5s7.5-3.4,7.5-7.5v-11.3h20.5v11.3c0,4.1,3.4,7.5,7.5,7.5c4.1,0,7.5-3.4,7.5-7.5v-11.3h20.5v11.3
	c0,4.1,3.4,7.5,7.5,7.5c4.1,0,7.5-3.4,7.5-7.5v-11.3h20.5v11.3c0,4.1,3.4,7.5,7.5,7.5c4.1,0,7.5-3.4,7.5-7.5v-11.3h20.5v11.3
	c0,4.1,3.4,7.5,7.5,7.5s7.5-3.4,7.5-7.5v-11.3h20.5v11.3c0,4.1,3.4,7.5,7.5,7.5c4.1,0,7.5-3.4,7.5-7.5v-11.3h20.5v11.3
	c0,4.1,3.4,7.5,7.5,7.5c4.1,0,7.5-3.4,7.5-7.5v-11.3h20.5v11.3c0,4.1,3.4,7.5,7.5,7.5c4.1,0,7.5-3.4,7.5-7.5v-11.3h20.5v11.3
	c0,4.1,3.4,7.5,7.5,7.5s7.5-3.4,7.5-7.5v-11.3H486c2.2,0,4,1.8,4,4.1v64.1c0,2.2-1.8,4.1-4,4.1h-66.6c-4.1,0-7.5,3.4-7.5,7.5
	s3.4,7.5,7.5,7.5H486c10.5,0,19-8.5,19-19.1v-64.1C505.1,418.4,496.5,409.8,486,409.8z"/>
</svg>
