<?xml version="1.0" encoding="utf-8"?>
<!-- Generator: Adobe Illustrator 23.0.2, SVG Export Plug-In . SVG Version: 6.00 Build 0)  -->
<svg version="1.1" id="Camada_1" xmlns="http://www.w3.org/2000/svg" xmlns:xlink="http://www.w3.org/1999/xlink" x="0px" y="0px"
	 viewBox="0 0 512 512" style="enable-background:new 0 0 512 512;" xml:space="preserve">
<style type="text/css">
	.st0{fill:#7224B5;}
	.st1{fill:#3C1D5E;}
</style>
<path class="st0" d="M489.2,49H230.4c-4.1,0-7.5,3.4-7.5,7.5c0,4.1,3.4,7.5,7.5,7.5h258.8c4.3,0,7.8,3.5,7.8,7.8v228.3
	c0,4.1,3.4,7.5,7.5,7.5c4.1,0,7.5-3.4,7.5-7.5V71.8C512,59.2,501.8,49,489.2,49z"/>
<path class="st1" d="M504.5,325.3c-4.1,0-7.5,3.4-7.5,7.5v14.8H15V71.8c0-4.3,3.5-7.8,7.8-7.8h110.5c4.1,0,7.5-3.4,7.5-7.5
	c0-4.1-3.4-7.5-7.5-7.5H22.8C10.2,49,0,59.2,0,71.8v322.1c0,9.8,7.9,17.7,17.7,17.7h181.8v36.3h-31c-4.1,0-7.5,3.4-7.5,7.5
	c0,4.1,3.4,7.5,7.5,7.5h175c4.1,0,7.5-3.4,7.5-7.5c0-4.1-3.4-7.5-7.5-7.5h-31v-36.3h181.8c9.8,0,17.7-7.9,17.7-17.7v-61.1
	C512,328.7,508.6,325.3,504.5,325.3z M297.5,447.9h-83.1v-36.3h83.1V447.9z M494.3,396.6H17.7c-1.5,0-2.7-1.2-2.7-2.7v-31.2h482
	v31.2C497,395.4,495.8,396.6,494.3,396.6z"/>
<path class="st1" d="M165.9,64h31.8c4.1,0,7.5-3.4,7.5-7.5c0-4.1-3.4-7.5-7.5-7.5h-31.8c-4.1,0-7.5,3.4-7.5,7.5
	C158.4,60.6,161.8,64,165.9,64z"/>
<path class="st1" d="M46.4,105.6c-4.1,0-7.5,3.4-7.5,7.5v199c0,4.1,3.4,7.5,7.5,7.5h58.4c4.1,0,7.5-3.4,7.5-7.5v-199
	c0-4.1-3.4-7.5-7.5-7.5H46.4z M97.3,120.6v9.1H53.9v-9.1H97.3z M53.9,304.7v-160h43.4v160H53.9z"/>
<path class="st1" d="M413.7,187h58.4c4.1,0,7.5-3.4,7.5-7.5v-66.4c0-4.1-3.4-7.5-7.5-7.5h-58.4c-4.1,0-7.5,3.4-7.5,7.5v66.4
	C406.2,183.7,409.5,187,413.7,187z M421.2,172v-27.3h43.4V172H421.2z M464.6,120.6v9.1h-43.4v-9.1H464.6z"/>
<path class="st0" d="M406.2,285.9c0,4.1,3.4,7.5,7.5,7.5h58.4c4.1,0,7.5-3.4,7.5-7.5v-66.4c0-4.1-3.4-7.5-7.5-7.5h-58.4
	c-4.1,0-7.5,3.4-7.5,7.5V285.9z M421.2,278.4V251h43.4v27.3H421.2z M464.6,227v9.1h-43.4V227H464.6z"/>
<path class="st0" d="M146.6,249.6c0,12.1,9.8,21.9,21.9,21.9c5.5,0,10.5-2,14.4-5.4l51.5,28.6c-0.2,1.1-0.3,2.2-0.3,3.4
	c0,12.1,9.8,21.9,21.9,21.9c12.1,0,21.9-9.8,21.9-21.9c0-1.2-0.1-2.3-0.3-3.4l51.5-28.6c3.8,3.4,8.9,5.4,14.4,5.4
	c12.1,0,21.9-9.8,21.9-21.9c0-9.4-6-17.5-14.4-20.5v-46.5c8.4-3.1,14.4-11.1,14.4-20.6c0-12.1-9.8-21.9-21.9-21.9
	c-5.5,0-10.5,2-14.3,5.4L277.6,117c0.2-1.1,0.3-2.2,0.3-3.4c0-12.1-9.8-21.9-21.9-21.9c-12.1,0-21.9,9.8-21.9,21.9
	c0,1.2,0.1,2.3,0.3,3.4l-51.6,28.6c-3.8-3.3-8.8-5.4-14.3-5.4c-12.1,0-21.9,9.8-21.9,21.9c0,9.4,6,17.5,14.4,20.5v46.5
	C152.6,232.1,146.6,240.2,146.6,249.6z M256,135.5c5.5,0,10.5-2,14.3-5.4l51.6,28.6c-0.2,1.1-0.3,2.2-0.3,3.4s0.1,2.3,0.3,3.4
	L270.3,194c-3.8-3.3-8.8-5.4-14.3-5.4s-10.5,2-14.3,5.4l-51.6-28.6c0.2-1.1,0.3-2.2,0.3-3.4s-0.1-2.3-0.3-3.4l51.6-28.6
	C245.5,133.4,250.5,135.5,256,135.5z M321.6,249.6c0,1.1,0.1,2.3,0.3,3.4l-51.6,28.6c-2-1.7-4.3-3.1-6.8-4v-46.4
	c8.4-3.1,14.4-11.1,14.4-20.6c0-1.2-0.1-2.3-0.3-3.4l51.6-28.6c2,1.7,4.3,3.1,6.8,4v46.5C327.6,232.1,321.6,240.2,321.6,249.6z
	 M262.9,210.5c0,3.8-3.1,6.9-6.9,6.9s-6.9-3.1-6.9-6.9c0-3.8,3.1-6.9,6.9-6.9S262.9,206.8,262.9,210.5z M182.8,178.6l51.6,28.6
	c-0.2,1.1-0.3,2.2-0.3,3.4c0,9.4,6,17.5,14.4,20.5v46.4c-2.5,0.9-4.8,2.3-6.8,4L190.1,253c0.2-1.1,0.3-2.2,0.3-3.4
	c0-9.4-6-17.5-14.4-20.6v-46.5C178.5,181.7,180.8,180.3,182.8,178.6z M168.5,256.5c-3.8,0-6.9-3.1-6.9-6.9c0-3.8,3.1-6.9,6.9-6.9
	c3.8,0,6.9,3.1,6.9,6.9C175.4,253.4,172.3,256.5,168.5,256.5z M256,304.9c-3.8,0-6.9-3.1-6.9-6.9s3.1-6.9,6.9-6.9s6.9,3.1,6.9,6.9
	S259.8,304.9,256,304.9z M343.5,256.5c-3.8,0-6.9-3.1-6.9-6.9c0-3.8,3.1-6.9,6.9-6.9s6.9,3.1,6.9,6.9
	C350.4,253.4,347.3,256.5,343.5,256.5z M343.5,155.2c3.8,0,6.9,3.1,6.9,6.9s-3.1,6.9-6.9,6.9s-6.9-3.1-6.9-6.9
	S339.7,155.2,343.5,155.2z M256,106.7c3.8,0,6.9,3.1,6.9,6.9s-3.1,6.9-6.9,6.9s-6.9-3.1-6.9-6.9S252.2,106.7,256,106.7z
	 M168.5,155.2c3.8,0,6.9,3.1,6.9,6.9s-3.1,6.9-6.9,6.9c-3.8,0-6.9-3.1-6.9-6.9S164.7,155.2,168.5,155.2z"/>
</svg>
