<?xml version="1.0" encoding="utf-8"?>
<!-- Generator: Adobe Illustrator 23.0.2, SVG Export Plug-In . SVG Version: 6.00 Build 0)  -->
<svg version="1.1" id="Camada_1" xmlns="http://www.w3.org/2000/svg" xmlns:xlink="http://www.w3.org/1999/xlink" x="0px" y="0px"
	 viewBox="0 0 512 512" style="enable-background:new 0 0 512 512;" xml:space="preserve">
<style type="text/css">
	.st0{fill:#3C1D5E;}
	.st1{fill:#7224B5;}
</style>
<path class="st0" d="M504.5,141.4c4.1,0,7.5-3.4,7.5-7.5V89.3c0-12.6-10.2-22.8-22.8-22.8h-64.9v-17c0-9.6-7.9-17.5-17.5-17.5H105.2
	c-9.6,0-17.5,7.9-17.5,17.5v17H22.8C10.2,66.5,0,76.8,0,89.3v211.1c0,4.1,3.4,7.5,7.5,7.5s7.5-3.4,7.5-7.5V89.3
	c0-4.3,3.5-7.8,7.8-7.8h64.9v283.6H15v-32.1c0-4.1-3.4-7.5-7.5-7.5S0,328.9,0,333.1v78.3c0,9.8,7.9,17.7,17.7,17.7h181.8v36.3h-31
	c-4.1,0-7.5,3.4-7.5,7.5c0,4.1,3.4,7.5,7.5,7.5h175c4.1,0,7.5-3.4,7.5-7.5c0-4.1-3.4-7.5-7.5-7.5h-31v-36.3h82.2
	c4.1,0,7.5-3.4,7.5-7.5c0-4.1-3.4-7.5-7.5-7.5h-377c-1.5,0-2.7-1.2-2.7-2.7v-31.2h482v31.2c0,1.5-1.2,2.7-2.7,2.7h-66.9
	c-4.1,0-7.5,3.4-7.5,7.5c0,4.1,3.4,7.5,7.5,7.5h66.9c9.8,0,17.7-7.9,17.7-17.7V166.6c0-4.1-3.4-7.5-7.5-7.5s-7.5,3.4-7.5,7.5v198.6
	h-72.7V81.5h64.9c4.3,0,7.8,3.5,7.8,7.8v44.6C497,138.1,500.4,141.4,504.5,141.4z M297.5,465.5h-83.1v-36.3h83.1V465.5z M102.7,118
	h87.6l23.8,20.8l-6.9,10.8c-8.4-8.6-19.9-13.6-32.3-13.6c-1.8,0-3.6,0.1-5.4,0.3c-4.7-5.1-11.4-8.3-18.9-8.3
	c-14.2,0-25.7,11.6-25.7,25.8c0,6.4,2.3,12.2,6.2,16.7c-0.8,3.5-1.3,7-1.3,10.6c0,19.3,12.4,36.2,29.9,42.5l-26.9,41.9h-30.1
	L102.7,118L102.7,118z M284.5,180.2L233.7,136l11.5-18h39.2V180.2z M222.3,126l-9.2-8h14.3L222.3,126z M168.1,210.4
	c-13.5-3.1-23.4-15.2-23.4-29.3c0-0.7,0-1.5,0.1-2.2c1.9,0.4,3.8,0.7,5.8,0.7c14.2,0,25.7-11.6,25.7-25.7c0-0.9-0.1-1.9-0.1-2.8
	c9,0.4,17.1,4.7,22.5,11.7L168.1,210.4z M161.4,153.8c0,5.9-4.8,10.7-10.8,10.7s-10.7-4.8-10.7-10.7s4.8-10.8,10.7-10.8
	S161.4,147.9,161.4,153.8z M225.6,148.7l58.9,51.4v65.4H150.6L225.6,148.7z M299.5,118h109.8v147.5H299.5V118z M105.2,47h301.6
	c1.4,0,2.5,1.1,2.5,2.5V103H102.7V49.5C102.7,48.1,103.8,47,105.2,47z M176,365.2h-36.9v-44.6H176V365.2z M274.4,365.2h-36.9v-44.6
	h36.9V365.2z M372.9,365.2H336v-44.6h36.9V365.2z M387.9,365.2v-52.1c0-4.1-3.4-7.5-7.5-7.5h-51.9c-4.1,0-7.5,3.4-7.5,7.5v52.1
	h-31.5v-52.1c0-4.1-3.4-7.5-7.5-7.5h-51.9c-4.1,0-7.5,3.4-7.5,7.5v52.1H191v-52.1c0-4.1-3.4-7.5-7.5-7.5h-51.9
	c-4.1,0-7.5,3.4-7.5,7.5v52.1h-21.4v-84.7h306.6v84.7H387.9z"/>
<path class="st1" d="M130,93h38.5c4.1,0,7.5-3.4,7.5-7.5s-3.4-7.5-7.5-7.5H130c-4.1,0-7.5,3.4-7.5,7.5S125.9,93,130,93z"/>
<path class="st1" d="M274.7,93c4.1,0,7.5-3.4,7.5-7.5s-3.4-7.5-7.5-7.5h-0.1c-4.1,0-7.5,3.4-7.5,7.5S270.6,93,274.7,93z"/>
<path class="st1" d="M300.8,93c4.1,0,7.5-3.4,7.5-7.5s-3.4-7.5-7.5-7.5h-0.1c-4.1,0-7.5,3.4-7.5,7.5S296.7,93,300.8,93z"/>
<path class="st1" d="M326.9,93c4.1,0,7.5-3.4,7.5-7.5S331,78,326.9,78h-0.1c-4.1,0-7.5,3.4-7.5,7.5S322.7,93,326.9,93z"/>
<path class="st1" d="M352.9,93c4.1,0,7.5-3.4,7.5-7.5s-3.4-7.5-7.5-7.5h-0.1c-4.1,0-7.5,3.4-7.5,7.5S348.8,93,352.9,93z"/>
<path class="st1" d="M379,93c4.1,0,7.5-3.4,7.5-7.5S383.2,78,379,78h-0.1c-4.1,0-7.5,3.4-7.5,7.5S374.9,93,379,93z"/>
<path class="st1" d="M362.8,214.2h-34.4c-9.1,0-16.5,7.4-16.5,16.5c0,9.1,7.4,16.5,16.5,16.5h34.4c9.1,0,16.5-7.4,16.5-16.5
	C379.3,221.6,371.9,214.2,362.8,214.2z M362.8,232.2h-34.4c-0.8,0-1.5-0.7-1.5-1.5s0.7-1.5,1.5-1.5h34.4c0.8,0,1.5,0.7,1.5,1.5
	S363.6,232.2,362.8,232.2z"/>
<path class="st1" d="M319.4,163.7c4.1,0,7.5-3.4,7.5-7.5v-3.1c0-4.1-3.4-7.5-7.5-7.5s-7.5,3.4-7.5,7.5v3.1
	C311.9,160.3,315.3,163.7,319.4,163.7z"/>
<path class="st1" d="M336.1,163.7c4.1,0,7.5-3.4,7.5-7.5v-3.1c0-4.1-3.4-7.5-7.5-7.5c-4.1,0-7.5,3.4-7.5,7.5v3.1
	C328.6,160.3,331.9,163.7,336.1,163.7z"/>
<path class="st1" d="M319.4,186.5h34.9c4.1,0,7.5-3.4,7.5-7.5s-3.4-7.5-7.5-7.5h-34.9c-4.1,0-7.5,3.4-7.5,7.5
	S315.3,186.5,319.4,186.5z"/>
<path class="st1" d="M384.1,189.5h-64.6c-4.1,0-7.5,3.4-7.5,7.5s3.4,7.5,7.5,7.5h64.6c4.1,0,7.5-3.4,7.5-7.5
	S388.2,189.5,384.1,189.5z"/>
<path class="st1" d="M196.9,220.3c0,0-0.1,0-0.1,0c-4.1,0.1-7.4,3.5-7.4,7.6c0.1,4.1,3.4,7.4,7.5,7.4c0,0,0.1,0,0.1,0
	c4.1-0.1,7.4-3.5,7.4-7.6v-0.1C204.3,223.5,201,220.3,196.9,220.3z"/>
<path class="st1" d="M196.9,238.4c-4.1,0-7.5,3.4-7.5,7.5c0,4.1,3.4,7.5,7.5,7.5c4.1,0,7.5-3.4,7.5-7.5v-0.1
	C204.4,241.7,201,238.4,196.9,238.4z"/>
<path class="st1" d="M215.4,220.3c-4.1,0-7.5,3.4-7.5,7.5s3.4,7.5,7.5,7.5c4.1,0,7.5-3.4,7.5-7.5v-0.1
	C222.9,223.6,219.6,220.3,215.4,220.3z"/>
<path class="st1" d="M215.4,238.4c-4.1,0-7.5,3.4-7.5,7.5c0,4.1,3.4,7.5,7.5,7.5c4.1,0,7.5-3.4,7.5-7.5v-0.1
	C222.9,241.7,219.6,238.4,215.4,238.4z"/>
<path class="st1" d="M234,220.3c-4.1,0-7.5,3.4-7.5,7.5c0,4.1,3.4,7.5,7.5,7.5c4.1,0,7.5-3.4,7.5-7.5v-0.1
	C241.5,223.6,238.1,220.3,234,220.3z"/>
<path class="st1" d="M234,238.4c-4.1,0-7.5,3.4-7.5,7.5c0,4.1,3.4,7.5,7.5,7.5c4.1,0,7.5-3.4,7.5-7.5v-0.1
	C241.5,241.7,238.1,238.4,234,238.4z"/>
</svg>
